<svg width="16" height="16" viewBox="0 0 16 16" fill="none" xmlns="http://www.w3.org/2000/svg">
<path fill-rule="evenodd" clip-rule="evenodd" d="M1.0625 3.08301C1.0625 2.04747 1.90197 1.20801 2.9375 1.20801H3.79477C4.3325 1.20801 4.80123 1.57398 4.93165 2.09566L5.62277 4.86015C5.73713 5.31757 5.56621 5.79897 5.18901 6.08187L4.3805 6.68826C4.29654 6.75122 4.27829 6.84343 4.30188 6.90781C5.01157 8.84519 6.55032 10.3839 8.4877 11.0936C8.55208 11.1172 8.64428 11.099 8.70725 11.015L9.31364 10.2065C9.59653 9.8293 10.0779 9.65838 10.5354 9.77273L13.2998 10.4639C13.8215 10.5943 14.1875 11.063 14.1875 11.6007V12.458C14.1875 13.4935 13.348 14.333 12.3125 14.333H10.9062C5.4697 14.333 1.0625 9.92581 1.0625 4.48926V3.08301Z" fill="#FE5D26"/>
</svg>
