<svg width="15" height="16" viewBox="0 0 15 16" fill="none" xmlns="http://www.w3.org/2000/svg">
<g clip-path="url(#clip0_1038_469)">
<path d="M15 8.02051C15 3.87837 11.6421 0.520508 7.5 0.520508C3.35786 0.520508 0 3.87837 0 8.02051C0 11.7639 2.74263 14.8667 6.32812 15.4294V10.1885H4.42383V8.02051H6.32812V6.36816C6.32812 4.48848 7.44785 3.4502 9.16099 3.4502C9.9813 3.4502 10.8398 3.59668 10.8398 3.59668V5.44238H9.89414C8.9625 5.44238 8.67188 6.02056 8.67188 6.61426V8.02051H10.752L10.4194 10.1885H8.67188V15.4294C12.2574 14.8667 15 11.7639 15 8.02051Z" fill="white"/>
</g>
<defs>
<clipPath id="clip0_1038_469">
<rect width="15" height="15" fill="white" transform="translate(0 0.520508)"/>
</clipPath>
</defs>
</svg>
