<svg width="14" height="17" viewBox="0 0 14 17" fill="none" xmlns="http://www.w3.org/2000/svg">
<path fill-rule="evenodd" clip-rule="evenodd" d="M8.90562 0.898541C9.13211 1.02481 9.24329 1.28927 9.17506 1.53945L7.67759 7.03018H13.1423C13.3668 7.03018 13.57 7.1634 13.6595 7.36934C13.749 7.57528 13.7078 7.81469 13.5546 7.97885L5.65981 16.4375C5.48288 16.6271 5.19946 16.6715 4.97297 16.5453C4.74648 16.419 4.63529 16.1545 4.70352 15.9044L6.20099 10.4136H0.736285C0.511738 10.4136 0.30859 10.2804 0.219097 10.0745C0.129604 9.86853 0.170824 9.62911 0.324036 9.46496L8.21877 1.00631C8.39571 0.816738 8.67912 0.772268 8.90562 0.898541Z" fill="white"/>
</svg>
