<svg width="66" height="66" viewBox="0 0 66 66" fill="none" xmlns="http://www.w3.org/2000/svg">
<rect x="0.36014" y="1.23514" width="64.3636" height="64.3636" rx="8.50784" fill="url(#paint0_linear_160_10585)" fill-opacity="0.2"/>
<rect x="0.36014" y="1.23514" width="64.3636" height="64.3636" rx="8.50784" stroke="#262626" stroke-width="0.739812"/>
<path fill-rule="evenodd" clip-rule="evenodd" d="M26.9939 25.0941C26.9939 23.0511 28.65 21.395 30.6929 21.395H34.392C36.4349 21.395 38.091 23.0511 38.091 25.0941V25.3468C39.2408 25.4521 40.3812 25.5897 41.5115 25.7588C43.3044 26.0271 44.5644 27.5868 44.5644 29.355V33.095C44.5644 34.5884 43.6598 35.9955 42.1769 36.4885C39.1472 37.4958 35.9076 38.0408 32.5425 38.0408C29.1774 38.0408 25.9377 37.4958 22.908 36.4885C21.4251 35.9955 20.5205 34.5883 20.5205 33.095V29.355C20.5205 27.5868 21.7805 26.0271 23.5734 25.7588C24.7037 25.5897 25.8441 25.4521 26.9939 25.3468V25.0941ZM36.2415 25.0941V25.2061C35.0179 25.1318 33.7845 25.0941 32.5425 25.0941C31.3004 25.0941 30.067 25.1318 28.8434 25.2061V25.0941C28.8434 24.0726 29.6715 23.2445 30.6929 23.2445H34.392C35.4134 23.2445 36.2415 24.0726 36.2415 25.0941ZM32.5425 35.2665C33.0532 35.2665 33.4672 34.8525 33.4672 34.3417C33.4672 33.831 33.0532 33.417 32.5425 33.417C32.0317 33.417 31.6177 33.831 31.6177 34.3417C31.6177 34.8525 32.0317 35.2665 32.5425 35.2665Z" fill="#4280EF"/>
<path d="M21.4453 41.3082V37.8607C21.7203 38.0115 22.0137 38.1402 22.3245 38.2436C25.54 39.3126 28.9766 39.8903 32.5425 39.8903C36.1084 39.8903 39.5449 39.3126 42.7604 38.2436C43.0712 38.1403 43.3646 38.0115 43.6396 37.8607V41.3082C43.6396 43.0985 42.3484 44.6713 40.5286 44.9129C37.9154 45.2599 35.2496 45.4389 32.5425 45.4389C29.8353 45.4389 27.1695 45.2599 24.5563 44.9129C22.7365 44.6713 21.4453 43.0985 21.4453 41.3082Z" fill="#4280EF"/>
<defs>
<linearGradient id="paint0_linear_160_10585" x1="-83.9784" y1="-63.4984" x2="65.0937" y2="65.9687" gradientUnits="userSpaceOnUse">
<stop offset="0.224072" stop-color="#FE5D26"/>
<stop offset="0.707836" stop-color="#FE5D26" stop-opacity="0"/>
</linearGradient>
</defs>
</svg>
