<svg width="66" height="67" viewBox="0 0 66 67" fill="none" xmlns="http://www.w3.org/2000/svg">
<rect x="0.36014" y="1.35086" width="64.3636" height="64.3636" rx="8.50784" fill="url(#paint0_linear_160_10549)" fill-opacity="0.2"/>
<rect x="0.36014" y="1.35086" width="64.3636" height="64.3636" rx="8.50784" stroke="#262626" stroke-width="0.739812"/>
<path fill-rule="evenodd" clip-rule="evenodd" d="M27.0383 26.4594C27.4716 26.8928 27.4716 27.5954 27.0383 28.0288L21.5346 33.5325L27.0383 39.0362C27.4716 39.4696 27.4716 40.1722 27.0383 40.6056C26.6049 41.0389 25.9023 41.0389 25.4689 40.6056L19.1805 34.3172C18.7471 33.8838 18.7471 33.1812 19.1805 32.7478L25.4689 26.4594C25.9023 26.026 26.6049 26.026 27.0383 26.4594ZM38.0457 26.4594C38.4791 26.026 39.1817 26.026 39.6151 26.4594L45.9035 32.7478C46.3369 33.1812 46.3369 33.8838 45.9035 34.3172L39.6151 40.6056C39.1817 41.0389 38.4791 41.0389 38.0457 40.6056C37.6123 40.1722 37.6123 39.4696 38.0457 39.0362L43.5494 33.5325L38.0457 28.0288C37.6123 27.5954 37.6123 26.8928 38.0457 26.4594Z" fill="#4280EF"/>
<path fill-rule="evenodd" clip-rule="evenodd" d="M34.5801 21.7116C35.184 21.8158 35.5892 22.3898 35.4851 22.9938L31.786 44.4483C31.6819 45.0523 31.1079 45.4575 30.5039 45.3533C29.8999 45.2492 29.4947 44.6752 29.5989 44.0712L33.2979 22.6167C33.4021 22.0127 33.9761 21.6075 34.5801 21.7116Z" fill="#4280EF"/>
<defs>
<linearGradient id="paint0_linear_160_10549" x1="-83.9784" y1="-63.3827" x2="65.0937" y2="66.0844" gradientUnits="userSpaceOnUse">
<stop offset="0.224072" stop-color="#FE5D26"/>
<stop offset="0.707836" stop-color="#FE5D26" stop-opacity="0"/>
</linearGradient>
</defs>
</svg>
