<svg width="66" height="67" viewBox="0 0 66 67" fill="none" xmlns="http://www.w3.org/2000/svg">
<rect x="1.02713" y="1.35086" width="64.3636" height="64.3636" rx="8.50784" fill="url(#paint0_linear_160_10571)" fill-opacity="0.2"/>
<rect x="1.02713" y="1.35086" width="64.3636" height="64.3636" rx="8.50784" stroke="#262626" stroke-width="0.739812"/>
<path d="M37.6828 32.4227C38.3786 32.4227 38.9066 31.7823 38.6258 31.1457C37.7081 29.0657 35.6277 27.6139 33.2082 27.6139C32.9918 27.6139 32.7782 27.6256 32.5678 27.6482C31.8755 27.7227 31.5843 28.5003 31.9325 29.1033L33.5286 31.8678C33.7268 32.2112 34.0932 32.4227 34.4896 32.4227L37.6828 32.4227Z" fill="#4280EF"/>
<path d="M30.0115 30.2149C29.6632 29.6117 28.8437 29.475 28.4319 30.0367C27.7138 31.0162 27.2897 32.2248 27.2897 33.5324C27.2897 34.8401 27.7138 36.0487 28.432 37.0283C28.8438 37.59 29.6633 37.4532 30.0115 36.85L31.6065 34.0874C31.8048 33.744 31.8048 33.321 31.6065 32.9777L30.0115 30.2149Z" fill="#4280EF"/>
<path d="M31.9326 37.9616C31.5844 38.5646 31.8756 39.3422 32.5679 39.4167C32.7783 39.4393 32.9919 39.4509 33.2082 39.4509C35.6277 39.4509 37.7081 37.9991 38.6258 35.9191C38.9066 35.2825 38.3786 34.6421 37.6828 34.6421H34.4897C34.0933 34.6421 33.7269 34.8536 33.5287 35.197L31.9326 37.9616Z" fill="#4280EF"/>
<path fill-rule="evenodd" clip-rule="evenodd" d="M39.3184 25.1685L40.2726 23.5158C40.579 22.985 40.3971 22.3063 39.8664 21.9999C39.3356 21.6934 38.6569 21.8753 38.3505 22.4061L37.3972 24.0571C36.4385 23.6327 35.4032 23.3494 34.3179 23.2338V21.3255C34.3179 20.7127 33.8211 20.2158 33.2082 20.2158C32.5953 20.2158 32.0985 20.7127 32.0985 21.3255V23.2338C31.0132 23.3494 29.9779 23.6327 29.0192 24.0572L28.066 22.4061C27.7595 21.8753 27.0808 21.6935 26.5501 21.9999C26.0193 22.3064 25.8374 22.9851 26.1439 23.5158L27.098 25.1685C26.236 25.7993 25.4751 26.5602 24.8443 27.4223L23.1913 26.4679C22.6605 26.1615 21.9818 26.3433 21.6754 26.8741C21.3689 27.4049 21.5508 28.0836 22.0816 28.39L23.7329 29.3434C23.3084 30.3022 23.0252 31.3374 22.9096 32.4227H21.0013C20.3884 32.4227 19.8916 32.9196 19.8916 33.5324C19.8916 34.1453 20.3884 34.6422 21.0013 34.6422H22.9096C23.0252 35.7275 23.3084 36.7627 23.7329 37.7214L22.0816 38.6748C21.5508 38.9813 21.3689 39.66 21.6754 40.1907C21.9818 40.7215 22.6605 40.9033 23.1913 40.5969L24.8442 39.6426C25.475 40.5046 26.2359 41.2654 27.0978 41.8962L26.1436 43.549C25.8371 44.0798 26.019 44.7585 26.5498 45.0649C27.0805 45.3714 27.7592 45.1895 28.0657 44.6588L29.019 43.0076C29.9778 43.4322 31.0131 43.7154 32.0985 43.831V45.7393C32.0985 46.3522 32.5953 46.849 33.2082 46.849C33.8211 46.849 34.3179 46.3522 34.3179 45.7393V43.831C35.4033 43.7154 36.4387 43.4322 37.3975 43.0076L38.3508 44.6588C38.6572 45.1896 39.3359 45.3714 39.8667 45.065C40.3974 44.7585 40.5793 44.0798 40.2729 43.5491L39.3186 41.8962C40.1805 41.2654 40.9413 40.5046 41.5721 39.6427L43.2249 40.5969C43.7557 40.9033 44.4344 40.7215 44.7408 40.1907C45.0472 39.66 44.8654 38.9813 44.3346 38.6748L42.6835 37.7215C43.108 36.7628 43.3912 35.7275 43.5068 34.6422H45.4151C46.028 34.6422 46.5248 34.1453 46.5248 33.5324C46.5248 32.9196 46.028 32.4227 45.4151 32.4227H43.5068C43.3912 31.3374 43.108 30.3021 42.6835 29.3433L44.3346 28.39C44.8654 28.0836 45.0472 27.4049 44.7408 26.8741C44.4344 26.3433 43.7557 26.1615 43.2249 26.4679L41.5721 27.4222C40.9413 26.5602 40.1804 25.7993 39.3184 25.1685ZM33.2082 25.3945C31.7452 25.3945 30.3723 25.7806 29.1859 26.4564C29.1707 26.4662 29.1552 26.4757 29.1394 26.4848C29.1241 26.4936 29.1087 26.502 29.0932 26.51C27.8915 27.2158 26.8869 28.2212 26.1822 29.4236C26.1752 29.437 26.1679 29.4503 26.1603 29.4635C26.1523 29.4772 26.1442 29.4907 26.1358 29.5039C25.4577 30.6917 25.0703 32.0668 25.0703 33.5324C25.0703 34.9979 25.4576 36.3729 26.1355 37.5606C26.144 37.5739 26.1523 37.5875 26.1603 37.6014C26.1679 37.6147 26.1753 37.6281 26.1824 37.6416C26.8875 38.8447 27.8929 39.8505 29.0956 40.5562C29.1102 40.5638 29.1247 40.5718 29.1391 40.5801C29.154 40.5887 29.1687 40.5976 29.1831 40.6068C30.3701 41.2837 31.744 41.6704 33.2082 41.6704C34.6726 41.6704 36.0467 41.2836 37.2338 40.6066C37.2481 40.5975 37.2626 40.5886 37.2773 40.5801C37.2916 40.5719 37.3059 40.564 37.3204 40.5565C38.522 39.8515 39.5267 38.8469 40.2319 37.6453C40.2395 37.6305 40.2475 37.6159 40.2559 37.6014C40.2646 37.5863 40.2736 37.5715 40.2829 37.557C40.9596 36.3701 41.3461 34.9964 41.3461 33.5324C41.3461 32.0683 40.9595 30.6945 40.2827 29.5075C40.2735 29.4931 40.2646 29.4784 40.2559 29.4634C40.2476 29.449 40.2397 29.4345 40.2321 29.4199C39.5274 28.219 38.5235 27.2148 37.3227 26.5098C37.3074 26.5018 37.2921 26.4935 37.277 26.4848C37.2614 26.4757 37.246 26.4664 37.231 26.4567C36.0445 25.7807 34.6715 25.3945 33.2082 25.3945Z" fill="#4280EF"/>
<defs>
<linearGradient id="paint0_linear_160_10571" x1="-83.3114" y1="-63.3827" x2="65.7607" y2="66.0844" gradientUnits="userSpaceOnUse">
<stop offset="0.224072" stop-color="#FE5D26"/>
<stop offset="0.707836" stop-color="#FE5D26" stop-opacity="0"/>
</linearGradient>
</defs>
</svg>
