<svg width="66" height="66" viewBox="0 0 66 66" fill="none" xmlns="http://www.w3.org/2000/svg">
<rect x="0.693148" y="0.46683" width="64.3636" height="64.3636" rx="8.50784" fill="url(#paint0_linear_160_10518)" fill-opacity="0.2"/>
<rect x="0.693148" y="0.46683" width="64.3636" height="64.3636" rx="8.50784" stroke="#262626" stroke-width="0.739812"/>
<path d="M28.7158 42.1535H39.3858C41.4534 42.1535 42.4873 41.1096 42.4873 39.0017V26.8261C42.4873 24.7283 41.4534 23.6743 39.3858 23.6743H29.7798L31.4259 25.2904H39.2954C40.3393 25.2904 40.8713 25.8424 40.8713 26.8462V38.9816C40.8713 39.9854 40.3393 40.5374 39.3054 40.5374H28.7961C27.7622 40.5374 27.2202 39.9854 27.2202 38.9816V31.8148H25.6041V39.0017C25.6041 41.1096 26.6481 42.1535 28.7158 42.1535ZM30.2415 29.5965H37.6292C37.9804 29.5965 38.2514 29.3255 38.2514 28.9742C38.2514 28.6329 37.9804 28.3619 37.6292 28.3619H30.2415C29.8701 28.3619 29.6091 28.6329 29.6091 28.9742C29.6091 29.3255 29.8701 29.5965 30.2415 29.5965ZM30.2415 33.5312H37.6292C37.9804 33.5312 38.2514 33.2502 38.2514 32.8988C38.2514 32.5576 37.9804 32.2966 37.6292 32.2966H30.2415C29.8701 32.2966 29.6091 32.5576 29.6091 32.8988C29.6091 33.2502 29.8701 33.5312 30.2415 33.5312ZM30.2415 37.4559H37.6292C37.9804 37.4559 38.2514 37.195 38.2514 36.8536C38.2514 36.5024 37.9804 36.2213 37.6292 36.2213H30.2415C29.8701 36.2213 29.6091 36.5024 29.6091 36.8536C29.6091 37.195 29.8701 37.4559 30.2415 37.4559ZM22.7033 27.7396C22.6932 28.121 23.155 28.2515 23.4059 28.0005L24.9417 26.4648L26.6581 30.7006C26.7384 30.8914 26.9391 30.9817 27.1198 30.9114L28.1236 30.5099C28.2942 30.4296 28.3645 30.2188 28.2741 30.0281L26.4774 25.8625L28.6355 25.7722C29.0169 25.7521 29.2076 25.3908 28.9366 25.0997L23.4461 19.4586C23.1951 19.2076 22.8037 19.3482 22.7936 19.7195L22.7033 27.7396Z" fill="#4280EF"/>
<defs>
<linearGradient id="paint0_linear_160_10518" x1="-83.6454" y1="-64.2667" x2="65.4267" y2="65.2004" gradientUnits="userSpaceOnUse">
<stop offset="0.224072" stop-color="#FE5D26"/>
<stop offset="0.707836" stop-color="#FE5D26" stop-opacity="0"/>
</linearGradient>
</defs>
</svg>
