<svg width="66" height="66" viewBox="0 0 66 66" fill="none" xmlns="http://www.w3.org/2000/svg">
<rect x="1.02713" y="0.46683" width="64.3636" height="64.3636" rx="8.50784" fill="url(#paint0_linear_160_10532)" fill-opacity="0.2"/>
<rect x="1.02713" y="0.46683" width="64.3636" height="64.3636" rx="8.50784" stroke="#262626" stroke-width="0.739812"/>
<g clip-path="url(#clip0_160_10532)">
<g clip-path="url(#clip1_160_10532)">
<path d="M21.9972 45.7878C23.9293 47.7322 26.4312 47.7571 28.3385 45.8497C29.8619 44.3264 31.3358 40.8833 32.4628 39.1617L35.46 42.1713C36.3765 43.1002 37.4912 43.1002 38.3582 42.2085L39.4233 41.1434C40.3274 40.2269 40.3151 39.1865 39.3862 38.2576L29.5399 28.3989C28.5986 27.47 27.5458 27.4576 26.6417 28.3618L25.5766 29.4269C24.6848 30.3187 24.6848 31.3961 25.6137 32.325L28.611 35.3223C26.9018 36.4494 23.4711 37.9232 21.9353 39.4466C20.0404 41.3539 20.0528 43.8681 21.9972 45.7878ZM25.3041 44.1778C24.4495 44.1778 23.7683 43.4841 23.7683 42.6419C23.7683 41.7998 24.4495 41.1185 25.3041 41.1185C26.1463 41.1185 26.8275 41.7998 26.8275 42.6419C26.8275 43.4841 26.1463 44.1778 25.3041 44.1778ZM40.86 37.6878L45.6655 32.8824C47.0402 31.5076 47.0031 29.8728 45.6036 28.4484L44.9719 27.8044C43.6839 29.4764 40.0054 31.4333 39.2994 30.7273C39.188 30.6158 39.1755 30.393 39.3366 30.2195C40.8352 28.721 41.8136 27.2595 42.0366 24.8815L35.6705 18.5031C34.4939 17.3265 32.4504 17.7105 31.893 19.9398C31.1128 23.1104 30.4068 24.9558 29.6389 26.4792L40.86 37.6878Z" fill="#4280EF"/>
</g>
</g>
<defs>
<linearGradient id="paint0_linear_160_10532" x1="-83.3114" y1="-64.2667" x2="65.7607" y2="65.2004" gradientUnits="userSpaceOnUse">
<stop offset="0.224072" stop-color="#FE5D26"/>
<stop offset="0.707836" stop-color="#FE5D26" stop-opacity="0"/>
</linearGradient>
<clipPath id="clip0_160_10532">
<rect width="29.5925" height="29.5925" fill="white" transform="translate(18.4131 17.8523)"/>
</clipPath>
<clipPath id="clip1_160_10532">
<rect width="26.1489" height="29.6019" fill="white" transform="translate(20.5264 17.8523)"/>
</clipPath>
</defs>
</svg>
