<svg width="66" height="66" viewBox="0 0 66 66" fill="none" xmlns="http://www.w3.org/2000/svg">
<rect x="0.693148" y="1.11893" width="64.3636" height="64.3636" rx="8.50784" fill="url(#paint0_linear_160_10635)" fill-opacity="0.2"/>
<rect x="0.693148" y="1.11893" width="64.3636" height="64.3636" rx="8.50784" stroke="#262626" stroke-width="0.739812"/>
<path d="M19.1367 43.7456C19.1367 44.3401 19.533 44.7241 20.1275 44.7241H44.7618C45.3067 44.7241 45.765 44.2905 45.765 43.7332C45.765 43.1883 45.3067 42.7424 44.7618 42.7424H21.4775C21.2174 42.7424 21.1307 42.6558 21.1307 42.3957V22.8145C21.1307 22.282 20.6849 21.8237 20.1399 21.8237C19.5826 21.8237 19.1367 22.282 19.1367 22.8145V43.7456ZM20.4372 36.042L28.4009 31.4347L34.1352 36.3516L44.3283 30.2829L43.5481 29.0196L34.2344 34.5681L28.5247 29.676L20.4372 34.3452V36.042ZM28.2399 33.1067C29.4536 33.1067 30.4444 32.1159 30.4444 30.9021C30.4444 29.6884 29.4536 28.7099 28.2399 28.7099C27.0261 28.7099 26.0353 29.6884 26.0353 30.9021C26.0353 32.1159 27.0261 33.1067 28.2399 33.1067ZM34.0857 37.6521C35.2995 37.6521 36.2779 36.6613 36.2779 35.4474C36.2779 34.2337 35.2995 33.2553 34.0857 33.2553C32.872 33.2553 31.8811 34.2337 31.8811 35.4474C31.8811 36.6613 32.872 37.6521 34.0857 37.6521ZM43.4242 32.0168C44.6379 32.0168 45.6287 31.026 45.6287 29.8122C45.6287 28.5985 44.6379 27.6076 43.4242 27.6076C42.2104 27.6076 41.2196 28.5985 41.2196 29.8122C41.2196 31.026 42.2104 32.0168 43.4242 32.0168Z" fill="#4280EF"/>
<defs>
<linearGradient id="paint0_linear_160_10635" x1="-83.6454" y1="-63.6146" x2="65.4267" y2="65.8525" gradientUnits="userSpaceOnUse">
<stop offset="0.224072" stop-color="#FE5D26"/>
<stop offset="0.707836" stop-color="#FE5D26" stop-opacity="0"/>
</linearGradient>
</defs>
</svg>
