<svg width="66" height="66" viewBox="0 0 66 66" fill="none" xmlns="http://www.w3.org/2000/svg">
<rect x="0.36014" y="1.11917" width="64.3636" height="64.3636" rx="8.50784" fill="url(#paint0_linear_160_10621)" fill-opacity="0.2"/>
<rect x="0.36014" y="1.11917" width="64.3636" height="64.3636" rx="8.50784" stroke="#262626" stroke-width="0.739812"/>
<path d="M19.2694 46.5492C21.3129 48.5928 24.3473 48.6671 26.3537 46.2767C27.8276 44.5056 31.5555 38.4988 34.7509 35.3033C36.8812 33.1731 39.2344 34.3001 41.6 33.3341L39.4944 25.6552C39.2344 24.7016 39.6183 23.9089 40.7206 23.6117L45.3651 22.3732C45.2165 21.9397 44.8078 21.3452 44.3 20.825C41.439 17.8897 36.7078 17.8525 33.8839 20.5277C29.7597 24.4539 32.8931 28.6029 30.1807 31.3153C26.7624 34.7213 22.056 37.1983 19.5418 39.4524C17.1886 41.5455 17.201 44.4808 19.2694 46.5492ZM22.7744 44.5675C21.9322 44.5675 21.2386 43.8863 21.2386 43.0442C21.2386 42.2019 21.9322 41.5083 22.7744 41.5083C23.6166 41.5083 24.2978 42.2019 24.2978 43.0442C24.2978 43.8863 23.6166 44.5675 22.7744 44.5675ZM34.4165 28.0208C34.144 28.0951 33.9088 27.9589 33.822 27.6616C33.7477 27.4387 33.8963 27.1662 34.1564 27.0919L37.0546 26.3117C37.2899 26.2497 37.5624 26.3984 37.6243 26.6584C37.711 26.9433 37.55 27.191 37.2899 27.2653L34.4165 28.0208ZM34.7881 29.4946C34.5156 29.569 34.2803 29.4328 34.1812 29.1355C34.1069 28.9126 34.2679 28.6401 34.528 28.5782L37.4138 27.7855C37.649 27.736 37.9215 27.8722 37.9958 28.1323C38.0826 28.4172 37.9091 28.6649 37.649 28.7392L34.7881 29.4946ZM35.1472 30.9685C34.8871 31.0428 34.6147 30.9066 34.5652 30.6093C34.5033 30.3617 34.6395 30.1263 34.9119 30.052L37.7853 29.2841C38.0577 29.1974 38.3178 29.3584 38.3674 29.6061C38.4293 29.8538 38.2807 30.1263 38.0454 30.1882L35.1472 30.9685ZM42.9624 32.7396C43.4454 32.4547 43.9407 32.0832 44.4485 31.6001C46.0091 30.1882 46.8141 28.058 46.4921 26.547L42.7394 27.575C42.3183 27.6864 41.9591 27.7112 41.5752 27.6493L42.9624 32.7396Z" fill="#4280EF"/>
<defs>
<linearGradient id="paint0_linear_160_10621" x1="-83.9784" y1="-63.6144" x2="65.0937" y2="65.8527" gradientUnits="userSpaceOnUse">
<stop offset="0.224072" stop-color="#FE5D26"/>
<stop offset="0.707836" stop-color="#FE5D26" stop-opacity="0"/>
</linearGradient>
</defs>
</svg>
