<svg width="66" height="66" viewBox="0 0 66 66" fill="none" xmlns="http://www.w3.org/2000/svg">
<rect x="1.02713" y="1.2349" width="64.3636" height="64.3636" rx="8.50784" fill="url(#paint0_linear_160_10607)" fill-opacity="0.2"/>
<rect x="1.02713" y="1.2349" width="64.3636" height="64.3636" rx="8.50784" stroke="#262626" stroke-width="0.739812"/>
<path fill-rule="evenodd" clip-rule="evenodd" d="M28.5846 26.9432C28.5846 24.3895 30.6548 22.3193 33.2084 22.3193C35.7621 22.3193 37.8323 24.3895 37.8323 26.9432C37.8323 29.4968 35.7621 31.567 33.2084 31.567C30.6548 31.567 28.5846 29.4968 28.5846 26.9432Z" fill="#4280EF"/>
<path fill-rule="evenodd" clip-rule="evenodd" d="M37.8323 30.6422C37.8323 28.5993 39.4884 26.9432 41.5313 26.9432C43.5742 26.9432 45.2304 28.5993 45.2304 30.6422C45.2304 32.6852 43.5742 34.3413 41.5313 34.3413C39.4884 34.3413 37.8323 32.6852 37.8323 30.6422Z" fill="#4280EF"/>
<path fill-rule="evenodd" clip-rule="evenodd" d="M21.1865 30.6422C21.1865 28.5993 22.8426 26.9432 24.8855 26.9432C26.9285 26.9432 28.5846 28.5993 28.5846 30.6422C28.5846 32.6852 26.9285 34.3413 24.8855 34.3413C22.8426 34.3413 21.1865 32.6852 21.1865 30.6422Z" fill="#4280EF"/>
<path fill-rule="evenodd" clip-rule="evenodd" d="M26.1924 37.2605C27.6695 34.9509 30.2595 33.4165 33.2084 33.4165C36.1577 33.4165 38.748 34.9513 40.225 37.2613C41.2462 38.8584 41.6879 40.784 41.4807 42.6616C41.4483 42.955 41.2778 43.2153 41.0218 43.3623C38.7193 44.6834 36.0506 45.4385 33.2084 45.4385C30.3662 45.4385 27.6976 44.6834 25.3951 43.3623C25.139 43.2153 24.9685 42.955 24.9361 42.6616C24.7289 40.7837 25.1709 38.8577 26.1924 37.2605Z" fill="#4280EF"/>
<path d="M24.6787 36.1954C24.6639 36.2182 24.6491 36.241 24.6345 36.264C23.444 38.1253 22.8992 40.342 23.0665 42.5273C22.3168 42.4134 21.5893 42.2303 20.8911 41.9844L20.7493 41.9344C20.4908 41.8434 20.3101 41.6085 20.2883 41.3353L20.2764 41.1855C20.2667 41.063 20.2617 40.9393 20.2617 40.8146C20.2617 38.3303 22.221 36.3035 24.6787 36.1954Z" fill="#4280EF"/>
<path d="M43.3508 42.5272C43.518 40.3424 42.9735 38.1261 41.7835 36.265C41.7686 36.2417 41.7536 36.2185 41.7386 36.1954C44.1961 36.3038 46.1551 38.3304 46.1551 40.8146C46.1551 40.9393 46.1502 41.063 46.1404 41.1855L46.1285 41.3353C46.1068 41.6085 45.9261 41.8434 45.6675 41.9344L45.5258 41.9844C44.8277 42.2302 44.1004 42.4134 43.3508 42.5272Z" fill="#4280EF"/>
<defs>
<linearGradient id="paint0_linear_160_10607" x1="-83.3114" y1="-63.4986" x2="65.7607" y2="65.9684" gradientUnits="userSpaceOnUse">
<stop offset="0.224072" stop-color="#FE5D26"/>
<stop offset="0.707836" stop-color="#FE5D26" stop-opacity="0"/>
</linearGradient>
</defs>
</svg>
