<svg width="66" height="66" viewBox="0 0 66 66" fill="none" xmlns="http://www.w3.org/2000/svg">
<rect x="0.36014" y="0.46683" width="64.3636" height="64.3636" rx="8.50784" fill="url(#paint0_linear_160_10504)" fill-opacity="0.2"/>
<rect x="0.36014" y="0.46683" width="64.3636" height="64.3636" rx="8.50784" stroke="#262626" stroke-width="0.739812"/>
<path d="M33.8136 22.6744C34.3782 22.6744 34.8077 22.2448 34.8077 21.6803C34.8077 21.128 34.3782 20.6984 33.8136 20.6984H24.8298L26.7812 22.6744H33.8136ZM37.2623 26.1845C37.8145 26.1845 38.2564 25.7426 38.2564 25.1781C38.2564 24.6258 37.8145 24.2085 37.2623 24.2085H28.2539L30.2053 26.1845H37.2623ZM40.6373 29.6823C41.1897 29.6823 41.6193 29.2404 41.6193 28.6759C41.6193 28.1236 41.1897 27.7063 40.6373 27.7063H31.6781L33.6294 29.6823H40.6373ZM44.0493 31.2042H35.1023C35.8386 31.9528 36.17 32.4069 36.2191 33.1801H44.0493C44.6015 33.1801 45.0434 32.7505 45.0434 32.186C45.0434 31.6336 44.6015 31.2042 44.0493 31.2042ZM32.6967 43.3298L28.2908 33.0328L27.7017 34.0392L33.8136 34.3828C34.6359 34.4319 35.0286 33.5482 34.4395 32.9468L22.2893 20.5266C21.7493 19.9743 20.9147 20.2812 20.9147 21.0544L20.7061 38.3348C20.7061 39.1815 21.6511 39.5252 22.1911 38.8993L26.143 34.53L25.0016 34.2355L29.2603 44.7658C29.4321 45.183 29.8617 45.3794 30.2422 45.2076L32.3531 44.3362C32.7458 44.1889 32.8808 43.7348 32.6967 43.3298Z" fill="#4280EF"/>
<defs>
<linearGradient id="paint0_linear_160_10504" x1="-83.9784" y1="-64.2667" x2="65.0937" y2="65.2004" gradientUnits="userSpaceOnUse">
<stop offset="0.224072" stop-color="#FE5D26"/>
<stop offset="0.707836" stop-color="#FE5D26" stop-opacity="0"/>
</linearGradient>
</defs>
</svg>
