<svg width="66" height="66" viewBox="0 0 66 66" fill="none" xmlns="http://www.w3.org/2000/svg">
<rect x="0.693148" y="1.2349" width="64.3636" height="64.3636" rx="8.50784" fill="url(#paint0_linear_160_10596)" fill-opacity="0.2"/>
<rect x="0.693148" y="1.2349" width="64.3636" height="64.3636" rx="8.50784" stroke="#262626" stroke-width="0.739812"/>
<path d="M43.9737 26.4809C43.9737 29.8007 39.0053 32.4919 32.8765 32.4919C26.7477 32.4919 21.7793 29.8007 21.7793 26.4809C21.7793 23.1612 26.7477 20.47 32.8765 20.47C39.0053 20.47 43.9737 23.1612 43.9737 26.4809Z" fill="#4280EF"/>
<path d="M32.8765 34.3414C36.1874 34.3414 39.2765 33.6185 41.6043 32.3576C42.455 31.8968 43.2644 31.3259 43.9425 30.6507C43.9631 30.8006 43.9737 30.952 43.9737 31.1048C43.9737 34.4245 39.0053 37.1157 32.8765 37.1157C26.7477 37.1157 21.7793 34.4245 21.7793 31.1048C21.7793 30.952 21.7898 30.8006 21.8105 30.6507C22.4886 31.3259 23.2979 31.8968 24.1487 32.3576C26.4765 33.6185 29.5656 34.3414 32.8765 34.3414Z" fill="#4280EF"/>
<path d="M32.8765 38.9653C36.1874 38.9653 39.2765 38.2423 41.6043 36.9814C42.455 36.5206 43.2644 35.9497 43.9425 35.2745C43.9631 35.4244 43.9737 35.5758 43.9737 35.7286C43.9737 39.0484 39.0053 41.7396 32.8765 41.7396C26.7477 41.7396 21.7793 39.0484 21.7793 35.7286C21.7793 35.5758 21.7898 35.4244 21.8105 35.2745C22.4886 35.9497 23.2979 36.5206 24.1487 36.9814C26.4765 38.2423 29.5656 38.9653 32.8765 38.9653Z" fill="#4280EF"/>
<path d="M32.8765 43.5891C36.1874 43.5891 39.2765 42.8661 41.6043 41.6053C42.455 41.1444 43.2644 40.5735 43.9425 39.8983C43.9631 40.0482 43.9737 40.1996 43.9737 40.3524C43.9737 43.6722 39.0053 46.3634 32.8765 46.3634C26.7477 46.3634 21.7793 43.6722 21.7793 40.3524C21.7793 40.1997 21.7898 40.0482 21.8105 39.8983C22.4886 40.5735 23.2979 41.1444 24.1487 41.6053C26.4765 42.8661 29.5656 43.5891 32.8765 43.5891Z" fill="#4280EF"/>
<defs>
<linearGradient id="paint0_linear_160_10596" x1="-83.6454" y1="-63.4986" x2="65.4267" y2="65.9684" gradientUnits="userSpaceOnUse">
<stop offset="0.224072" stop-color="#FE5D26"/>
<stop offset="0.707836" stop-color="#FE5D26" stop-opacity="0"/>
</linearGradient>
</defs>
</svg>
