<svg width="66" height="67" viewBox="0 0 66 67" fill="none" xmlns="http://www.w3.org/2000/svg">
<rect x="0.693148" y="1.35086" width="64.3636" height="64.3636" rx="8.50784" fill="url(#paint0_linear_160_10560)" fill-opacity="0.2"/>
<rect x="0.693148" y="1.35086" width="64.3636" height="64.3636" rx="8.50784" stroke="#262626" stroke-width="0.739812"/>
<path fill-rule="evenodd" clip-rule="evenodd" d="M20.8545 26.1344C20.8545 24.0914 22.5106 22.4353 24.5536 22.4353H41.1993C43.2423 22.4353 44.8984 24.0914 44.8984 26.1344V40.9306C44.8984 42.9735 43.2423 44.6297 41.1993 44.6297H24.5536C22.5106 44.6297 20.8545 42.9735 20.8545 40.9306V26.1344ZM25.7492 27.33C26.1103 26.9688 26.6958 26.9688 27.057 27.33L29.8313 30.1043C30.1924 30.4654 30.1924 31.051 29.8313 31.4121L27.057 34.1864C26.6958 34.5475 26.1103 34.5475 25.7492 34.1864C25.388 33.8252 25.388 33.2397 25.7492 32.8786L27.8696 30.7582L25.7492 28.6378C25.388 28.2767 25.388 27.6911 25.7492 27.33ZM31.0269 32.6077C30.5162 32.6077 30.1021 33.0217 30.1021 33.5325C30.1021 34.0432 30.5162 34.4572 31.0269 34.4572H34.726C35.2367 34.4572 35.6507 34.0432 35.6507 33.5325C35.6507 33.0217 35.2367 32.6077 34.726 32.6077H31.0269Z" fill="#4280EF"/>
<defs>
<linearGradient id="paint0_linear_160_10560" x1="-83.6454" y1="-63.3827" x2="65.4267" y2="66.0844" gradientUnits="userSpaceOnUse">
<stop offset="0.224072" stop-color="#FE5D26"/>
<stop offset="0.707836" stop-color="#FE5D26" stop-opacity="0"/>
</linearGradient>
</defs>
</svg>
