<svg width="66" height="66" viewBox="0 0 66 66" fill="none" xmlns="http://www.w3.org/2000/svg">
<rect x="1.02713" y="1.11893" width="64.3636" height="64.3636" rx="8.50784" fill="url(#paint0_linear_160_10649)" fill-opacity="0.2"/>
<rect x="1.02713" y="1.11893" width="64.3636" height="64.3636" rx="8.50784" stroke="#262626" stroke-width="0.739812"/>
<path d="M43.2259 35.9016V26.4269C43.2259 25.1265 42.6685 24.7054 41.6158 24.2719C40.1543 23.6774 35.4356 21.8815 33.9741 21.4604C33.6396 21.3737 33.2805 21.2747 32.9337 21.2747C32.587 21.2747 32.2278 21.349 31.9058 21.4604C30.4319 21.9682 25.7131 23.665 24.2517 24.2719C23.2113 24.7178 22.6416 25.1265 22.6416 26.4269V35.9016C22.6416 40.4223 25.0567 42.0942 32.1039 46.0452C32.4259 46.2186 32.7356 46.2929 32.9337 46.2929C33.1319 46.2929 33.454 46.2186 33.7635 46.0452C40.7984 42.0819 43.2259 40.4223 43.2259 35.9016ZM32.6737 44.0016C32.525 43.9644 32.364 43.8777 32.1659 43.7539C26.4563 40.2737 24.6109 39.2704 24.6109 35.4433V26.8109C24.6109 26.3898 24.6852 26.2164 25.032 26.0925C26.9517 25.4361 30.5682 24.1233 32.4383 23.3801C32.5374 23.343 32.6117 23.3182 32.6737 23.3058V44.0016Z" fill="#4280EF"/>
<defs>
<linearGradient id="paint0_linear_160_10649" x1="-83.3114" y1="-63.6146" x2="65.7607" y2="65.8525" gradientUnits="userSpaceOnUse">
<stop offset="0.224072" stop-color="#FE5D26"/>
<stop offset="0.707836" stop-color="#FE5D26" stop-opacity="0"/>
</linearGradient>
</defs>
</svg>
