<svg width="16" height="16" viewBox="0 0 16 16" fill="none" xmlns="http://www.w3.org/2000/svg">
<g clip-path="url(#clip0_1038_475)">
<path d="M14.3896 0.520508H1.60742C0.995117 0.520508 0.5 1.00391 0.5 1.60156V14.4365C0.5 15.0342 0.995117 15.5205 1.60742 15.5205H14.3896C15.002 15.5205 15.5 15.0342 15.5 14.4395V1.60156C15.5 1.00391 15.002 0.520508 14.3896 0.520508ZM4.9502 13.3027H2.72363V6.14258H4.9502V13.3027ZM3.83691 5.16699C3.12207 5.16699 2.54492 4.58984 2.54492 3.87793C2.54492 3.16602 3.12207 2.58887 3.83691 2.58887C4.54883 2.58887 5.12598 3.16602 5.12598 3.87793C5.12598 4.58691 4.54883 5.16699 3.83691 5.16699ZM13.2822 13.3027H11.0586V9.82227C11.0586 8.99316 11.0439 7.92383 9.90137 7.92383C8.74414 7.92383 8.56836 8.8291 8.56836 9.76367V13.3027H6.34766V6.14258H8.48047V7.12109H8.50977C8.80566 6.55859 9.53223 5.96387 10.6133 5.96387C12.8662 5.96387 13.2822 7.44629 13.2822 9.37402V13.3027Z" fill="white"/>
</g>
<defs>
<clipPath id="clip0_1038_475">
<rect width="15" height="15" fill="white" transform="translate(0.5 0.520508)"/>
</clipPath>
</defs>
</svg>
