<svg width="16" height="16" viewBox="0 0 16 16" fill="none" xmlns="http://www.w3.org/2000/svg">
<path fill-rule="evenodd" clip-rule="evenodd" d="M7.58734 14.2399C7.60622 14.2509 7.62106 14.2593 7.63157 14.2652L7.64902 14.2749C7.78831 14.3514 7.9611 14.3508 8.10053 14.2752L8.11843 14.2652C8.12894 14.2593 8.14378 14.2509 8.16266 14.2399C8.20041 14.218 8.25436 14.1861 8.32219 14.1444C8.45779 14.0609 8.64922 13.9377 8.87788 13.7762C9.33443 13.4537 9.94359 12.9752 10.5541 12.3501C11.7692 11.106 13.0312 9.23686 13.0312 6.83301C13.0312 3.98529 10.7227 1.67676 7.875 1.67676C5.02728 1.67676 2.71875 3.98529 2.71875 6.83301C2.71875 9.23686 3.98083 11.106 5.19591 12.3501C5.80641 12.9752 6.41557 13.4537 6.87212 13.7762C7.10078 13.9377 7.29221 14.0609 7.42781 14.1444C7.49564 14.1861 7.54959 14.218 7.58734 14.2399ZM7.875 8.70801C8.91053 8.70801 9.75 7.86854 9.75 6.83301C9.75 5.79747 8.91053 4.95801 7.875 4.95801C6.83947 4.95801 6 5.79747 6 6.83301C6 7.86854 6.83947 8.70801 7.875 8.70801Z" fill="#FE5D26"/>
</svg>
