<svg width="61" height="60" viewBox="0 0 61 60" fill="none" xmlns="http://www.w3.org/2000/svg">
<rect x="1" y="0.5" width="59" height="59" rx="29.5" stroke="url(#paint0_linear_160_10782)"/>
<rect x="1" y="0.5" width="59" height="59" rx="29.5" stroke="url(#paint1_linear_160_10782)"/>
<rect x="9" y="8.5" width="43" height="43" rx="21.5" stroke="url(#paint2_linear_160_10782)"/>
<rect x="9" y="8.5" width="43" height="43" rx="21.5" stroke="url(#paint3_linear_160_10782)"/>
<path d="M20 26.6691V35.25C20 36.9069 21.3431 38.25 23 38.25H38C39.6569 38.25 41 36.9069 41 35.25V26.6691L32.0723 32.1631C31.1081 32.7564 29.8919 32.7564 28.9277 32.1631L20 26.6691Z" fill="#4280EF"/>
<path d="M41 24.9078V24.75C41 23.0931 39.6569 21.75 38 21.75H23C21.3431 21.75 20 23.0931 20 24.75V24.9078L29.7139 30.8856C30.196 31.1823 30.804 31.1823 31.2861 30.8856L41 24.9078Z" fill="#4280EF"/>
<defs>
<linearGradient id="paint0_linear_160_10782" x1="5.43903" y1="63.2927" x2="63.2439" y2="-4.02439" gradientUnits="userSpaceOnUse">
<stop stop-color="#4280EF"/>
<stop offset="0.323723" stop-color="#4280EF" stop-opacity="0"/>
</linearGradient>
<linearGradient id="paint1_linear_160_10782" x1="60.3171" y1="-7.68292" x2="5.43902" y2="60" gradientUnits="userSpaceOnUse">
<stop stop-color="#4280EF"/>
<stop offset="0.576615" stop-color="#4280EF" stop-opacity="0"/>
</linearGradient>
<linearGradient id="paint2_linear_160_10782" x1="3.70968" y1="10.4839" x2="52.3226" y2="52" gradientUnits="userSpaceOnUse">
<stop stop-color="#4280EF"/>
<stop offset="0.323723" stop-color="#4280EF" stop-opacity="0"/>
</linearGradient>
<linearGradient id="paint3_linear_160_10782" x1="61.1935" y1="61.9355" x2="10.0968" y2="25.7419" gradientUnits="userSpaceOnUse">
<stop stop-color="#4280EF"/>
<stop offset="0.576615" stop-color="#4280EF" stop-opacity="0"/>
</linearGradient>
</defs>
</svg>
