<svg width="61" height="60" viewBox="0 0 61 60" fill="none" xmlns="http://www.w3.org/2000/svg">
<rect x="1" y="0.5" width="59" height="59" rx="29.5" stroke="url(#paint0_linear_160_10790)"/>
<rect x="1" y="0.5" width="59" height="59" rx="29.5" stroke="url(#paint1_linear_160_10790)"/>
<rect x="9" y="8.5" width="43" height="43" rx="21.5" stroke="url(#paint2_linear_160_10790)"/>
<rect x="9" y="8.5" width="43" height="43" rx="21.5" stroke="url(#paint3_linear_160_10790)"/>
<path fill-rule="evenodd" clip-rule="evenodd" d="M20 22.5C20 20.8431 21.3431 19.5 23 19.5H24.3716C25.232 19.5 25.982 20.0856 26.1906 20.9202L27.2964 25.3434C27.4794 26.0753 27.2059 26.8455 26.6024 27.2982L25.3088 28.2684C25.1745 28.3691 25.1453 28.5167 25.183 28.6197C26.3185 31.7195 28.7805 34.1815 31.8803 35.317C31.9833 35.3547 32.1309 35.3255 32.2316 35.1912L33.2018 33.8976C33.6545 33.2941 34.4247 33.0206 35.1566 33.2036L39.5798 34.3094C40.4144 34.518 41 35.268 41 36.1284V37.5C41 39.1569 39.6569 40.5 38 40.5H35.75C27.0515 40.5 20 33.4485 20 24.75V22.5Z" fill="#4280EF"/>
<defs>
<linearGradient id="paint0_linear_160_10790" x1="5.43903" y1="63.2927" x2="63.2439" y2="-4.02439" gradientUnits="userSpaceOnUse">
<stop stop-color="#4280EF"/>
<stop offset="0.323723" stop-color="#4280EF" stop-opacity="0"/>
</linearGradient>
<linearGradient id="paint1_linear_160_10790" x1="60.3171" y1="-7.68292" x2="5.43902" y2="60" gradientUnits="userSpaceOnUse">
<stop stop-color="#4280EF"/>
<stop offset="0.576615" stop-color="#4280EF" stop-opacity="0"/>
</linearGradient>
<linearGradient id="paint2_linear_160_10790" x1="3.70968" y1="10.4839" x2="52.3226" y2="52" gradientUnits="userSpaceOnUse">
<stop stop-color="#4280EF"/>
<stop offset="0.323723" stop-color="#4280EF" stop-opacity="0"/>
</linearGradient>
<linearGradient id="paint3_linear_160_10790" x1="61.1935" y1="61.9355" x2="10.0968" y2="25.7419" gradientUnits="userSpaceOnUse">
<stop stop-color="#4280EF"/>
<stop offset="0.576615" stop-color="#4280EF" stop-opacity="0"/>
</linearGradient>
</defs>
</svg>
