<svg width="16" height="16" viewBox="0 0 16 16" fill="none" xmlns="http://www.w3.org/2000/svg">
<g clip-path="url(#clip0_1038_472)">
<path d="M4.96885 14.1142C10.6278 14.1142 13.7239 9.42467 13.7239 5.35914C13.7239 5.2273 13.721 5.09254 13.7151 4.9607C14.3174 4.52514 14.8372 3.98564 15.25 3.36754C14.6891 3.6171 14.0935 3.78009 13.4837 3.85094C14.1258 3.46604 14.6066 2.8614 14.8369 2.14908C14.2328 2.50708 13.5722 2.75961 12.8834 2.89586C12.4193 2.4027 11.8056 2.07618 11.1373 1.96676C10.469 1.85734 9.78324 1.97113 9.18609 2.29054C8.58893 2.60994 8.11363 3.11717 7.83365 3.7338C7.55368 4.35043 7.48464 5.04211 7.63721 5.70191C6.41406 5.64053 5.21746 5.32279 4.12499 4.76929C3.03252 4.21579 2.06856 3.43888 1.29561 2.48893C0.90275 3.16625 0.782535 3.96776 0.959394 4.73053C1.13625 5.49331 1.59691 6.16013 2.24775 6.59547C1.75914 6.57996 1.28123 6.4484 0.853516 6.21168V6.24977C0.853078 6.96057 1.09881 7.64959 1.54894 8.19971C1.99908 8.74982 2.62583 9.12708 3.32266 9.26734C2.87003 9.39118 2.39499 9.40923 1.93428 9.32008C2.13091 9.93137 2.51348 10.466 3.02861 10.8494C3.54373 11.2328 4.1657 11.4459 4.80771 11.4587C3.71777 12.3149 2.37136 12.7793 0.985352 12.7771C0.739554 12.7767 0.493999 12.7617 0.25 12.732C1.65804 13.6353 3.29596 14.1151 4.96885 14.1142Z" fill="white"/>
</g>
<defs>
<clipPath id="clip0_1038_472">
<rect width="15" height="15" fill="white" transform="translate(0.25 0.520508)"/>
</clipPath>
</defs>
</svg>
