<svg width="300" height="215" viewBox="0 0 300 215" fill="none" xmlns="http://www.w3.org/2000/svg">
<path d="M181.25 50.25C181.25 48.5924 180.592 47.0027 179.419 45.8306C178.247 44.6585 176.658 44 175 44H150C148.342 44 146.753 44.6585 145.581 45.8306C144.408 47.0027 143.75 48.5924 143.75 50.25V94H131.25V19C131.25 17.3424 130.592 15.7527 129.419 14.5806C128.247 13.4085 126.658 12.75 125 12.75H100C98.3424 12.75 96.7527 13.4085 95.5806 14.5806C94.4085 15.7527 93.75 17.3424 93.75 19V94H81.25V31.5C81.25 29.8424 80.5915 28.2527 79.4194 27.0806C78.2473 25.9085 76.6576 25.25 75 25.25H50C48.3424 25.25 46.7527 25.9085 45.5806 27.0806C44.4085 28.2527 43.75 29.8424 43.75 31.5V94H18.75V169C18.75 170.658 19.4085 172.247 20.5806 173.419C21.7527 174.592 23.3424 175.25 25 175.25H50C51.6576 175.25 53.2473 174.592 54.4194 173.419C55.5915 172.247 56.25 170.658 56.25 169V106.5H68.75V137.75C68.75 139.408 69.4085 140.997 70.5806 142.169C71.7527 143.342 73.3424 144 75 144H100C101.658 144 103.247 143.342 104.419 142.169C105.592 140.997 106.25 139.408 106.25 137.75V106.5H118.75V181.5C118.75 183.158 119.408 184.747 120.581 185.919C121.753 187.092 123.342 187.75 125 187.75H150C151.658 187.75 153.247 187.092 154.419 185.919C155.592 184.747 156.25 183.158 156.25 181.5V106.5H181.25V50.25ZM43.75 162.75H31.25V106.5H43.75V162.75ZM93.75 131.5H81.25V106.5H93.75V131.5ZM106.25 94V25.25H118.75V94H106.25ZM168.75 94H156.25V56.5H168.75V94Z" fill="#86868B"/>
<path d="M281.25 64.25C281.25 62.5924 280.592 61.0027 279.419 59.8306C278.247 58.6585 276.658 58 275 58H250C248.342 58 246.753 58.6585 245.581 59.8306C244.408 61.0027 243.75 62.5924 243.75 64.25V108H231.25V33C231.25 31.3424 230.592 29.7527 229.419 28.5806C228.247 27.4085 226.658 26.75 225 26.75H200C198.342 26.75 196.753 27.4085 195.581 28.5806C194.408 29.7527 193.75 31.3424 193.75 33V108H181.25V45.5C181.25 43.8424 180.592 42.2527 179.419 41.0806C178.247 39.9085 176.658 39.25 175 39.25H150C148.342 39.25 146.753 39.9085 145.581 41.0806C144.408 42.2527 143.75 43.8424 143.75 45.5V108H118.75V183C118.75 184.658 119.408 186.247 120.581 187.419C121.753 188.592 123.342 189.25 125 189.25H150C151.658 189.25 153.247 188.592 154.419 187.419C155.592 186.247 156.25 184.658 156.25 183V120.5H168.75V151.75C168.75 153.408 169.408 154.997 170.581 156.169C171.753 157.342 173.342 158 175 158H200C201.658 158 203.247 157.342 204.419 156.169C205.592 154.997 206.25 153.408 206.25 151.75V120.5H218.75V195.5C218.75 197.158 219.408 198.747 220.581 199.919C221.753 201.092 223.342 201.75 225 201.75H250C251.658 201.75 253.247 201.092 254.419 199.919C255.592 198.747 256.25 197.158 256.25 195.5V120.5H281.25V64.25ZM143.75 176.75H131.25V120.5H143.75V176.75ZM193.75 145.5H181.25V120.5H193.75V145.5ZM206.25 108V39.25H218.75V108H206.25ZM268.75 108H256.25V70.5H268.75V108Z" fill="#FE5D26"/>
</svg>
