<svg width="300" height="215" viewBox="0 0 300 215" fill="none" xmlns="http://www.w3.org/2000/svg">
<path d="M48.4375 18.8562C48.4107 17.682 48.0536 16.5392 47.4072 15.5586C46.7607 14.5781 45.851 13.7995 44.7825 13.3122C43.7139 12.8249 42.5296 12.6485 41.3654 12.8033C40.2012 12.9581 39.1041 13.4378 38.2 14.1874C27.4563 23.1062 20.9375 30.4812 17.15 37.3749C13.25 44.4812 12.5063 50.6499 12.5063 56.4999C12.5063 63.1303 15.1402 69.4892 19.8286 74.1776C24.517 78.866 30.8758 81.4999 37.5063 81.4999C44.1367 81.4999 50.4955 78.866 55.1839 74.1776C59.8723 69.4892 62.5063 63.1303 62.5063 56.4999C62.5063 48.4999 58.5938 42.5624 55.5313 37.9124L54.6313 36.5374C51.3813 31.4999 48.6125 26.5999 48.4375 18.8562ZM12.5125 106.544C12.5125 99.5687 13.0625 90.7437 16.1625 83.4437C22.2313 88.2643 29.7558 90.8841 37.5063 90.8749C45.5813 90.8749 53.0063 88.0874 58.8688 83.4312C61.9625 90.7437 62.5063 99.5687 62.5063 106.537C62.5063 118.062 60.7063 137.212 57.4125 153.556C55.7688 161.7 53.6938 169.494 51.125 175.394C49.8563 178.319 48.3125 181.137 46.375 183.325C44.475 185.475 41.5188 187.75 37.525 187.75C33.525 187.75 30.5688 185.475 28.6688 183.325C26.7375 181.137 25.1938 178.325 23.9188 175.394C21.35 169.5 19.2625 161.706 17.6188 153.556C14.3188 137.219 12.5063 118.062 12.5063 106.537M68.6625 41.9999C74.8538 39.0458 81.653 37.5889 88.5111 37.747C95.3692 37.9051 102.094 39.6737 108.143 42.91C114.191 46.1463 119.394 50.7595 123.331 56.3773C127.268 61.9951 129.829 68.46 130.806 75.2499H109.375C101.916 75.2499 94.7621 78.2131 89.4876 83.4875C84.2132 88.762 81.25 95.9157 81.25 103.375V124.812C77.7934 124.314 74.4089 123.403 71.1688 122.1C70.8235 126.386 70.3879 130.664 69.8625 134.931C73.5624 136.148 77.3787 136.978 81.25 137.406V153.375C81.25 160.834 84.2132 167.988 89.4876 173.262C94.7621 178.537 101.916 181.5 109.375 181.5H159.375C166.834 181.5 173.988 178.537 179.262 173.262C184.537 167.988 187.5 160.834 187.5 153.375V103.375C187.5 95.9157 184.537 88.762 179.262 83.4875C173.988 78.2131 166.834 75.2499 159.375 75.2499H143.406C142.401 66.2453 139.235 57.6168 134.179 50.0985C129.122 42.5801 122.324 36.3946 114.364 32.0681C106.403 27.7415 97.5147 25.4021 88.4554 25.2487C79.3961 25.0954 70.4339 27.1327 62.3312 31.1874L62.5 31.4499L63.35 32.7312C64.825 34.9374 66.9125 38.0749 68.6625 41.9999ZM159.375 87.7499C163.519 87.7499 167.493 89.3961 170.424 92.3264C173.354 95.2566 175 99.2309 175 103.375V153.375C175 157.519 173.354 161.493 170.424 164.423C167.493 167.354 163.519 169 159.375 169H109.375C105.231 169 101.257 167.354 98.3265 164.423C95.3962 161.493 93.75 157.519 93.75 153.375V137.406C106.43 135.985 118.251 130.296 127.274 121.274C136.296 112.251 141.985 100.43 143.406 87.7499H159.375ZM93.75 124.812V103.375C93.75 99.2309 95.3962 95.2566 98.3265 92.3264C101.257 89.3961 105.231 87.7499 109.375 87.7499H130.812C129.465 97.1012 125.126 105.765 118.446 112.446C111.765 119.126 103.101 123.465 93.75 124.812Z" fill="#86868B"/>
<path d="M148.438 32.8562C148.411 31.682 148.054 30.5392 147.407 29.5586C146.761 28.5781 145.851 27.7995 144.782 27.3122C143.714 26.8249 142.53 26.6485 141.365 26.8033C140.201 26.9581 139.104 27.4378 138.2 28.1874C127.456 37.1062 120.938 44.4812 117.15 51.3749C113.25 58.4812 112.506 64.6499 112.506 70.4999C112.506 77.1303 115.14 83.4892 119.829 88.1776C124.517 92.866 130.876 95.4999 137.506 95.4999C144.137 95.4999 150.496 92.866 155.184 88.1776C159.872 83.4892 162.506 77.1303 162.506 70.4999C162.506 62.4999 158.594 56.5624 155.531 51.9124L154.631 50.5374C151.381 45.4999 148.613 40.5999 148.438 32.8562ZM112.513 120.544C112.513 113.569 113.063 104.744 116.163 97.4437C122.231 102.264 129.756 104.884 137.506 104.875C145.581 104.875 153.006 102.087 158.869 97.4312C161.963 104.744 162.506 113.569 162.506 120.537C162.506 132.062 160.706 151.212 157.413 167.556C155.769 175.7 153.694 183.494 151.125 189.394C149.856 192.319 148.313 195.137 146.375 197.325C144.475 199.475 141.519 201.75 137.525 201.75C133.525 201.75 130.569 199.475 128.669 197.325C126.738 195.137 125.194 192.325 123.919 189.394C121.35 183.5 119.263 175.706 117.619 167.556C114.319 151.219 112.506 132.062 112.506 120.537M168.663 55.9999C174.854 53.0458 181.653 51.5889 188.511 51.747C195.369 51.9051 202.094 53.6737 208.143 56.91C214.191 60.1463 219.394 64.7595 223.331 70.3773C227.268 75.9951 229.829 82.46 230.806 89.2499H209.375C201.916 89.2499 194.762 92.2131 189.488 97.4875C184.213 102.762 181.25 109.916 181.25 117.375V138.812C177.793 138.314 174.409 137.403 171.169 136.1C170.823 140.386 170.388 144.664 169.863 148.931C173.562 150.148 177.379 150.978 181.25 151.406V167.375C181.25 174.834 184.213 181.988 189.488 187.262C194.762 192.537 201.916 195.5 209.375 195.5H259.375C266.834 195.5 273.988 192.537 279.262 187.262C284.537 181.988 287.5 174.834 287.5 167.375V117.375C287.5 109.916 284.537 102.762 279.262 97.4875C273.988 92.2131 266.834 89.2499 259.375 89.2499H243.406C242.401 80.2453 239.235 71.6168 234.179 64.0985C229.122 56.5801 222.324 50.3946 214.364 46.0681C206.403 41.7415 197.515 39.4021 188.455 39.2487C179.396 39.0954 170.434 41.1327 162.331 45.1874L162.5 45.4499L163.35 46.7312C164.825 48.9374 166.913 52.0749 168.663 55.9999ZM259.375 101.75C263.519 101.75 267.493 103.396 270.424 106.326C273.354 109.257 275 113.231 275 117.375V167.375C275 171.519 273.354 175.493 270.424 178.423C267.493 181.354 263.519 183 259.375 183H209.375C205.231 183 201.257 181.354 198.326 178.423C195.396 175.493 193.75 171.519 193.75 167.375V151.406C206.43 149.985 218.251 144.296 227.274 135.274C236.296 126.251 241.985 114.43 243.406 101.75H259.375ZM193.75 138.812V117.375C193.75 113.231 195.396 109.257 198.326 106.326C201.257 103.396 205.231 101.75 209.375 101.75H230.812C229.465 111.101 225.126 119.765 218.446 126.446C211.765 133.126 203.101 137.465 193.75 138.812Z" fill="#FE5D26"/>
</svg>
