<svg width="300" height="215" viewBox="0 0 300 215" fill="none" xmlns="http://www.w3.org/2000/svg">
<path d="M183.333 11.3613H122.778C121.304 11.3613 119.891 11.9466 118.849 12.9885C117.808 14.0304 117.222 15.4435 117.222 16.9169C117.222 18.3903 117.808 19.8034 118.849 20.8453C119.891 21.8871 121.304 22.4724 122.778 22.4724H170.167L121.167 72.4724C120.656 72.9941 120.253 73.6112 119.981 74.2886C119.709 74.9659 119.573 75.6903 119.58 76.4203C119.588 77.1502 119.739 77.8715 120.026 78.543C120.312 79.2144 120.728 79.8229 121.25 80.3336C121.772 80.8443 122.389 81.2472 123.066 81.5194C123.743 81.7916 124.468 81.9277 125.198 81.92C125.928 81.9122 126.649 81.7608 127.321 81.4743C127.992 81.1878 128.6 80.7719 129.111 80.2502L177.778 30.5836V77.4724C177.778 78.9459 178.363 80.359 179.405 81.4008C180.447 82.4427 181.86 83.028 183.333 83.028C184.807 83.028 186.22 82.4427 187.262 81.4008C188.304 80.359 188.889 78.9459 188.889 77.4724V16.9169C188.889 15.4435 188.304 14.0304 187.262 12.9885C186.22 11.9466 184.807 11.3613 183.333 11.3613Z" fill="#86868B"/>
<path d="M69.2222 59.861C68.3777 59.3734 67.4197 59.1167 66.4444 59.1167C65.4692 59.1167 64.5112 59.3734 63.6667 59.861L15.4444 87.6388L66.6667 116.917L117.722 87.6943L69.2222 59.861Z" fill="#86868B"/>
<path d="M11.1111 154.306C11.1072 155.284 11.3621 156.247 11.8499 157.096C12.3377 157.945 13.0411 158.649 13.8889 159.139L61.1111 186.139V125.028L11.1111 96.25V154.306Z" fill="#86868B"/>
<path d="M72.2222 186.139L119.444 159.139C120.292 158.65 120.996 157.945 121.483 157.096C121.971 156.247 122.226 155.285 122.222 154.306V96.3057L72.2222 124.917V186.139Z" fill="#86868B"/>
<path d="M283.333 25.3613H222.778C221.304 25.3613 219.891 25.9466 218.849 26.9885C217.808 28.0304 217.222 29.4435 217.222 30.9169C217.222 32.3903 217.808 33.8034 218.849 34.8453C219.891 35.8871 221.304 36.4724 222.778 36.4724H270.167L221.167 86.4724C220.656 86.9941 220.253 87.6112 219.981 88.2886C219.709 88.9659 219.573 89.6903 219.58 90.4203C219.588 91.1502 219.739 91.8715 220.026 92.543C220.312 93.2144 220.728 93.8229 221.25 94.3336C221.772 94.8443 222.389 95.2472 223.066 95.5194C223.744 95.7916 224.468 95.9277 225.198 95.92C225.928 95.9122 226.649 95.7608 227.321 95.4743C227.992 95.1878 228.6 94.7719 229.111 94.2502L277.778 44.5836V91.4724C277.778 92.9459 278.363 94.359 279.405 95.4008C280.447 96.4427 281.86 97.028 283.333 97.028C284.807 97.028 286.22 96.4427 287.262 95.4008C288.304 94.359 288.889 92.9459 288.889 91.4724V30.9169C288.889 29.4435 288.304 28.0304 287.262 26.9885C286.22 25.9466 284.807 25.3613 283.333 25.3613Z" fill="#FE5D26"/>
<path d="M169.222 73.861C168.378 73.3734 167.42 73.1167 166.444 73.1167C165.469 73.1167 164.511 73.3734 163.667 73.861L115.444 101.639L166.667 130.917L217.722 101.694L169.222 73.861Z" fill="#FE5D26"/>
<path d="M111.111 168.306C111.107 169.284 111.362 170.247 111.85 171.096C112.338 171.945 113.041 172.649 113.889 173.139L161.111 200.139V139.028L111.111 110.25V168.306Z" fill="#FE5D26"/>
<path d="M172.222 200.139L219.444 173.139C220.292 172.65 220.996 171.945 221.483 171.096C221.971 170.247 222.226 169.285 222.222 168.306V110.306L172.222 138.917V200.139Z" fill="#FE5D26"/>
</svg>
