<svg width="200" height="162" viewBox="0 0 200 162" fill="none" xmlns="http://www.w3.org/2000/svg">
<g clip-path="url(#clip0_594_919)">
<path d="M113.792 91.3321C114.157 91.2918 114.508 91.172 114.822 90.9813C115.135 90.7905 115.403 90.5334 115.606 90.228C115.809 89.9226 115.943 89.5764 115.999 89.2136C116.054 88.8509 116.029 88.4805 115.925 88.1284L123.183 82.944L118.858 81.2783L112.629 86.4569C112.049 86.6701 111.567 87.0886 111.275 87.6332C110.983 88.1778 110.901 88.8105 111.044 89.4115C111.188 90.0125 111.547 90.54 112.053 90.894C112.56 91.248 113.178 91.4039 113.792 91.3321Z" fill="#FFB7B7"/>
<path d="M117.823 87.9175L115.415 83.8041L115.466 83.7459L125.181 72.6857L132.724 59.8223L139.274 60.657L139.371 62.6367L139.351 62.6664L128.945 78.3098L128.934 78.3191L117.823 87.9175Z" fill="#FE5D26"/>
<path d="M149.92 157.507H146.216L144.453 143.219H149.92L149.92 157.507Z" fill="#FFB7B7"/>
<path d="M150.864 161.098H138.921V160.947C138.921 159.714 139.411 158.532 140.282 157.661C141.154 156.789 142.336 156.299 143.568 156.299H150.864L150.864 161.098Z" fill="#2F2E41"/>
<path d="M118.04 157.386L114.437 156.526L116.041 142.219L121.359 143.489L118.04 157.386Z" fill="#FFB7B7"/>
<path d="M118.125 161.098L106.508 158.324L106.543 158.177C106.829 156.977 107.58 155.941 108.63 155.296C109.681 154.65 110.945 154.448 112.144 154.734L119.239 156.429L118.125 161.098Z" fill="#2F2E41"/>
<path d="M132.436 53.2911V47.0558C132.436 44.8399 133.316 42.7147 134.883 41.1478C136.45 39.581 138.575 38.7007 140.791 38.7007C143.007 38.7007 145.132 39.581 146.699 41.1478C148.266 42.7147 149.146 44.8399 149.146 47.0558V53.2911C149.146 53.5884 149.027 53.8735 148.817 54.0838C148.607 54.294 148.322 54.4124 148.024 54.4129H133.558C133.261 54.4125 132.976 54.2942 132.765 54.0839C132.555 53.8737 132.437 53.5885 132.436 53.2911Z" fill="#2F2E41"/>
<path d="M138.729 54.3189C142.112 54.3189 144.855 51.5763 144.855 48.1931C144.855 44.81 142.112 42.0674 138.729 42.0674C135.346 42.0674 132.604 44.81 132.604 48.1931C132.604 51.5763 135.346 54.3189 138.729 54.3189Z" fill="#FFB7B7"/>
<path d="M130.459 47.5545C130.461 45.8023 131.158 44.1223 132.397 42.8833C133.636 41.6443 135.316 40.9473 137.069 40.9453H138.316C140.068 40.9473 141.748 41.6443 142.987 42.8833C144.226 44.1223 144.923 45.8023 144.925 47.5545V47.6792H142.289L141.391 45.1623L141.211 47.6792H139.849L139.395 46.4094L139.304 47.6792H130.459V47.5545Z" fill="#2F2E41"/>
<path d="M142.301 80.5236L126.705 79.9301L125.833 69.7267C125.16 67.8592 125.15 66.2544 125.8 64.9605C126.36 63.897 127.301 63.084 128.434 62.684L131.847 58.5621C132.286 58.0323 132.837 57.6067 133.461 57.3159C134.085 57.0252 134.765 56.8766 135.453 56.881L144.321 56.9416C144.534 56.8131 145.831 56.1542 148.388 57.2621C151.161 58.4641 150.517 62.64 150.51 62.6819L150.504 62.7212L150.474 62.7479L144.575 67.716L142.301 80.5236Z" fill="#FE5D26"/>
<path d="M126.83 78.8336L119.452 92.2844L113.859 153.478L120.179 155.408L131.365 107.538L144.346 154.05L151.923 154.238L146.765 100.564L142.257 79.7834L126.83 78.8336Z" fill="#2F2E41"/>
<path d="M129.009 82.8711C128.853 82.7418 128.685 82.9609 128.635 83.3607L127.101 95.4872C127.05 95.8878 127.136 96.3152 127.292 96.4464L146.376 112.294C146.532 112.423 146.699 112.204 146.75 111.805L148.284 99.678C148.335 99.2774 148.249 98.85 148.093 98.7191L129.009 82.8711Z" fill="#86868B"/>
<path d="M146.54 100.609C146.813 100.364 147.029 100.062 147.172 99.7243C147.316 99.3867 147.384 99.0218 147.371 98.6551C147.359 98.2885 147.266 97.929 147.099 97.6021C146.933 97.2752 146.697 96.9887 146.408 96.7628L149.288 88.321L144.801 89.4867L142.756 97.324C142.408 97.8351 142.26 98.4558 142.34 99.0687C142.42 99.6815 142.722 100.244 143.188 100.649C143.655 101.054 144.254 101.274 144.872 101.266C145.49 101.259 146.084 101.025 146.541 100.609L146.54 100.609Z" fill="#FFB7B7"/>
<path d="M147.827 95.4861L143.473 93.5459L144.935 78.8197L143.573 63.9704L149.386 60.8333L150.618 62.3862V62.4214L151.27 81.1988L151.267 81.2129L147.827 95.4861Z" fill="#FE5D26"/>
<path d="M45.399 57.3545C51.0449 57.3545 55.6218 52.7776 55.6218 47.1316C55.6218 41.4857 51.0449 36.9088 45.399 36.9088C39.7531 36.9088 35.1761 41.4857 35.1761 47.1316C35.1761 52.7776 39.7531 57.3545 45.399 57.3545Z" fill="#FE5D26"/>
<path d="M47.5139 54.5668C45.4392 54.5668 43.4111 53.9516 41.686 52.7989C39.9609 51.6463 38.6164 50.008 37.8224 48.0912C37.0284 46.1744 36.8207 44.0652 37.2254 42.0304C37.6302 39.9955 38.6292 38.1263 40.0963 36.6593C41.5633 35.1922 43.4324 34.1931 45.4673 33.7884C47.5022 33.3836 49.6113 33.5913 51.5281 34.3853C53.4449 35.1792 55.0833 36.5237 56.2359 38.2488C57.3886 39.9739 58.0038 42.002 58.0038 44.0767C58.0007 46.8579 56.8945 49.5242 54.928 51.4908C52.9614 53.4574 50.2951 54.5636 47.5139 54.5668ZM47.5139 34.121C45.5448 34.121 43.62 34.7049 41.9828 35.7988C40.3455 36.8928 39.0695 38.4477 38.3159 40.2668C37.5624 42.086 37.3652 44.0878 37.7494 46.019C38.1335 47.9503 39.0817 49.7242 40.4741 51.1166C41.8664 52.5089 43.6404 53.4571 45.5716 53.8413C47.5028 54.2254 49.5046 54.0283 51.3238 53.2747C53.143 52.5212 54.6979 51.2451 55.7918 49.6079C56.8858 47.9706 57.4696 46.0458 57.4696 44.0767C57.4666 41.4372 56.4168 38.9067 54.5504 37.0403C52.684 35.1739 50.1534 34.124 47.5139 34.121Z" fill="#3F3D56"/>
<path d="M41.5903 42.1828C41.4834 42.2513 41.3633 42.2964 41.2377 42.3152C41.1122 42.3339 40.9841 42.3259 40.8618 42.2917L32.7214 40.2545C32.0388 41.1993 31.1222 41.9504 30.0617 42.434C29.0012 42.9177 27.8332 43.1172 26.6722 43.0132C25.5826 42.9141 24.5337 42.5499 23.6171 41.9525C22.7005 41.355 21.944 40.5423 21.4136 39.5854C20.8832 38.6284 20.5949 37.5562 20.5739 36.4623C20.553 35.3684 20.8 34.2859 21.2934 33.3094C21.7868 32.3328 22.5116 31.4918 23.4046 30.8596C24.2977 30.2275 25.3318 29.8234 26.4168 29.6827C27.5019 29.5419 28.6049 29.6688 29.6297 30.0522C30.6544 30.4355 31.5698 31.0638 32.2961 31.8822C32.8924 32.5565 33.3475 33.3436 33.6345 34.1968C33.9215 35.0501 34.0345 35.9522 33.9668 36.8498L41.5005 40.5455C41.7114 40.6432 41.877 40.8177 41.9637 41.0333C42.0503 41.2489 42.0514 41.4895 41.9668 41.7059C41.8954 41.901 41.7635 42.0681 41.5903 42.1828Z" fill="#3F3D56"/>
<path d="M27.2749 39.3838C28.9621 39.3838 30.33 38.016 30.33 36.3287C30.33 34.6414 28.9621 33.2736 27.2749 33.2736C25.5876 33.2736 24.2197 34.6414 24.2197 36.3287C24.2197 38.016 25.5876 39.3838 27.2749 39.3838Z" fill="#FE5D26"/>
<path d="M52.0692 22.5147C51.884 22.6326 51.6641 22.684 51.4458 22.6605C51.2142 22.641 50.9988 22.5338 50.8435 22.361C50.6882 22.1881 50.6047 21.9625 50.61 21.7301L50.6174 13.3384C49.651 12.9524 48.7876 12.3468 48.0956 11.5695C47.4036 10.7922 46.902 9.86449 46.6305 8.85983C46.359 7.85518 46.325 6.80112 46.5312 5.78105C46.7374 4.76099 47.1782 3.80291 47.8186 2.98262C48.891 1.60903 50.4558 0.706739 52.1819 0.466837C53.9079 0.226935 55.6595 0.66826 57.0658 1.69735C58.4721 2.72643 59.4226 4.26247 59.7161 5.98018C60.0095 7.6979 59.6229 9.4624 58.6381 10.9C58.1281 11.6419 57.4746 12.2739 56.7162 12.7588C55.9577 13.2437 55.1097 13.5715 54.2223 13.723L52.4588 21.9273C52.4365 22.0463 52.3906 22.1597 52.3237 22.2605C52.2567 22.3614 52.1702 22.4479 52.0692 22.5147Z" fill="#E6E6E6"/>
<path d="M53.1086 10.1593C54.7959 10.1593 56.1638 8.79149 56.1638 7.1042C56.1638 5.4169 54.7959 4.04907 53.1086 4.04907C51.4214 4.04907 50.0535 5.4169 50.0535 7.1042C50.0535 8.79149 51.4214 10.1593 53.1086 10.1593Z" fill="#CCCCCC"/>
<path d="M85.3024 42.4663C84.4226 43.038 83.4214 43.3961 82.3787 43.5121C81.336 43.628 80.2806 43.4987 79.2967 43.1343C78.4536 42.819 77.6823 42.3377 77.0283 41.7191C76.3744 41.1005 75.8511 40.357 75.4894 39.5327L67.1025 39.8066C66.8718 39.8141 66.6464 39.736 66.4698 39.5872C66.2932 39.4384 66.1779 39.2296 66.1461 39.0009C66.1143 38.7721 66.1683 38.5398 66.2977 38.3485C66.427 38.1572 66.6226 38.0206 66.8467 37.9649L74.9904 35.9422C75.1311 34.911 75.5098 33.9266 76.0966 33.0671C76.6834 32.2076 77.4622 31.4964 78.3714 30.9899C79.2806 30.4833 80.2952 30.1954 81.3349 30.1487C82.3746 30.1021 83.4109 30.298 84.3617 30.7211C85.4636 31.2113 86.413 31.9895 87.1099 32.9738C87.8067 33.9581 88.2253 35.1121 88.3216 36.3142C88.4179 37.5164 88.1883 38.7223 87.6569 39.805C87.1256 40.8876 86.3122 41.807 85.3024 42.4663Z" fill="#E6E6E6"/>
<path d="M81.6424 39.9065C83.3297 39.9065 84.6975 38.5387 84.6975 36.8514C84.6975 35.1641 83.3297 33.7963 81.6424 33.7963C79.9551 33.7963 78.5873 35.1641 78.5873 36.8514C78.5873 38.5387 79.9551 39.9065 81.6424 39.9065Z" fill="#CCCCCC"/>
<path d="M61.6355 69.3109C60.1821 70.2521 58.421 70.5948 56.7207 70.2671C55.0205 69.9395 53.5128 68.967 52.5133 67.5531C51.5137 66.1392 51.0997 64.3935 51.3579 62.6813C51.6161 60.9691 52.5265 59.4232 53.8986 58.3669L51.604 50.2953C51.5408 50.0732 51.5621 49.8356 51.6637 49.6282C51.7653 49.4208 51.94 49.2584 52.1543 49.1723C52.3685 49.0861 52.6071 49.0823 52.824 49.1615C53.0409 49.2408 53.2207 49.3975 53.3289 49.6015L57.2618 57.014C58.4207 56.8891 59.5921 57.0676 60.6612 57.532C61.7302 57.9965 62.6601 58.7309 63.3597 59.6632C63.9088 60.3973 64.3017 61.2361 64.514 62.128C64.7263 63.0199 64.7535 63.9458 64.5939 64.8486C64.4344 65.7513 64.0915 66.6118 63.5863 67.3769C63.0812 68.142 62.4246 68.7954 61.6571 69.2968L61.6355 69.3109Z" fill="#3F3D56"/>
<path d="M57.989 66.7422C59.6763 66.7422 61.0441 65.3744 61.0441 63.6871C61.0441 61.9998 59.6763 60.632 57.989 60.632C56.3017 60.632 54.9338 61.9998 54.9338 63.6871C54.9338 65.3744 56.3017 66.7422 57.989 66.7422Z" fill="#FE5D26"/>
<path d="M23.0728 74.4024C22.0372 75.0736 20.8364 75.4461 19.6027 75.479C18.369 75.5119 17.1501 75.2038 16.0802 74.5888C15.0102 73.9738 14.1306 73.0755 13.5381 71.9929C12.9456 70.9103 12.6632 69.6852 12.7219 68.4525C12.7806 67.2197 13.1782 66.0271 13.8709 65.0057C14.5636 63.9843 15.5246 63.1737 16.6482 62.6632C17.7718 62.1526 19.0144 61.9618 20.2394 62.1118C21.4644 62.2618 22.6243 62.7468 23.5915 63.5134L30.8682 59.3343C31.0684 59.2193 31.3041 59.1824 31.5299 59.2309C31.7556 59.2793 31.9555 59.4096 32.0909 59.5966C32.2264 59.7836 32.2878 60.0141 32.2634 60.2437C32.239 60.4733 32.1305 60.6858 31.9588 60.8401L25.7177 66.4496C26.2412 67.8789 26.2647 69.4436 25.7844 70.888C25.304 72.3324 24.3481 73.5713 23.0728 74.4024Z" fill="#E6E6E6"/>
<path d="M19.2197 71.9575C20.907 71.9575 22.2749 70.5897 22.2749 68.9024C22.2749 67.2151 20.907 65.8473 19.2197 65.8473C17.5324 65.8473 16.1646 67.2151 16.1646 68.9024C16.1646 70.5897 17.5324 71.9575 19.2197 71.9575Z" fill="#CCCCCC"/>
<path d="M0.33308 161.098H199.667C199.755 161.098 199.84 161.063 199.902 161C199.965 160.938 200 160.853 200 160.765C200 160.677 199.965 160.592 199.902 160.529C199.84 160.467 199.755 160.432 199.667 160.432H0.33308C0.244742 160.432 0.160023 160.467 0.0975593 160.529C0.0350951 160.592 0 160.677 0 160.765C0 160.853 0.0350951 160.938 0.0975593 161C0.160023 161.063 0.244742 161.098 0.33308 161.098Z" fill="#CCCCCC"/>
<path d="M14.0314 151.484C14.7615 151.741 15.5453 151.805 16.3074 151.671C17.0695 151.536 17.7842 151.208 18.3826 150.717C19.9066 149.438 20.3842 147.331 20.7731 145.38L21.923 139.608L19.5156 141.266C17.7842 142.458 16.0139 143.688 14.8146 145.415C13.6153 147.142 13.0926 149.499 14.0558 151.367" fill="#E6E6E6"/>
<path d="M14.403 158.873C14.0998 156.666 13.7886 154.43 14.001 152.198C14.1898 150.217 14.7943 148.281 16.0251 146.694C16.6784 145.853 17.4734 145.133 18.3743 144.565C18.6091 144.417 18.8254 144.789 18.5914 144.937C17.0327 145.922 15.8271 147.377 15.1485 149.092C14.399 150.998 14.2785 153.076 14.4078 155.101C14.4858 156.326 14.6514 157.543 14.8183 158.758C14.8315 158.813 14.8232 158.871 14.7953 158.92C14.7674 158.969 14.7219 159.006 14.668 159.023C14.6129 159.038 14.5543 159.03 14.5047 159.002C14.4552 158.974 14.4187 158.927 14.4033 158.873L14.403 158.873Z" fill="#F2F2F2"/>
<path d="M16.5842 155.331C16.8973 155.806 17.3276 156.194 17.8338 156.455C18.34 156.716 18.905 156.843 19.4742 156.822C20.9371 156.753 22.1567 155.731 23.2548 154.762L26.5022 151.895L24.3531 151.792C22.8077 151.718 21.2221 151.649 19.7499 152.126C18.2776 152.602 16.9202 153.75 16.6515 155.273" fill="#E6E6E6"/>
<path d="M13.5467 160.142C15.0053 157.561 16.6985 154.693 19.7207 153.776C20.5615 153.522 21.443 153.431 22.3178 153.508C22.5934 153.532 22.5248 153.957 22.2494 153.933C20.7831 153.811 19.3196 154.198 18.105 155.029C16.9635 155.857 15.9957 156.901 15.2567 158.102C14.785 158.821 14.3624 159.569 13.9398 160.317C13.8047 160.556 13.4102 160.384 13.5467 160.142Z" fill="#F2F2F2"/>
<path d="M179.018 151.877C178.261 152.193 177.436 152.308 176.621 152.213C175.807 152.117 175.031 151.813 174.368 151.33C172.678 150.07 172.045 147.87 171.514 145.829L169.947 139.793L172.595 141.401C174.499 142.556 176.447 143.751 177.82 145.505C179.193 147.259 179.89 149.72 178.984 151.755" fill="#FE5D26"/>
<path d="M178.77 160.063C179.107 155.809 179.397 151.023 176.527 147.496C175.728 146.516 174.749 145.697 173.643 145.085C173.295 144.892 173.035 145.454 173.383 145.648C175.231 146.683 176.666 148.323 177.446 150.292C178.201 152.182 178.396 154.234 178.371 156.253C178.355 157.49 178.257 158.724 178.16 159.957C178.128 160.35 178.739 160.461 178.77 160.063Z" fill="#F2F2F2"/>
</g>
<defs>
<clipPath id="clip0_594_919">
<rect width="200" height="160.696" fill="white" transform="translate(0 0.401855)"/>
</clipPath>
</defs>
</svg>
