<svg width="200" height="155" viewBox="0 0 200 155" fill="none" xmlns="http://www.w3.org/2000/svg">
<g clip-path="url(#clip0_601_958)">
<path d="M99.9152 76.8514C100.561 79.4403 99.6958 81.869 97.9846 82.2782C96.2735 82.6851 94.3626 80.9172 93.7166 78.3283C93.443 77.2977 93.4306 76.2153 93.6821 75.1772L91.0883 64.1732L96.4781 63.0735L98.463 74.0381C99.1755 74.8493 99.6736 75.8158 99.9152 76.8539V76.8514Z" fill="#EC9C9F"/>
<path d="M77.3128 139.774L77.6457 146.986L77.3128 148.981L78.4766 151.311L87.6241 152.307L88.1246 147.985L83.3018 145.489L83.1613 141.414L77.3128 139.774Z" fill="#EC9C9F"/>
<path d="M86.9608 150.645L86.4628 151.311L76.8838 148.549C76.8838 148.549 77.3153 152.808 77.3153 153.638C77.3153 154.469 93.115 154.469 95.4919 154.137C97.8688 153.804 97.1069 151.641 97.1069 151.641L87.2468 146.974L86.9608 150.643V150.645Z" fill="#2F2E43"/>
<path d="M53.4826 134.466L51.4879 141.404L50.5361 143.189L50.8936 145.766L59.2398 149.639L61.0964 145.702L57.324 141.796L59.691 135.662L53.4826 134.466Z" fill="#EC9C9F"/>
<path d="M59.1412 147.852L58.4557 148.323L50.2624 142.642C50.2624 142.642 49.3083 146.814 49.0444 147.6C48.7806 148.387 63.747 153.444 66.1066 153.89C68.4662 154.336 68.4341 152.043 68.4341 152.043L60.586 144.466L59.1412 147.852Z" fill="#2F2E43"/>
<path d="M77.9588 20.7018L78.3089 26.3727L67.7166 26.9102L70.9959 19.4369L77.9588 20.7018Z" fill="#EC9C9F"/>
<path d="M78.5777 25.5245C75.7398 26.7919 71.1981 26.4442 66.0523 25.5245L65.2485 61.1775C65.2485 61.1775 81.3466 64.4148 86.8819 58.4431L83.97 29.3142L78.5802 25.527V25.5245L78.5777 25.5245Z" fill="#1D1D1F"/>
<path d="M85.1338 59.3159L62.4057 61.5621L51.192 137.713H59.7847L74.4995 85.5329L75.6658 144.666H83.5311L90.2302 72.2777L85.1338 59.3159Z" fill="#FE5D26"/>
<path d="M69.2823 23.34L61.6463 27.8595C58.7541 29.5706 57.3906 33.0274 58.3349 36.2525L64.2352 56.4089C64.2352 56.4089 54.6266 72.9188 57.7481 74.3735C64.7653 77.6454 75.2368 76.849 75.2368 76.849L72.8969 37.3225L69.2823 23.34Z" fill="#FE5D26"/>
<path d="M78.2473 25.3742L86.8819 28.7274L88.921 53.6327L94.6314 73.698C84.9587 77.2287 85.8612 75.5842 85.8612 75.5842L84.2585 40.9618L78.2473 25.3742Z" fill="#FE5D26"/>
<path d="M90.859 73.2762L90.8294 73.1406L82.0049 32.3222C81.7583 31.1806 82.0739 30.039 82.8703 29.1859C83.6667 28.3328 84.7861 27.9408 85.94 28.1084C87.3652 28.3156 88.5043 29.3536 88.8445 30.7516L98.5394 70.5986L90.859 73.2787L90.859 73.2762Z" fill="#FE5D26"/>
<path d="M73.3629 22.2082C78.1085 22.2082 81.9556 18.3612 81.9556 13.6155C81.9556 8.86991 78.1085 5.02283 73.3629 5.02283C68.6173 5.02283 64.7702 8.86991 64.7702 13.6155C64.7702 18.3612 68.6173 22.2082 73.3629 22.2082Z" fill="#EC9C9F"/>
<path d="M198.408 118.029H79.6807C78.893 118.029 78.2522 117.388 78.2522 116.6V43.269C78.2522 42.4813 78.893 41.8405 79.6807 41.8405H198.408C199.196 41.8405 199.836 42.4812 199.836 43.269V116.6C199.836 117.388 199.196 118.029 198.408 118.029Z" fill="white"/>
<path d="M198.408 118.029H79.6807C78.893 118.029 78.2522 117.388 78.2522 116.6V43.269C78.2522 42.4813 78.893 41.8405 79.6807 41.8405H198.408C199.196 41.8405 199.836 42.4812 199.836 43.269V116.6C199.836 117.388 199.196 118.029 198.408 118.029Z" stroke="#2F2E43" stroke-width="0.327223" stroke-miterlimit="10"/>
<path d="M87.617 48.1896H82.2203C81.4326 48.1896 80.7918 47.5488 80.7918 46.7611V46.1262C80.7918 45.3384 81.4326 44.6976 82.2203 44.6976H87.617C88.4048 44.6976 89.0456 45.3384 89.0456 46.1262V46.7611C89.0456 47.5488 88.4048 48.1896 87.617 48.1896Z" fill="#FE5D26"/>
<path d="M183.17 48.1896H179.996C179.208 48.1896 178.567 47.5488 178.567 46.7611V46.1262C178.567 45.3384 179.208 44.6976 179.996 44.6976H183.17C183.958 44.6976 184.599 45.3384 184.599 46.1262V46.7611C184.599 47.5488 183.958 48.1896 183.17 48.1896Z" fill="#D7D7D7"/>
<path d="M161.901 67.2367C161.463 67.2367 161.107 67.5927 161.107 68.0303V68.6652C161.107 69.1028 161.463 69.4589 161.901 69.4589H180.313C180.751 69.4589 181.107 69.1028 181.107 68.6652V68.0303C181.107 67.5927 180.751 67.2367 180.313 67.2367H161.901Z" fill="#D7D7D7"/>
<path d="M155.869 99.6168H82.2203C81.4326 99.6168 80.7918 98.976 80.7918 98.1882V51.5228C80.7918 50.735 81.4326 50.0942 82.2203 50.0942H155.869C156.657 50.0942 157.298 50.735 157.298 51.5228V98.1883C157.298 98.976 156.657 99.6168 155.869 99.6168Z" fill="#D7D7D7"/>
<path d="M156.187 115.172H122.219C121.432 115.172 120.791 114.531 120.791 113.743V102.633C120.791 101.845 121.432 101.204 122.219 101.204H156.187C156.974 101.204 157.615 101.845 157.615 102.633V113.743C157.615 114.531 156.974 115.172 156.187 115.172Z" fill="#D7D7D7"/>
<path d="M116.051 115.094H82.0839C81.2962 115.094 80.6554 114.453 80.6554 113.666V102.555C80.6554 101.767 81.2962 101.126 82.0839 101.126H116.051C116.839 101.126 117.48 101.767 117.48 102.555V113.666C117.48 114.453 116.839 115.094 116.051 115.094Z" fill="#D7D7D7"/>
<path d="M195.868 101.204C196.656 101.204 197.297 101.845 197.297 102.633V113.743C197.297 114.531 196.656 115.172 195.868 115.172H161.901C161.113 115.172 160.472 114.531 160.472 113.743V102.633C160.472 101.845 161.113 101.204 161.901 101.204" fill="#D7D7D7"/>
<path d="M161.901 72.3159C161.463 72.3159 161.107 72.672 161.107 73.1095C161.107 73.5471 161.463 73.9032 161.901 73.9032H190.154C190.592 73.9032 190.948 73.5471 190.948 73.1095C190.948 72.672 190.592 72.3159 190.154 72.3159H161.901Z" fill="#D7D7D7"/>
<path d="M161.901 76.7603C161.463 76.7603 161.107 77.1163 161.107 77.5539C161.107 77.9915 161.463 78.3475 161.901 78.3475H190.154C190.592 78.3475 190.948 77.9915 190.948 77.5539C190.948 77.1163 190.592 76.7603 190.154 76.7603H161.901Z" fill="#D7D7D7"/>
<path d="M161.901 80.8871C161.463 80.8871 161.107 81.2431 161.107 81.6807C161.107 82.1183 161.463 82.4743 161.901 82.4743H180.313C180.751 82.4743 181.107 82.1183 181.107 81.6807C181.107 81.2431 180.751 80.8871 180.313 80.8871" fill="#D7D7D7"/>
<path d="M189.519 48.1896H186.345C185.557 48.1896 184.916 47.5488 184.916 46.7611V46.1262C184.916 45.3384 185.557 44.6976 186.345 44.6976H189.519C190.307 44.6976 190.948 45.3384 190.948 46.1262V46.7611C190.948 47.5488 190.307 48.1896 189.519 48.1896Z" fill="#D7D7D7"/>
<path d="M195.868 48.1896H192.694C191.906 48.1896 191.265 47.5488 191.265 46.7611V46.1262C191.265 45.3384 191.906 44.6976 192.694 44.6976H195.868C196.656 44.6976 197.297 45.3384 197.297 46.1262V46.7611C197.297 47.5488 196.656 48.1896 195.868 48.1896Z" fill="#D7D7D7"/>
<path d="M77.8676 52.2445C80.5206 51.9658 82.8062 53.1592 82.9714 54.9123C83.1367 56.6653 81.1198 58.3099 78.4643 58.5885C77.4041 58.7143 76.334 58.5762 75.3379 58.1842L64.0798 59.2197L63.742 53.7288L74.8768 53.2899C75.7792 52.6981 76.8049 52.3382 77.8676 52.242L77.8676 52.2445Z" fill="#EC9C9F"/>
<path d="M64.1513 28.1183C61.4268 27.7337 58.8699 29.5262 58.3029 32.2186C56.3279 41.6151 52.7799 61.6286 58.3497 61.9639C65.6332 62.4004 72.6232 60.6522 72.6232 60.6522L70.8751 50.6023L65.1943 50.0204L68.5352 34.3908C69.1689 31.4222 67.1545 28.5399 64.1489 28.1183L64.1513 28.1183Z" fill="#FE5D26"/>
<path d="M0 154.292H169.968" stroke="#090814" stroke-width="0.490834" stroke-miterlimit="10"/>
<path d="M77.4509 2.48076C79.3445 3.14648 80.4269 3.52619 81.4181 4.48285C83.0947 6.09784 83.3709 8.25526 83.6273 10.2598C83.8295 11.828 84.0884 13.8547 83.1687 16.1724C82.8556 16.9639 81.3343 20.4848 78.4248 20.931C77.8528 21.0173 76.5115 21.042 76.8986 20.756C80.4787 18.1128 82.0049 16.5176 81.8792 12.4468C81.8003 9.91709 77.9342 7.18518 75.6387 6.69452C74.6721 6.4874 73.3851 6.67726 72.4605 7.4342C70.5299 9.01714 70.6137 15.5683 68.5796 16.9367C67.7437 17.4989 68.301 13.5366 67.7117 14.1777C66.5479 15.445 67.295 17.3879 67.5046 18.1276C68.4958 21.6362 70.3647 21.9789 71.3337 24.9771C72.3791 28.212 71.0625 31.2571 70.7518 31.9795C70.2094 33.237 69.2774 35.3919 67.1495 36.4275C64.4472 37.7417 62.3169 36.0305 61.0619 37.4976C60.3592 38.3162 60.7389 39.1841 59.4716 41.7335C59.0573 42.5644 58.8502 42.9811 58.6678 42.9663C57.7999 42.8973 56.3969 35.9541 58.6678 29.4892C59.622 26.777 60.554 24.1191 63.0566 22.0406C64.3806 20.9409 65.4902 20.5464 65.8058 19.2618C66.257 17.4274 64.3831 16.6458 64.0083 13.7536C63.7519 11.7762 63.5719 8.94563 64.2697 7.13339C64.9305 5.41978 65.5025 3.93301 67.0016 2.58678C67.3616 2.26378 70.2661 0.0619778 73.3481 0.000335544C74.7658 -0.0292519 75.8088 1.90626 77.4534 2.48322H77.4509C77.4509 2.48322 77.4509 2.48076 77.4509 2.48076Z" fill="#2F2E43"/>
</g>
<defs>
<clipPath id="clip0_601_958">
<rect width="200" height="154.538" fill="white"/>
</clipPath>
</defs>
</svg>
