<svg width="197" height="164" viewBox="0 0 197 164" fill="none" xmlns="http://www.w3.org/2000/svg">
<g clip-path="url(#clip0_603_991)">
<path d="M129.362 0H72.2212C63.3341 0 56.1297 7.20438 56.1297 16.0914V146.663C56.1297 155.55 63.3341 162.755 72.2212 162.755H129.362C138.249 162.755 145.453 155.55 145.453 146.663V16.0914C145.453 7.20438 138.249 0 129.362 0Z" fill="#3F3D56"/>
<path d="M143.946 16.0925V146.663C143.942 150.53 142.404 154.237 139.669 156.971C136.935 159.706 133.228 161.244 129.361 161.248H72.2217C68.355 161.244 64.6478 159.706 61.9136 156.971C59.1794 154.237 57.6413 150.53 57.6368 146.663V16.0925C57.6413 12.2257 59.1794 8.51856 61.9136 5.78433C64.6478 3.0501 68.355 1.51204 72.2217 1.50757H79.6937V4.08863C79.6937 5.25712 80.1579 6.37773 80.9842 7.20398C81.8104 8.03023 82.9311 8.49444 84.0995 8.49451H117.483C118.652 8.49444 119.773 8.03023 120.599 7.20398C121.425 6.37773 121.889 5.25712 121.889 4.08863V1.50757H129.361C133.228 1.51205 136.935 3.0501 139.669 5.78433C142.404 8.51856 143.942 12.2257 143.946 16.0925Z" fill="white"/>
<path d="M55.7187 33.0168C55.4282 33.0164 55.1496 32.9009 54.9441 32.6954C54.7387 32.4899 54.6231 32.2114 54.6227 31.9208V29.7288C54.6227 29.4381 54.7382 29.1594 54.9437 28.9538C55.1493 28.7483 55.4281 28.6328 55.7187 28.6328C56.0094 28.6328 56.2882 28.7483 56.4937 28.9538C56.6993 29.1594 56.8147 29.4381 56.8147 29.7288V31.9208C56.8144 32.2114 56.6988 32.4899 56.4933 32.6954C56.2879 32.9009 56.0093 33.0164 55.7187 33.0168Z" fill="#3F3D56"/>
<path d="M55.7187 44.2565C55.4282 44.2561 55.1496 44.1405 54.9441 43.9351C54.7387 43.7296 54.6231 43.451 54.6227 43.1605V37.1266C54.6227 36.836 54.7382 36.5572 54.9437 36.3516C55.1493 36.1461 55.4281 36.0306 55.7187 36.0306C56.0094 36.0306 56.2882 36.1461 56.4937 36.3516C56.6993 36.5572 56.8147 36.836 56.8147 37.1266V43.1605C56.8144 43.451 56.6988 43.7296 56.4933 43.9351C56.2879 44.1405 56.0093 44.2561 55.7187 44.2565Z" fill="#3F3D56"/>
<path d="M55.7187 53.2926C55.4282 53.2923 55.1496 53.1767 54.9441 52.9712C54.7387 52.7657 54.6231 52.4872 54.6227 52.1966V46.1628C54.6227 45.8721 54.7382 45.5933 54.9437 45.3878C55.1493 45.1822 55.4281 45.0668 55.7187 45.0668C56.0094 45.0668 56.2882 45.1822 56.4937 45.3878C56.6993 45.5933 56.8147 45.8721 56.8147 46.1628V52.1966C56.8144 52.4872 56.6988 52.7657 56.4933 52.9712C56.2879 53.1767 56.0093 53.2923 55.7187 53.2926Z" fill="#3F3D56"/>
<path d="M145.59 48.3606C145.299 48.3603 145.021 48.2447 144.815 48.0392C144.61 47.8338 144.494 47.5552 144.494 47.2646V32.5418C144.494 32.2511 144.609 31.9723 144.815 31.7668C145.021 31.5613 145.299 31.4458 145.59 31.4458C145.881 31.4458 146.159 31.5613 146.365 31.7668C146.571 31.9723 146.686 32.2511 146.686 32.5418V47.2646C146.686 47.5552 146.57 47.8338 146.365 48.0392C146.159 48.2447 145.881 48.3603 145.59 48.3606Z" fill="#3F3D56"/>
<path d="M103.146 5.02673H94.6518C94.4701 5.02673 94.2959 4.95456 94.1674 4.8261C94.0389 4.69763 93.9668 4.5234 93.9668 4.34173C93.9668 4.16006 94.0389 3.98583 94.1674 3.85737C94.2959 3.72891 94.4701 3.65674 94.6518 3.65674H103.146C103.327 3.65674 103.502 3.72891 103.63 3.85737C103.759 3.98583 103.831 4.16006 103.831 4.34173C103.831 4.5234 103.759 4.69763 103.63 4.8261C103.502 4.95456 103.327 5.02673 103.146 5.02673Z" fill="white"/>
<path d="M107.53 4.88969C107.832 4.88969 108.078 4.64435 108.078 4.3417C108.078 4.03905 107.832 3.7937 107.53 3.7937C107.227 3.7937 106.982 4.03905 106.982 4.3417C106.982 4.64435 107.227 4.88969 107.53 4.88969Z" fill="white"/>
<path d="M173.373 155.909C173.573 155.917 173.77 155.862 173.938 155.754C174.106 155.645 174.237 155.487 174.313 155.302C174.388 155.116 174.405 154.912 174.36 154.717C174.316 154.522 174.212 154.345 174.064 154.21C174.039 154.113 174.02 154.042 173.995 153.945C174.181 153.457 174.51 153.036 174.937 152.735C175.365 152.435 175.873 152.269 176.395 152.259C176.918 152.25 177.431 152.396 177.87 152.68C178.309 152.964 178.653 153.372 178.858 153.853C180.041 156.55 181.565 159.34 180.849 162.331C185.67 151.857 183.873 138.902 176.517 130.054C174.496 128.966 172.849 127.014 172.403 124.734C173.401 125.062 174.633 124.241 173.875 123.2C173.547 122.803 173.216 122.409 172.888 122.012C176.628 117.952 181.191 124.233 177.083 129.704C178.46 131.397 179.656 133.229 180.652 135.17C180.407 133.101 180.656 131.003 181.38 129.049C182.114 127.227 183.51 125.685 184.736 124.105C186.228 122.179 189.343 123.031 189.569 125.455C188.181 125.926 188.019 127.94 189.615 128.2C189.241 132.717 186.332 136.892 182.291 138.909C183.83 143.102 184.458 147.575 184.133 152.03C184.8 146.821 190.372 145.505 194.256 143.401C194.503 143.239 194.791 143.153 195.086 143.152C195.382 143.152 195.67 143.237 195.918 143.398C196.165 143.559 196.36 143.788 196.48 144.058C196.599 144.328 196.637 144.627 196.589 144.918C196.053 145.143 195.54 145.42 195.058 145.745C194.832 145.9 194.66 146.121 194.564 146.378C194.469 146.634 194.456 146.914 194.526 147.179C194.596 147.444 194.746 147.68 194.956 147.856C195.165 148.032 195.425 148.139 195.697 148.162C193.776 153.05 188.721 156.368 183.497 156.4C183.015 158.586 182.308 160.716 181.387 162.757L173.633 162.83C173.604 162.744 173.578 162.656 173.552 162.57C174.271 162.608 174.991 162.558 175.697 162.422C173.777 160.192 172.297 159.058 173.373 155.909Z" fill="#F2F2F2"/>
<path d="M23.2889 155.909C23.0888 155.917 22.8913 155.862 22.7232 155.754C22.5551 155.645 22.4244 155.487 22.3489 155.302C22.2735 155.116 22.2568 154.912 22.3012 154.717C22.3457 154.522 22.4491 154.345 22.5974 154.21C22.6229 154.113 22.6413 154.042 22.6668 153.945C22.48 153.457 22.1518 153.036 21.7241 152.735C21.2964 152.435 20.7888 152.269 20.2663 152.259C19.7439 152.25 19.2304 152.396 18.7916 152.68C18.3529 152.964 18.0089 153.372 17.8037 153.853C16.6207 156.55 15.0963 159.34 15.8127 162.331C10.992 151.857 12.7887 138.902 20.1447 130.054C22.1651 128.966 23.8128 127.014 24.2586 124.734C23.2607 125.062 22.0283 124.241 22.7861 123.2C23.1141 122.803 23.4452 122.409 23.7732 122.012C20.0331 117.952 15.4709 124.233 19.5781 129.704C18.2014 131.397 17.0054 133.229 16.0096 135.17C16.255 133.101 16.0056 131.003 15.2819 129.049C14.547 127.227 13.1517 125.685 11.925 124.105C10.4337 122.179 7.31831 123.031 7.09208 125.455C8.48089 125.926 8.64271 127.94 7.04647 128.2C7.4209 132.717 10.3294 136.892 14.3709 138.909C12.8314 143.102 12.2033 147.575 12.5283 152.03C11.8612 146.821 6.28904 145.505 2.40566 143.401C2.15876 143.239 1.87015 143.153 1.57502 143.152C1.2799 143.152 0.991025 143.237 0.743639 143.398C0.496253 143.559 0.301049 143.788 0.181839 144.058C0.0626282 144.328 0.0245642 144.627 0.0722913 144.918C0.608907 145.143 1.12193 145.42 1.6038 145.745C1.82956 145.9 2.00189 146.121 2.09715 146.378C2.1924 146.634 2.20593 146.914 2.13588 147.179C2.06582 147.444 1.91561 147.68 1.70584 147.856C1.49606 148.032 1.23699 148.139 0.964138 148.162C2.88517 153.05 7.94054 156.368 13.1649 156.4C13.6461 158.586 14.3533 160.716 15.275 162.757L23.0287 162.83C23.0573 162.744 23.0832 162.656 23.109 162.57C22.3909 162.608 21.6708 162.558 20.9648 162.422C22.885 160.192 24.3644 159.059 23.2892 155.909L23.2889 155.909Z" fill="#F2F2F2"/>
<path d="M76.4291 7.96593H69.0312C68.6678 7.96593 68.3194 7.82159 68.0624 7.56467C67.8055 7.30775 67.6612 6.95928 67.6612 6.59594C67.6612 6.2326 67.8055 5.88413 68.0624 5.62721C68.3194 5.37029 68.6678 5.22595 69.0312 5.22595H76.4291C76.7924 5.22595 77.1409 5.37029 77.3978 5.62721C77.6548 5.88413 77.7991 6.2326 77.7991 6.59594C77.7991 6.95928 77.6548 7.30775 77.3978 7.56467C77.1409 7.82159 76.7924 7.96593 76.4291 7.96593Z" fill="#E6E6E6"/>
<path d="M124.927 7.82889C125.608 7.82889 126.16 7.27687 126.16 6.5959C126.16 5.91494 125.608 5.36292 124.927 5.36292C124.246 5.36292 123.694 5.91494 123.694 6.5959C123.694 7.27687 124.246 7.82889 124.927 7.82889Z" fill="#E6E6E6"/>
<path d="M128.763 7.82889C129.444 7.82889 129.996 7.27687 129.996 6.5959C129.996 5.91494 129.444 5.36292 128.763 5.36292C128.082 5.36292 127.53 5.91494 127.53 6.5959C127.53 7.27687 128.082 7.82889 128.763 7.82889Z" fill="#E6E6E6"/>
<path d="M132.599 7.82889C133.28 7.82889 133.832 7.27687 133.832 6.5959C133.832 5.91494 133.28 5.36292 132.599 5.36292C131.918 5.36292 131.366 5.91494 131.366 6.5959C131.366 7.27687 131.918 7.82889 132.599 7.82889Z" fill="#E6E6E6"/>
<path d="M124.065 27.114H77.5672C76.6665 27.1153 75.803 27.4736 75.1661 28.1105C74.5292 28.7474 74.1709 29.6109 74.1696 30.5116V60.7363C74.1709 61.637 74.5292 62.5005 75.1661 63.1373C75.803 63.7742 76.6665 64.1326 77.5672 64.1338H124.065C124.965 64.1331 125.829 63.7749 126.466 63.1379C127.103 62.5009 127.461 61.6371 127.462 60.7363V30.5116C127.461 29.6107 127.103 28.747 126.466 28.11C125.829 27.473 124.965 27.1148 124.065 27.114Z" fill="#F2F2F2"/>
<path d="M109.508 40.017C105.306 47.4464 100.669 54.6211 95.6212 61.5038H88.3295C93.1056 55.6854 97.8852 49.8669 102.668 44.0485C104.04 42.3731 105.53 40.618 107.588 39.9373L109.508 40.017Z" fill="#3F3D56"/>
<path d="M99.8175 38.8257C99.057 39.6181 98.3283 40.4425 97.6422 41.2988C96.1318 43.1177 94.6426 44.9526 93.1481 46.7822C92.2173 47.9203 91.2866 49.0585 90.3665 50.1967C90.0743 50.009 89.7969 49.7992 89.5368 49.5691C88.0672 48.2935 87.1557 46.4931 86.9976 44.5536C86.8394 42.614 87.4473 40.6897 88.6909 39.193C89.9345 37.6962 91.7148 36.7461 93.6505 36.5462C95.5862 36.3463 97.5231 36.9126 99.0463 38.1236C99.3208 38.3377 99.5786 38.5724 99.8175 38.8257Z" fill="#FE5D26"/>
<path d="M127.462 37.9616V39.0658L126.969 38.8849L120.029 36.3477C117.768 35.523 115.513 34.5804 113.179 33.9858C111.148 33.4048 108.991 33.4325 106.975 34.0653C105.179 34.73 103.535 35.7504 102.142 37.0656C101.526 37.6355 100.928 38.2191 100.35 38.8246C100.161 39.0247 99.972 39.2247 99.7857 39.4247C99.2267 40.033 98.687 40.6549 98.1746 41.2988C96.6648 43.1182 95.1743 44.954 93.681 46.7815C92.7494 47.9214 91.8178 49.0585 90.8972 50.1955C87.8229 53.9575 84.767 57.7268 81.7292 61.5034C81.3201 61.4988 80.9128 61.4474 80.5154 61.35C83.6143 57.5003 86.7279 53.6607 89.856 49.8311C89.9272 49.7435 89.9985 49.6558 90.0697 49.5681C90.4369 49.1105 90.8123 48.6502 91.1849 48.1926C92.7439 46.2829 94.3039 44.3749 95.8648 42.4688C96.9991 41.0824 98.1253 39.6905 99.3473 38.3753C99.4213 38.2903 99.498 38.2081 99.5774 38.1232C99.6953 37.9972 99.8131 37.8739 99.9337 37.7451C102.589 35.0024 105.901 32.5775 109.869 32.5117C112.203 32.4761 114.458 33.2159 116.628 33.9968C118.966 34.8435 121.295 35.7038 123.629 36.5587L127.462 37.9616Z" fill="#3F3D56"/>
<path d="M128.555 130.866H73.0275C72.1268 130.865 71.2632 130.507 70.6263 129.87C69.9894 129.233 69.6312 128.37 69.6301 127.469V119.985C69.6312 119.085 69.9894 118.221 70.6263 117.584C71.2632 116.947 72.1268 116.589 73.0275 116.588H128.555C129.456 116.589 130.32 116.947 130.957 117.584C131.594 118.221 131.952 119.085 131.953 119.985V127.469C131.952 128.37 131.594 129.233 130.957 129.87C130.32 130.507 129.456 130.865 128.555 130.866Z" fill="#F2F2F2"/>
<path d="M128.555 92.5066H73.0275C72.1268 92.5056 71.2632 92.1473 70.6263 91.5104C69.9894 90.8735 69.6312 90.01 69.6301 89.1092V81.6256C69.6312 80.7249 69.9894 79.8614 70.6263 79.2245C71.2632 78.5876 72.1268 78.2293 73.0275 78.2283H128.555C129.456 78.2293 130.32 78.5876 130.957 79.2245C131.594 79.8614 131.952 80.7249 131.953 81.6256V89.1092C131.952 90.01 131.594 90.8735 130.957 91.5104C130.32 92.1473 129.456 92.5056 128.555 92.5066Z" fill="#F2F2F2"/>
<path d="M128.555 111.686H73.0275C72.1268 111.685 71.2632 111.327 70.6263 110.69C69.9894 110.053 69.6312 109.19 69.6301 108.289V100.805C69.6312 99.9047 69.9894 99.0412 70.6263 98.4043C71.2632 97.7674 72.1268 97.4091 73.0275 97.4081H128.555C129.456 97.4091 130.32 97.7674 130.957 98.4043C131.594 99.0412 131.952 99.9047 131.953 100.805V108.289C131.952 109.19 131.594 110.053 130.957 110.69C130.32 111.327 129.456 111.685 128.555 111.686Z" fill="#F2F2F2"/>
<path d="M107.538 122.446H91.1768C90.9827 122.446 90.7965 122.369 90.6593 122.232C90.522 122.095 90.4449 121.909 90.4449 121.714C90.4449 121.52 90.522 121.334 90.6593 121.197C90.7965 121.06 90.9827 120.983 91.1768 120.983H107.538C107.732 120.983 107.918 121.06 108.055 121.197C108.192 121.334 108.27 121.52 108.27 121.714C108.27 121.909 108.192 122.095 108.055 122.232C107.918 122.369 107.732 122.446 107.538 122.446Z" fill="white"/>
<path d="M123.273 126.472H90.9938C90.7997 126.472 90.6135 126.395 90.4763 126.257C90.339 126.12 90.2619 125.934 90.2619 125.74C90.2619 125.546 90.339 125.36 90.4763 125.222C90.6135 125.085 90.7997 125.008 90.9938 125.008H123.273C123.467 125.008 123.654 125.085 123.791 125.222C123.928 125.36 124.005 125.546 124.005 125.74C124.005 125.934 123.928 126.12 123.791 126.257C123.654 126.395 123.467 126.472 123.273 126.472Z" fill="white"/>
<path d="M82.4848 128.634C85.195 128.634 87.392 126.437 87.392 123.727C87.392 121.017 85.195 118.82 82.4848 118.82C79.7747 118.82 77.5777 121.017 77.5777 123.727C77.5777 126.437 79.7747 128.634 82.4848 128.634Z" fill="white"/>
<path d="M81.3914 130.356C80.8906 130.122 80.3183 130.092 79.7962 130.274C79.2742 130.455 78.8435 130.833 78.5959 131.327C78.5472 131.429 78.5069 131.534 78.4755 131.642L71.086 132.083L69.9908 135.912L80.0481 134.212C80.5056 134.308 80.9818 134.249 81.4025 134.046C81.8232 133.842 82.1646 133.505 82.3736 133.087C82.4902 132.848 82.5586 132.589 82.5749 132.323C82.5912 132.058 82.555 131.792 82.4685 131.54C82.382 131.289 82.2467 131.057 82.0706 130.858C81.8944 130.658 81.6807 130.496 81.4417 130.379C81.4251 130.371 81.4083 130.363 81.3914 130.356Z" fill="#FFB6B6"/>
<path d="M65.0806 111.472C64.5936 111.272 64.0695 111.18 63.5438 111.202C63.0182 111.223 62.5032 111.358 62.0341 111.596C61.565 111.834 61.1527 112.17 60.8252 112.582C60.4978 112.994 60.2628 113.471 60.1363 113.982L58.1047 122.186L58.4869 136.539C58.4869 136.539 69.0911 138.574 70.8713 137.266C72.6516 135.958 72.4844 134.985 72.6515 135.958C72.8187 136.932 73.5828 137.341 73.5934 136.953C73.604 136.566 73.6904 136.632 74.134 136.515C74.5777 136.399 76.5356 135.677 76.5356 135.677L76.6233 131.585C76.6233 131.585 73.3864 130.358 72.6011 130.724C71.8158 131.09 72.7682 131.698 71.8158 131.09C70.8634 130.482 70.7593 128.565 70.5964 130.293C70.4336 132.021 69.9568 132.343 69.2427 131.575C68.5287 130.806 65.2203 131.297 65.2203 131.297L67.3256 115.342C67.4314 114.54 67.2686 113.725 66.8625 113.024C66.4563 112.324 65.8298 111.778 65.0806 111.472Z" fill="#FE5D26"/>
<path d="M136.494 154.035L136.605 151.013L125.001 149.145L124.837 153.605L136.494 154.035Z" fill="#FFB6B6"/>
<path d="M134.387 154.945L134.277 150.106L136.346 150.183L139.686 145.709C139.851 145.488 140.082 145.326 140.346 145.245C140.61 145.165 140.892 145.171 141.152 145.263C141.412 145.355 141.636 145.527 141.791 145.755C141.946 145.983 142.024 146.255 142.014 146.53L141.802 152.279L139.719 153.194L141.751 153.656L141.671 155.824L134.387 154.945Z" fill="#2F2E41"/>
<path d="M71.1839 160.966L107.939 156.692C107.939 156.692 123.811 157.609 127.535 155.186L131.462 154.691L131.675 148.922C131.675 148.922 129.273 148.94 127.893 148.297C126.512 147.653 127.472 146.866 126.155 147.64C124.839 148.414 124.978 148.507 123.96 148.151C122.942 147.796 76.2708 145.888 76.2708 145.888L71.1839 160.966Z" fill="#2F2E41"/>
<path d="M119.617 158.463L121.754 156.323L114.518 147.061L111.364 150.219L119.617 158.463Z" fill="#FFB6B6"/>
<path d="M117.454 157.697L120.665 154.075L122.129 155.538L127.62 154.53C127.891 154.48 128.171 154.518 128.419 154.639C128.667 154.76 128.87 154.956 128.998 155.2C129.127 155.444 129.174 155.723 129.132 155.996C129.091 156.268 128.963 156.521 128.769 156.716L124.703 160.786L122.554 160.04L123.729 161.761L122.196 163.295L117.454 157.697Z" fill="#2F2E41"/>
<path d="M56.6831 140.837L57.0485 149.331C57.4787 159.33 68.4905 165.382 77.0293 160.161C77.1867 160.065 77.3446 159.965 77.503 159.862C77.503 159.862 80.7401 158.992 80.6418 157.616C80.5435 156.239 81.3343 155.569 82.0342 155.944C82.734 156.32 91.897 143.316 91.897 143.316C91.897 143.316 110.935 152.812 115.135 155.048L119.566 153.84C119.566 153.84 121.234 154.628 120.633 153.489C120.032 152.35 119.925 152.895 119.74 151.654C119.556 150.413 119.083 148.874 118.797 148.938C118.511 149.003 95.2451 132.719 95.2451 132.719C95.2451 132.719 91.4549 128.883 86.7532 131.416C86.6552 131.788 86.739 131.801 86.739 131.801L71.2076 144.457L69.013 140.289L56.6831 140.837Z" fill="#2F2E41"/>
<path d="M67.1221 109.628L60.4629 106.507L58.4693 109.976C58.4693 109.976 53.1148 117.617 53.0372 123.129C52.9595 128.641 53.9098 130.28 53.9098 130.28C53.9098 130.28 51.6011 132.006 52.7554 133.061C53.9098 134.116 56.4653 134.572 54.5025 135.029C52.5398 135.486 53.0372 140.117 55.2292 140.939C57.4211 141.761 69.1932 141.754 69.1932 141.754C69.0874 141.395 69.0796 141.014 69.1707 140.651C69.2617 140.288 69.4483 139.956 69.711 139.689C70.6236 138.774 71.4456 139.431 70.6236 138.007C69.8016 136.582 68.4316 137.404 69.5276 135.486C70.6236 133.568 70.6232 132.995 70.6232 132.995C70.6232 132.995 72.8575 128.743 69.4921 124.13C69.287 123.849 69.4595 123.838 69.4595 123.838L66.742 114.732L67.1221 109.628Z" fill="#FE5D26"/>
<path d="M56.3905 96.505C56.4468 97.9117 55.5604 99.9045 55.1238 101.106C54.6571 102.391 56.6799 104.096 57.9747 104.47C58.0421 104.025 58.2641 103.618 58.6018 103.32C58.5084 103.744 58.5003 104.183 58.5778 104.61L69.5235 107.102C71.4926 104.821 73.4725 101.543 73.0406 97.5894C73.1441 96.8387 73.0234 96.0741 72.6938 95.3916C72.3643 94.7092 71.8405 94.1393 71.1882 93.7534L65.6546 90.4845C63.3009 89.9487 60.3369 89.6251 58.6368 91.0815C57.8773 91.7573 57.2806 92.5963 56.8915 93.5356C56.5025 94.4749 56.3312 95.4901 56.3905 96.505Z" fill="#2F2E41"/>
<path d="M66.1743 105.897C69.6547 105.897 72.4762 103.076 72.4762 99.595C72.4762 96.1146 69.6547 93.2931 66.1743 93.2931C62.6938 93.2931 59.8723 96.1146 59.8723 99.595C59.8723 103.076 62.6938 105.897 66.1743 105.897Z" fill="#FFB6B6"/>
<path d="M58.7915 96.2282L58.4874 97.564L63.8039 98.7743C63.8086 98.5042 63.8691 98.2379 63.9817 97.9922C64.0942 97.7466 64.2562 97.5268 64.4577 97.3467C64.343 97.8705 64.3561 98.4142 64.4959 98.9319C67.3631 100.541 69.9474 101.111 72.2647 100.7C72.5786 100.772 72.9081 100.716 73.1807 100.544C73.4532 100.373 73.6465 100.1 73.7179 99.7862C74.6503 95.6907 72.2076 91.5047 68.1322 90.4881C67.1415 90.2404 66.1114 90.193 65.1022 90.3487C64.093 90.5043 63.1251 90.8598 62.2551 91.3945C61.3851 91.9291 60.6306 92.632 60.0359 93.4621C59.4411 94.2921 59.018 95.2325 58.7915 96.2282Z" fill="#2F2E41"/>
<path d="M61.8998 87.4149C62.6009 87.2628 63.3428 87.2995 63.9766 86.8247L63.5609 87.7789C64.7134 87.4631 65.942 87.5859 67.0093 88.1233C67.3266 88.2656 67.5972 88.4947 67.7899 88.7842C67.8935 88.9591 67.9565 89.155 67.9743 89.3574C67.992 89.5599 67.9641 89.7637 67.8926 89.954C67.8245 90.1172 67.7231 90.2644 67.5948 90.3861C67.4666 90.5079 67.3144 90.6016 67.1479 90.6613C66.8528 90.7499 66.5437 90.7823 66.2366 90.7567C64.9428 90.7265 63.6489 90.6964 62.3551 90.6662C61.862 90.6968 61.3693 90.6011 60.9236 90.388C60.6866 90.2417 60.4975 90.0293 60.3795 89.777C60.2616 89.5248 60.2198 89.2435 60.2594 88.9678C60.3828 88.1004 61.1988 87.5671 61.8998 87.4149Z" fill="#2F2E41"/>
<path d="M96.0851 136.806C96.0701 136.788 96.0528 136.772 96.0336 136.758C95.9865 136.704 95.9291 136.659 95.8648 136.626L95.4036 136.379L92.3421 132.981C92.1649 132.888 91.9587 132.869 91.7672 132.926L91.7594 132.928L90.4479 133.334L89.32 133.684L87.7444 134.172L77.013 137.495L69.959 139.679C69.7683 139.739 69.6089 139.872 69.5152 140.049C69.4214 140.225 69.4008 140.432 69.4577 140.624C69.4909 140.729 69.5457 140.827 69.6188 140.91L69.8433 141.16L70.3141 141.684L71.4049 143.945L71.7075 144.283C71.804 144.39 71.9291 144.468 72.0681 144.507C72.2072 144.546 72.3545 144.545 72.4928 144.503L95.7318 138.041C95.8525 138.002 95.9618 137.933 96.05 137.842C96.1381 137.751 96.2025 137.639 96.2374 137.517C96.2723 137.395 96.2767 137.267 96.2501 137.143C96.2236 137.019 96.1669 136.903 96.0851 136.806Z" fill="#CCCCCC"/>
<path d="M94.7054 103.185L94.2554 103.258C94.132 103.278 94.0218 103.347 93.9487 103.448L93.7504 103.725L91.9619 108.198C91.8891 108.3 91.8599 108.427 91.8807 108.551L92.0902 109.825L91.2982 132.568C91.3182 132.686 91.3814 132.792 91.4754 132.865L94.9477 137.51L95.0288 137.574L95.2037 137.711C95.2934 137.781 95.4047 137.816 95.5179 137.811L95.813 137.797C95.88 137.794 95.9455 137.776 96.0053 137.746C96.0651 137.716 96.1177 137.673 96.1597 137.62C96.2021 137.569 96.2328 137.508 96.2498 137.443C96.2668 137.379 96.2697 137.311 96.2582 137.245L95.2508 103.574C95.2305 103.45 95.1618 103.34 95.06 103.267C94.9581 103.194 94.8314 103.164 94.7077 103.185L94.7054 103.185Z" fill="#CCCCCC"/>
<path d="M93.9519 104.952L92.3676 109.778L91.7547 129.055L94.2207 131.247L93.9519 104.952Z" fill="#FE5D26"/>
<path d="M81.7006 134.357C81.1998 134.123 80.6275 134.093 80.1054 134.275C79.5833 134.456 79.1527 134.834 78.9051 135.328C78.8563 135.43 78.8161 135.535 78.7847 135.643L71.3952 136.084L70.3 139.913L80.3573 138.213C80.8147 138.309 81.291 138.25 81.7117 138.047C82.1323 137.843 82.4738 137.506 82.6828 137.088C82.9183 136.606 82.9524 136.049 82.7777 135.541C82.6029 135.033 82.2336 134.616 81.7509 134.38C81.7342 134.372 81.7174 134.364 81.7006 134.357Z" fill="#FFB6B6"/>
<path d="M65.3897 115.473C64.9028 115.274 64.3787 115.181 63.853 115.203C63.3273 115.224 62.8124 115.359 62.3433 115.597C61.8742 115.835 61.4619 116.171 61.1344 116.583C60.8069 116.995 60.5719 117.472 60.4455 117.983L58.4139 126.188L58.7961 140.541C58.7961 140.541 69.4003 142.575 71.1805 141.267C72.9607 139.959 72.7936 138.986 72.9607 139.959C73.1279 140.933 73.8919 141.342 73.9025 140.954C73.9132 140.567 73.9996 140.633 74.4432 140.516C74.8868 140.4 76.8448 139.678 76.8448 139.678L76.9324 135.586C76.9324 135.586 73.6956 134.359 72.9103 134.725C72.125 135.091 73.0774 135.699 72.125 135.091C71.1725 134.484 71.0684 132.566 70.9056 134.294C70.7427 136.022 70.266 136.344 69.5519 135.576C68.8378 134.807 65.5295 135.298 65.5295 135.298L67.6347 119.343C67.7406 118.541 67.5778 117.726 67.1716 117.026C66.7655 116.325 66.1389 115.779 65.3897 115.473Z" fill="#FE5D26"/>
<path d="M1.44315e-06 163.067C-0.000126259 163.11 0.00822236 163.152 0.0245641 163.192C0.0409058 163.231 0.0649206 163.267 0.095225 163.298C0.125529 163.328 0.161525 163.352 0.201143 163.368C0.240762 163.385 0.28322 163.393 0.326076 163.393H196.314C196.4 163.393 196.483 163.358 196.544 163.297C196.606 163.236 196.64 163.153 196.64 163.067C196.64 162.98 196.606 162.897 196.544 162.836C196.483 162.775 196.4 162.741 196.314 162.741H0.326059C0.283206 162.741 0.240751 162.749 0.201135 162.765C0.161519 162.782 0.125523 162.806 0.0952208 162.836C0.0649185 162.866 0.0409053 162.902 0.0245641 162.942C0.00822287 162.981 -0.000124794 163.024 1.44315e-06 163.067Z" fill="#CCCCCC"/>
<path d="M172.943 92.5066H117.415C116.514 92.5056 115.651 92.1473 115.014 91.5104C114.377 90.8735 114.019 90.01 114.018 89.1092V81.6256C114.019 80.7249 114.377 79.8614 115.014 79.2245C115.651 78.5876 116.514 78.2293 117.415 78.2283H172.943C173.844 78.2293 174.707 78.5876 175.344 79.2245C175.981 79.8614 176.339 80.7249 176.34 81.6256V89.1092C176.339 90.01 175.981 90.8735 175.344 91.5104C174.707 92.1473 173.844 92.5056 172.943 92.5066Z" fill="#E6E6E6"/>
<path d="M151.925 84.0866H135.564C135.37 84.0866 135.184 84.0095 135.047 83.8722C134.91 83.735 134.833 83.5488 134.833 83.3547C134.833 83.1606 134.91 82.9744 135.047 82.8372C135.184 82.6999 135.37 82.6228 135.564 82.6228H151.925C152.119 82.6228 152.306 82.6999 152.443 82.8372C152.58 82.9744 152.657 83.1606 152.657 83.3547C152.657 83.5488 152.58 83.735 152.443 83.8722C152.306 84.0095 152.119 84.0866 151.925 84.0866Z" fill="white"/>
<path d="M167.661 88.1121H135.381C135.187 88.1121 135.001 88.035 134.864 87.8977C134.727 87.7605 134.65 87.5743 134.65 87.3802C134.65 87.1861 134.727 86.9999 134.864 86.8627C135.001 86.7254 135.187 86.6483 135.381 86.6483H167.661C167.855 86.6483 168.041 86.7254 168.179 86.8627C168.316 86.9999 168.393 87.1861 168.393 87.3802C168.393 87.5743 168.316 87.7605 168.179 87.8977C168.041 88.035 167.855 88.1121 167.661 88.1121Z" fill="white"/>
<path d="M126.872 90.2746C129.583 90.2746 131.78 88.0776 131.78 85.3675C131.78 82.6573 129.583 80.4603 126.872 80.4603C124.162 80.4603 121.965 82.6573 121.965 85.3675C121.965 88.0776 124.162 90.2746 126.872 90.2746Z" fill="white"/>
<path d="M155.133 111.686H99.6053C98.7046 111.685 97.841 111.327 97.2041 110.69C96.5672 110.053 96.209 109.19 96.2079 108.289V100.805C96.209 99.9047 96.5672 99.0412 97.2041 98.4043C97.841 97.7674 98.7046 97.4091 99.6053 97.4081H155.133C156.034 97.4091 156.898 97.7674 157.534 98.4043C158.171 99.0412 158.53 99.9047 158.531 100.805V108.289C158.53 109.19 158.171 110.053 157.534 110.69C156.898 111.327 156.034 111.685 155.133 111.686Z" fill="#E6E6E6"/>
<path d="M134.115 103.267H117.755C117.56 103.267 117.374 103.189 117.237 103.052C117.1 102.915 117.023 102.729 117.023 102.535C117.023 102.341 117.1 102.154 117.237 102.017C117.374 101.88 117.56 101.803 117.755 101.803H134.115C134.31 101.803 134.496 101.88 134.633 102.017C134.77 102.154 134.847 102.341 134.847 102.535C134.847 102.729 134.77 102.915 134.633 103.052C134.496 103.189 134.31 103.267 134.115 103.267Z" fill="white"/>
<path d="M149.851 107.292H117.572C117.377 107.292 117.191 107.215 117.054 107.078C116.917 106.94 116.84 106.754 116.84 106.56C116.84 106.366 116.917 106.18 117.054 106.043C117.191 105.905 117.377 105.828 117.572 105.828H149.851C150.045 105.828 150.231 105.905 150.369 106.043C150.506 106.18 150.583 106.366 150.583 106.56C150.583 106.754 150.506 106.94 150.369 107.078C150.231 107.215 150.045 107.292 149.851 107.292Z" fill="white"/>
<path d="M109.063 109.454C111.773 109.454 113.97 107.257 113.97 104.547C113.97 101.837 111.773 99.6401 109.063 99.6401C106.352 99.6401 104.155 101.837 104.155 104.547C104.155 107.257 106.352 109.454 109.063 109.454Z" fill="white"/>
</g>
<defs>
<clipPath id="clip0_603_991">
<rect width="196.64" height="163.393" fill="white"/>
</clipPath>
</defs>
</svg>
