<svg width="196" height="128" viewBox="0 0 196 128" fill="none" xmlns="http://www.w3.org/2000/svg">
<g clip-path="url(#clip0_603_1045)">
<path d="M171.476 85.7281C171.287 85.5014 171.15 85.2359 171.074 84.9504C170.998 84.6649 170.986 84.3662 171.038 84.0755C171.091 83.7848 171.206 83.5091 171.376 83.2678C171.547 83.0265 171.768 82.8254 172.024 82.6789L170.702 75.6216L174.142 77.0668L174.87 83.5469C175.088 83.9941 175.134 84.5055 175 84.9844C174.866 85.4633 174.561 85.8762 174.142 86.1451C173.724 86.414 173.221 86.52 172.73 86.4432C172.239 86.3663 171.793 86.1119 171.476 85.7281Z" fill="#FFB6B6"/>
<path d="M163.303 4.14038H12.2842V75.8013H163.303V4.14038Z" fill="#E6E6E6"/>
<path d="M158.985 10.2854H16.6027V70.0744H158.985V10.2854Z" fill="white"/>
<path d="M163.238 0H12.2198V6.41572H163.238V0Z" fill="#FE5D26"/>
<path d="M16.9875 4.15682C17.6443 4.15682 18.1767 3.62443 18.1767 2.96769C18.1767 2.31096 17.6443 1.77856 16.9875 1.77856C16.3308 1.77856 15.7984 2.31096 15.7984 2.96769C15.7984 3.62443 16.3308 4.15682 16.9875 4.15682Z" fill="white"/>
<path d="M21.5011 4.15682C22.1578 4.15682 22.6902 3.62443 22.6902 2.96769C22.6902 2.31096 22.1578 1.77856 21.5011 1.77856C20.8443 1.77856 20.312 2.31096 20.312 2.96769C20.312 3.62443 20.8443 4.15682 21.5011 4.15682Z" fill="white"/>
<path d="M26.0148 4.15682C26.6716 4.15682 27.2039 3.62443 27.2039 2.96769C27.2039 2.31096 26.6716 1.77856 26.0148 1.77856C25.3581 1.77856 24.8257 2.31096 24.8257 2.96769C24.8257 3.62443 25.3581 4.15682 26.0148 4.15682Z" fill="white"/>
<path d="M24.9295 48.752C24.7644 48.7525 24.6063 48.8185 24.4898 48.9355C24.3732 49.0525 24.3078 49.2108 24.3078 49.3759C24.3078 49.541 24.3732 49.6994 24.4898 49.8164C24.6063 49.9333 24.7644 49.9993 24.9295 49.9999H59.1689C59.334 49.9993 59.4921 49.9333 59.6086 49.8164C59.7252 49.6994 59.7906 49.541 59.7906 49.3759C59.7906 49.2108 59.7252 49.0525 59.6086 48.9355C59.4921 48.8185 59.334 48.7525 59.1689 48.752H24.9295Z" fill="#E6E6E6"/>
<path d="M24.9295 52.4961C24.7644 52.4967 24.6063 52.5627 24.4898 52.6796C24.3732 52.7966 24.3078 52.955 24.3078 53.1201C24.3078 53.2852 24.3732 53.4436 24.4898 53.5605C24.6063 53.6775 24.7644 53.7435 24.9295 53.7441H42.4094C42.5745 53.7435 42.7326 53.6775 42.8492 53.5605C42.9657 53.4436 43.0312 53.2852 43.0312 53.1201C43.0312 52.955 42.9657 52.7966 42.8492 52.6796C42.7326 52.5627 42.5745 52.4967 42.4094 52.4961H24.9295Z" fill="#E6E6E6"/>
<path d="M59.2119 59.5651H46.2056C46.0371 59.5649 45.8756 59.4979 45.7565 59.3788C45.6374 59.2597 45.5704 59.0982 45.5702 58.9297V56.8458C45.5704 56.6774 45.6374 56.5159 45.7565 56.3968C45.8756 56.2776 46.0371 56.2106 46.2056 56.2104H59.2119C59.3804 56.2106 59.5419 56.2776 59.661 56.3968C59.7801 56.5159 59.8471 56.6774 59.8473 56.8458V58.9297C59.8471 59.0982 59.7801 59.2597 59.661 59.3788C59.5419 59.4979 59.3804 59.5649 59.2119 59.5651Z" fill="#FE5D26"/>
<path d="M59.2119 37.8649H46.2056C46.0371 37.8647 45.8756 37.7977 45.7565 37.6786C45.6374 37.5595 45.5704 37.398 45.5702 37.2295V35.1456C45.5704 34.9772 45.6374 34.8157 45.7565 34.6966C45.8756 34.5774 46.0371 34.5104 46.2056 34.5103H59.2119C59.3804 34.5104 59.5419 34.5774 59.661 34.6966C59.7801 34.8157 59.8471 34.9772 59.8473 35.1456V37.2295C59.8471 37.398 59.7801 37.5595 59.661 37.6786C59.5419 37.7977 59.3804 37.8647 59.2119 37.8649Z" fill="#FE5D26"/>
<path d="M82.1368 20.7419C81.9211 20.7423 81.7143 20.8282 81.5619 20.9809C81.4095 21.1335 81.3239 21.3404 81.3239 21.5561C81.3239 21.7719 81.4095 21.9788 81.5619 22.1314C81.7143 22.2841 81.9211 22.37 82.1368 22.3703H150.234C150.449 22.37 150.656 22.2841 150.809 22.1314C150.961 21.9788 151.047 21.7719 151.047 21.5561C151.047 21.3404 150.961 21.1335 150.809 20.9809C150.656 20.8282 150.449 20.7423 150.234 20.7419H82.1368Z" fill="#E6E6E6"/>
<path d="M82.1368 25.6274C81.9211 25.6278 81.7143 25.7137 81.5619 25.8664C81.4095 26.019 81.3239 26.2259 81.3239 26.4416C81.3239 26.6574 81.4095 26.8643 81.5619 27.0169C81.7143 27.1696 81.9211 27.2555 82.1368 27.2558H128.365C128.581 27.2555 128.788 27.1696 128.94 27.0169C129.093 26.8643 129.178 26.6574 129.178 26.4416C129.178 26.2259 129.093 26.019 128.94 25.8664C128.788 25.7137 128.581 25.6278 128.365 25.6274H82.1368Z" fill="#E6E6E6"/>
<path d="M82.1368 30.4026C81.9211 30.4029 81.7143 30.4889 81.5619 30.6415C81.4095 30.7942 81.3239 31.0011 81.3239 31.2168C81.3239 31.4325 81.4095 31.6394 81.5619 31.7921C81.7143 31.9447 81.9211 32.0306 82.1368 32.031H150.234C150.449 32.0306 150.656 31.9447 150.809 31.7921C150.961 31.6394 151.047 31.4325 151.047 31.2168C151.047 31.0011 150.961 30.7942 150.809 30.6415C150.656 30.4889 150.449 30.4029 150.234 30.4026H82.1368Z" fill="#E6E6E6"/>
<path d="M82.1368 35.2883C81.9211 35.2887 81.7143 35.3746 81.5619 35.5273C81.4095 35.6799 81.3239 35.8868 81.3239 36.1025C81.3239 36.3183 81.4095 36.5251 81.5619 36.6778C81.7143 36.8305 81.9211 36.9164 82.1368 36.9167H128.365C128.581 36.9164 128.788 36.8305 128.94 36.6778C129.093 36.5251 129.178 36.3183 129.178 36.1025C129.178 35.8868 129.093 35.6799 128.94 35.5273C128.788 35.3746 128.581 35.2887 128.365 35.2883H82.1368Z" fill="#E6E6E6"/>
<path d="M150.433 45.8552H137.427C137.258 45.855 137.097 45.788 136.978 45.6688C136.859 45.5497 136.792 45.3882 136.792 45.2198V43.1359C136.792 42.9674 136.859 42.8059 136.978 42.6868C137.097 42.5677 137.258 42.5007 137.427 42.5005H150.433C150.602 42.5007 150.763 42.5677 150.882 42.6868C151.001 42.8059 151.068 42.9674 151.069 43.1359V45.2198C151.068 45.3882 151.001 45.5497 150.882 45.6688C150.763 45.788 150.602 45.855 150.433 45.8552Z" fill="#FE5D26"/>
<path d="M39.6761 21.6238C39.4451 21.6245 39.2581 21.9246 39.2585 22.2941C39.259 22.6625 39.4457 22.961 39.6761 22.9617H59.4032C59.6342 22.9609 59.8212 22.6609 59.8207 22.2914C59.8203 21.923 59.6336 21.6245 59.4032 21.6238H39.6761Z" fill="#E4E4E4"/>
<path d="M39.6761 25.5002C39.4451 25.501 39.2581 25.8011 39.2585 26.1705C39.259 26.5389 39.4457 26.8374 39.6761 26.8381H59.4032C59.6342 26.8374 59.8212 26.5373 59.8207 26.1679C59.8203 25.7995 59.6336 25.501 59.4032 25.5002H39.6761Z" fill="#E4E4E4"/>
<path d="M39.6761 29.3296C39.4451 29.3303 39.2581 29.6304 39.2585 29.9999C39.259 30.3683 39.4457 30.6668 39.6761 30.6675H48.1647C48.3958 30.6668 48.5828 30.3667 48.5823 29.9972C48.5818 29.6288 48.3951 29.3303 48.1647 29.3296H39.6761Z" fill="#E4E4E4"/>
<path d="M29.6599 31.4481C32.6164 31.4481 35.013 29.0515 35.013 26.095C35.013 23.1386 32.6164 20.7419 29.6599 20.7419C26.7035 20.7419 24.3068 23.1386 24.3068 26.095C24.3068 29.0515 26.7035 31.4481 29.6599 31.4481Z" fill="#E4E4E4"/>
<path d="M140.503 44.795C140.465 45.0879 140.492 45.3856 140.582 45.6671C140.671 45.9485 140.822 46.207 141.022 46.4241C141.222 46.6412 141.468 46.8118 141.741 46.9238C142.014 47.0359 142.309 47.0866 142.604 47.0725L145.279 53.7355L147.404 50.6687L144.538 44.8115C144.481 44.3175 144.245 43.8613 143.875 43.5295C143.505 43.1977 143.025 43.0133 142.528 43.0112C142.031 43.0092 141.55 43.1897 141.177 43.5184C140.804 43.8472 140.564 44.3014 140.503 44.795Z" fill="#FFB6B6"/>
<path d="M170.668 124.93H168.204L167.032 115.428L170.668 115.429L170.668 124.93Z" fill="#FFB6B6"/>
<path d="M171.296 127.318L163.353 127.317V127.217C163.353 126.397 163.679 125.611 164.259 125.031C164.838 124.451 165.625 124.126 166.445 124.125H166.445L171.296 124.126L171.296 127.318Z" fill="#2F2E41"/>
<path d="M162.607 124.852L160.258 124.108L162.009 114.696L165.475 115.794L162.607 124.852Z" fill="#FFB6B6"/>
<path d="M162.485 127.318L154.913 124.92L154.943 124.825C155.191 124.043 155.738 123.392 156.466 123.014C157.194 122.636 158.042 122.563 158.823 122.81L163.449 124.275L162.485 127.318Z" fill="#2F2E41"/>
<path d="M159.689 78.4924C159.689 78.4924 156.034 84.2314 157.326 89.3535C158.617 94.4756 160.024 104.321 160.024 104.321L167.027 120.987L172.247 120.774L167.063 101.124L167.268 87.9865C167.268 87.9865 170.871 81.7076 170.169 79.7531C169.468 77.7985 159.689 78.4924 159.689 78.4924Z" fill="#2F2E41"/>
<path d="M171.63 80.5442C171.63 80.5442 172.08 86.2375 170.673 88.6486C169.267 91.0597 167.768 100.237 167.768 100.237L165.377 118.591L160.426 116.979L164.648 96.416L167.967 80.2405L171.63 80.5442Z" fill="#2F2E41"/>
<path d="M173.386 52.9838L169.522 50.3282L163.643 50.1575L161.596 52.1647L158.471 53.7602L158.182 79.753C158.182 79.753 167.538 84.2376 172.572 82.0728L174.993 61.8246C175.998 57.8061 173.386 52.9838 173.386 52.9838Z" fill="#FE5D26"/>
<path d="M159.256 60.7064H148.951L142.18 49.0521L146.583 47.3083L150.311 53.9405L155.707 53.4522L159.077 53.2892C159.617 53.2631 160.156 53.3553 160.656 53.5593C161.157 53.7633 161.607 54.0743 161.975 54.4704C162.343 54.8665 162.62 55.3382 162.786 55.8524C162.953 56.3667 163.005 56.9112 162.939 57.4478C162.828 58.3465 162.392 59.1736 161.714 59.7737C161.036 60.3738 160.161 60.7054 159.256 60.7064Z" fill="#FE5D26"/>
<path d="M167.062 48.0171C169.877 48.0171 172.159 45.7349 172.159 42.9196C172.159 40.1043 169.877 37.822 167.062 37.822C164.247 37.822 161.964 40.1043 161.964 42.9196C161.964 45.7349 164.247 48.0171 167.062 48.0171Z" fill="#FFB6B6"/>
<path d="M173.204 41.7598C173.048 40.6407 172.29 39.5781 171.212 39.239C170.783 37.9956 169.649 37.0801 168.396 36.6811C167.236 36.311 165.985 36.3367 164.841 36.7541C163.697 37.1714 162.723 37.9568 162.074 38.987C161.978 39.1378 161.683 39.5082 161.691 39.6882C161.701 39.9167 162.051 40.1526 162.227 40.2967C162.662 40.6331 163.131 40.9229 163.627 41.1612C165.46 42.1115 164.85 43.6049 164.825 45.2973C164.813 46.1198 165.088 46.822 165.789 47.2917C166.801 47.9697 168.25 47.7 169.351 47.4279C170.6 47.1191 171.639 46.0214 172.352 44.963C172.983 44.0256 173.361 42.8789 173.204 41.7598Z" fill="#2F2E41"/>
<path d="M173.239 59.6204L175.223 81.3774L168.85 81.0357L173.239 59.6204Z" fill="#FE5D26"/>
<path d="M195.198 127.898H117.179C117.116 127.898 117.055 127.873 117.011 127.828C116.966 127.783 116.941 127.722 116.941 127.659C116.941 127.596 116.966 127.535 117.011 127.49C117.055 127.445 117.116 127.42 117.179 127.42H195.198C195.262 127.42 195.323 127.445 195.368 127.49C195.412 127.535 195.438 127.595 195.438 127.659C195.438 127.722 195.412 127.783 195.368 127.828C195.323 127.873 195.262 127.898 195.198 127.898Z" fill="#CACACA"/>
<path d="M16.8958 125.513H18.8065L19.7155 118.143H16.8954L16.8958 125.513Z" fill="#9E616A"/>
<path d="M16.4084 124.889L20.1713 124.889C20.8073 124.889 21.4173 125.142 21.867 125.591C22.3167 126.041 22.5694 126.651 22.5694 127.287V127.365L16.4086 127.365L16.4084 124.889Z" fill="#2F2E41"/>
<path d="M34.507 125.513H36.4176L37.3266 118.143H34.5066L34.507 125.513Z" fill="#9E616A"/>
<path d="M34.0195 124.889L37.7824 124.889C38.4184 124.889 39.0284 125.142 39.4781 125.591C39.9278 126.041 40.1805 126.651 40.1805 127.287V127.365L34.0196 127.365L34.0195 124.889Z" fill="#2F2E41"/>
<path d="M32.1999 66.3054L33.4467 74.2537L21.6022 74.4096L23.1606 66.773L32.1999 66.3054Z" fill="#9E616A"/>
<path d="M33.103 72.313L36.8754 82.358L37.343 123.986H34.1481L26.5114 90.5401L19.4981 123.113H16.3811L18.563 86.488C18.563 86.488 17.9196 79.137 21.2125 74.7992L22.014 72.4836L33.103 72.313Z" fill="#2F2E41"/>
<path d="M16.9213 80.1436C17.2511 80.0537 17.5571 79.8926 17.8179 79.6717C18.0787 79.4507 18.2879 79.1752 18.4307 78.8647C18.5736 78.5541 18.6466 78.2161 18.6446 77.8742C18.6426 77.5324 18.5657 77.1952 18.4193 76.8863L23.4582 60.4583L19.7519 59.7236L15.1434 75.8265C14.6408 76.1068 14.2585 76.5618 14.0689 77.1052C13.8793 77.6486 13.8956 78.2426 14.1148 78.7747C14.3339 79.3069 14.7407 79.7401 15.2579 79.9924C15.7752 80.2447 16.367 80.2985 16.9213 80.1436Z" fill="#9E616A"/>
<path d="M23.5669 70.6953C23.4978 70.6952 23.4288 70.6884 23.361 70.675C23.1329 70.6293 22.9261 70.5103 22.772 70.3361C22.618 70.1618 22.5252 69.942 22.5078 69.71C22.3907 68.1059 21.8101 65.3137 20.7824 61.4107C20.4354 60.0842 20.5123 58.6824 21.0021 57.4017C21.492 56.1211 22.3703 55.0259 23.514 54.2696C24.6577 53.5133 26.0093 53.1338 27.3795 53.1844C28.7497 53.235 30.0697 53.7131 31.1545 54.5516C31.8491 55.0837 32.4288 55.7508 32.8587 56.5128C33.2886 57.2749 33.5599 58.116 33.6561 58.9856C34.1669 63.484 33.2039 68.0004 32.7662 69.7333C32.7087 69.9596 32.5786 70.1607 32.3959 70.3059C32.2131 70.4512 31.9878 70.5325 31.7545 70.5374L23.5896 70.695C23.5821 70.6952 23.5745 70.6953 23.5669 70.6953Z" fill="#FE5D26"/>
<path d="M46.378 56.265C46.3289 56.375 46.2886 56.4887 46.2575 56.605L36.0374 60.0779L34.0626 58.3527L31.0695 60.9927L34.2687 64.3866C34.5271 64.6608 34.8675 64.8437 35.2388 64.9079C35.6101 64.9722 35.9922 64.9143 36.3277 64.7429L47.2638 59.1568C47.6593 59.3993 48.1192 59.5158 48.5825 59.4906C49.0458 59.4654 49.4904 59.2997 49.8572 59.0157C50.224 58.7316 50.4957 58.3426 50.636 57.9004C50.7764 57.4582 50.7788 56.9837 50.6429 56.5401C50.507 56.0965 50.2393 55.7048 49.8753 55.417C49.5114 55.1293 49.0684 54.9592 48.6054 54.9293C48.1425 54.8994 47.6813 55.0112 47.2834 55.2498C46.8855 55.4884 46.5697 55.8425 46.378 56.265Z" fill="#9E616A"/>
<path d="M35.6811 60.2676L31.9555 63.5216C31.8495 63.6142 31.7248 63.6829 31.5898 63.7229C31.4549 63.763 31.3129 63.7734 31.1736 63.7537C31.0342 63.7339 30.9008 63.6843 30.7823 63.6083C30.6638 63.5323 30.5632 63.4317 30.4871 63.3133L27.8222 59.1636C27.3511 58.6186 27.1154 57.909 27.1668 57.1904C27.2182 56.4719 27.5526 55.803 28.0966 55.3307C28.6406 54.8584 29.3497 54.6212 30.0684 54.6711C30.787 54.721 31.4565 55.054 31.93 55.5969L35.6721 58.7845C35.7793 58.8758 35.8654 58.9891 35.9248 59.1167C35.9842 59.2443 36.0154 59.3832 36.0162 59.524C36.0171 59.6647 35.9876 59.804 35.9298 59.9323C35.8719 60.0606 35.7871 60.175 35.6811 60.2676Z" fill="#FE5D26"/>
<path d="M22.8696 64.6646L18.2655 62.8559C18.1345 62.8044 18.0161 62.7253 17.9185 62.624C17.8208 62.5226 17.7461 62.4014 17.6995 62.2686C17.6529 62.1358 17.6354 61.9945 17.6484 61.8544C17.6613 61.7142 17.7042 61.5785 17.7743 61.4565L20.2308 57.1801C20.4979 56.5113 21.0193 55.9757 21.6806 55.6907C22.342 55.4058 23.0894 55.3947 23.759 55.66C24.4285 55.9253 24.9655 56.4453 25.2522 57.1059C25.5389 57.7666 25.5519 58.5139 25.2883 59.1842L24.182 63.9737C24.1502 64.1109 24.0893 64.2396 24.0034 64.351C23.9175 64.4625 23.8085 64.5541 23.684 64.6197C23.5594 64.6852 23.4222 64.7232 23.2817 64.731C23.1412 64.7387 23.0006 64.7161 22.8696 64.6646Z" fill="#FE5D26"/>
<path d="M26.2825 52.1718C29.0484 52.1718 31.2906 49.9295 31.2906 47.1636C31.2906 44.3977 29.0484 42.1555 26.2825 42.1555C23.5166 42.1555 21.2744 44.3977 21.2744 47.1636C21.2744 49.9295 23.5166 52.1718 26.2825 52.1718Z" fill="#9E616A"/>
<path d="M78.2583 127.898H0.23922C0.175889 127.898 0.115215 127.873 0.0704977 127.828C0.0257808 127.783 0.000671387 127.722 0.000671387 127.659C0.000671387 127.596 0.0257808 127.535 0.0704977 127.49C0.115215 127.445 0.175889 127.42 0.23922 127.42H78.2583C78.3217 127.42 78.3823 127.445 78.4271 127.49C78.4718 127.535 78.4969 127.596 78.4969 127.659C78.4969 127.722 78.4718 127.783 78.4271 127.828C78.3823 127.873 78.3217 127.898 78.2583 127.898Z" fill="#CACACA"/>
<path d="M29.7277 45.1503C30.8022 45.1443 31.8767 45.1382 32.9512 45.1322C33.0276 44.3999 32.7017 43.6713 32.2268 43.1086C31.7264 42.5673 31.1557 42.0954 30.5298 41.7057C29.9135 41.2828 29.275 40.8502 28.5423 40.7024C27.9282 40.5785 27.2934 40.6644 26.673 40.7507C25.8501 40.8651 25.0273 40.9796 24.2045 41.094C23.3013 41.2196 22.3564 41.3616 21.6228 41.9033C20.6307 42.6358 20.2512 43.9193 19.9325 45.1106L18.168 51.7042L28.5902 52.7974C28.9672 52.8623 29.3534 52.8511 29.726 52.7644C29.9116 52.7177 30.0794 52.6176 30.2085 52.4764C30.3376 52.3352 30.4224 52.1592 30.4523 51.9702C30.4824 51.5452 30.1452 51.1973 29.8713 50.8708C29.2181 50.0614 28.826 49.0728 28.7469 48.0357C28.6678 46.9986 28.9055 45.962 29.4284 45.0629L29.7277 45.1503Z" fill="#2F2E41"/>
</g>
<defs>
<clipPath id="clip0_603_1045">
<rect width="195.438" height="127.898" fill="white"/>
</clipPath>
</defs>
</svg>
