<svg width="196" height="102" viewBox="0 0 196 102" fill="none" xmlns="http://www.w3.org/2000/svg">
<g clip-path="url(#clip0_603_1095)">
<path d="M23.3138 83.8413C23.0708 83.7449 22.7613 84.2882 22.5525 84.1915C22.3446 84.0951 22.5795 83.5221 22.3892 82.7746C22.3549 82.6398 22.1387 81.7903 21.783 81.7514C21.1088 81.6775 20.5267 84.5805 19.5192 84.5557C19.2981 84.5503 19.033 84.4032 18.3455 84.3631C18.0721 84.3471 17.9235 84.3592 17.8462 84.4571C17.7366 84.5959 17.8662 84.786 17.9966 85.2559C18.1922 85.9607 18.038 86.0281 18.241 86.5541C18.3918 86.9446 18.5559 87.1125 18.4725 87.2343C18.3545 87.4067 17.9496 87.1818 17.7735 87.3659C17.5938 87.5538 17.7736 88.0409 17.9615 88.3645C18.314 88.9717 18.7971 89.179 19.2045 89.4747C19.6471 89.796 20.2074 90.3719 20.6166 91.4836L23.8921 101.483C23.2634 99.3975 21.6347 93.6079 21.1159 91.3896C20.9662 90.7492 20.8337 90.0847 21.177 89.5169C21.5075 88.9703 22.2391 88.5792 22.911 87.7429C22.9894 87.6452 23.2044 87.3706 23.1165 87.1872C23.0439 87.0356 22.8305 87.0845 22.7606 86.944C22.6668 86.7556 22.9747 86.5146 23.2093 86.0324C23.3748 85.6923 23.4197 85.4052 23.4584 85.1583C23.47 85.0839 23.6373 83.9698 23.3138 83.8413Z" fill="#F2F2F2"/>
<path d="M15.5457 96.4364C15.4282 96.5279 15.6056 96.8365 15.4979 96.9111C15.3906 96.9853 15.1772 96.7047 14.7554 96.5824C14.6793 96.5604 14.2 96.4214 14.0782 96.5847C13.8475 96.8943 15.1043 98.0176 14.8015 98.505C14.735 98.6119 14.5863 98.6996 14.3683 99.0254C14.2815 99.155 14.2446 99.2314 14.2703 99.2976C14.3068 99.3914 14.4376 99.3827 14.7058 99.4543C15.1082 99.5616 15.0967 99.6568 15.4135 99.7089C15.6486 99.7476 15.7784 99.7155 15.8141 99.7915C15.8647 99.8992 15.6375 100.033 15.677 100.173C15.7174 100.315 16.0083 100.367 16.2214 100.368C16.6211 100.371 16.8622 100.193 17.1249 100.079C17.4103 99.9541 17.8546 99.8453 18.5183 99.9652L24.3711 101.243C23.1662 100.95 19.8547 100.079 18.6163 99.693C18.2587 99.5818 17.8944 99.4551 17.7148 99.1228C17.5418 98.8028 17.561 98.3309 17.3444 97.7599C17.3191 97.6932 17.2463 97.5084 17.131 97.4986C17.0356 97.4905 16.998 97.6094 16.9089 97.6032C16.7893 97.5948 16.7599 97.3742 16.5909 97.1199C16.4718 96.9406 16.3438 96.8357 16.2338 96.7454C16.2006 96.7182 15.7021 96.3147 15.5457 96.4364Z" fill="#F2F2F2"/>
<path d="M18.3038 95.1485L17.7434 94.5696L17.7388 94.4965C17.7173 94.1585 17.6262 93.8824 17.4681 93.6758C17.443 93.6429 17.4162 93.6114 17.3889 93.5792C17.2807 93.4518 17.1461 93.2933 17.0839 93.0356C17.0495 92.8917 16.9935 92.5403 17.22 92.4142C17.2805 92.3797 17.3412 92.3729 17.3952 92.378C17.3941 92.3671 17.3932 92.3561 17.3921 92.3443C17.3809 92.1991 17.399 92.1191 17.4165 92.0421C17.4299 91.9829 17.4438 91.9219 17.4461 91.8009C17.4471 91.7478 17.4454 91.7032 17.444 91.6657C17.44 91.5521 17.4412 91.4119 17.5633 91.3201C17.6971 91.2265 17.8472 91.2811 17.9466 91.3171C18.124 91.3814 18.2304 91.4443 18.301 91.486C18.3268 91.5013 18.3558 91.5184 18.3668 91.5222C18.4557 91.5512 18.7498 91.2328 18.8611 91.1135C19.1105 90.8447 19.3263 90.6121 19.5678 90.7138C19.7407 90.7865 19.8182 90.9992 19.8039 91.3634C19.7994 91.4768 19.7785 91.5765 19.7557 91.6595C19.8216 91.6516 19.8939 91.6617 19.9604 91.714C20.1176 91.8378 20.1044 92.0937 19.9218 92.475C19.8767 92.5699 19.8156 92.6973 19.6942 92.8295C19.637 92.8918 19.5798 92.9404 19.5302 92.9812C19.5518 93.0114 19.5695 93.0485 19.5769 93.0951C19.5988 93.232 19.5251 93.3622 19.3519 93.4784C19.1635 93.6088 18.9876 93.6894 18.8326 93.7607C18.6974 93.8231 18.5811 93.8772 18.5074 93.9425C18.3723 94.0654 18.3503 94.2665 18.3355 94.5168L18.3038 95.1485Z" fill="#F2F2F2"/>
<path d="M15.7192 91.1212L15.3014 91.8101L15.2319 91.8332C14.9104 91.9397 14.6664 92.0978 14.5067 92.3031C14.4813 92.3358 14.4575 92.3697 14.4333 92.4043C14.3375 92.5413 14.2184 92.7116 13.9849 92.8372C13.8544 92.907 13.5287 93.0503 13.3493 92.8632C13.3005 92.8134 13.2785 92.7564 13.2698 92.7028C13.2596 92.7066 13.2492 92.7103 13.238 92.7144C13.1004 92.7621 13.0185 92.7649 12.9395 92.7675C12.8789 92.7695 12.8163 92.7716 12.6987 92.8C12.6471 92.8125 12.6044 92.8255 12.5684 92.8363C12.4595 92.869 12.3237 92.9034 12.2039 92.8086C12.0794 92.7029 12.0941 92.5439 12.1038 92.4386C12.121 92.2507 12.1548 92.1318 12.1772 92.0529C12.1855 92.0241 12.1947 91.9917 12.1955 91.9801C12.2011 91.8868 11.8184 91.6831 11.6749 91.6056C11.3516 91.4325 11.0719 91.2828 11.109 91.0234C11.1354 90.8378 11.3215 90.7088 11.6774 90.6303C11.7882 90.6059 11.89 90.6008 11.9761 90.6018C11.9517 90.54 11.9432 90.4676 11.9768 90.39C12.0568 90.2066 12.3076 90.1544 12.7228 90.2342C12.826 90.2538 12.9647 90.2807 13.1235 90.3645C13.1982 90.404 13.2597 90.447 13.3117 90.4847C13.3354 90.4561 13.3669 90.4296 13.4101 90.4106C13.5369 90.3547 13.6816 90.393 13.8379 90.531C14.0118 90.6802 14.1344 90.8299 14.2427 90.9617C14.3374 91.0767 14.4192 91.1754 14.501 91.2302C14.6542 91.3297 14.8543 91.2999 15.1002 91.2508L15.7192 91.1212Z" fill="#F2F2F2"/>
<path d="M13.9481 89.5086L13.3877 88.9297L13.3831 88.8566C13.3616 88.5186 13.2705 88.2426 13.1124 88.0359C13.0873 88.0031 13.0605 87.9715 13.0332 87.9393C12.925 87.8119 12.7904 87.6535 12.7282 87.3957C12.6937 87.2518 12.6377 86.9004 12.8642 86.7743C12.9248 86.7398 12.9855 86.733 13.0395 86.7381C13.0384 86.7272 13.0375 86.7162 13.0364 86.7044C13.0251 86.5592 13.0433 86.4792 13.0607 86.4022C13.0741 86.343 13.0881 86.282 13.0904 86.161C13.0914 86.108 13.0897 86.0634 13.0883 86.0258C13.0843 85.9122 13.0855 85.772 13.2075 85.6802C13.3414 85.5866 13.4915 85.6412 13.5909 85.6772C13.7683 85.7415 13.8747 85.8044 13.9453 85.8461C13.971 85.8614 14.0001 85.8785 14.0111 85.8823C14.1 85.9113 14.394 85.5929 14.5054 85.4736C14.7548 85.2048 14.9706 84.9722 15.2121 85.0739C15.3849 85.1466 15.4625 85.3593 15.4482 85.7235C15.4437 85.8369 15.4228 85.9366 15.4 86.0197C15.4659 86.0117 15.5382 86.0218 15.6047 86.0741C15.7618 86.1979 15.7487 86.4538 15.5661 86.8351C15.521 86.93 15.4599 87.0574 15.3385 87.1897C15.2813 87.2519 15.2241 87.3005 15.1745 87.3413C15.1961 87.3715 15.2138 87.4086 15.2212 87.4552C15.2431 87.5921 15.1693 87.7223 14.9962 87.8385C14.8077 87.9689 14.6319 88.0495 14.4769 88.1208C14.3417 88.1832 14.2254 88.2374 14.1517 88.3026C14.0166 88.4255 13.9946 88.6267 13.9798 88.8769L13.9481 89.5086Z" fill="#F2F2F2"/>
<path d="M24.0963 101.309L23.8992 101.328L23.7581 101.465C23.7445 101.453 23.7106 101.426 23.658 101.384C23.3698 101.155 22.4926 100.456 21.2676 99.2336C20.4125 98.3807 19.5902 97.4599 18.8232 96.4964C18.055 95.5314 17.5305 94.7567 17.1088 94.1342C16.7909 93.6646 16.4954 93.2118 16.2078 92.7705C15.4392 91.5919 14.7131 90.4786 13.7542 89.3658C13.5403 89.1172 13.0948 88.6001 12.3363 88.2695C11.8963 88.0777 11.4162 87.9766 10.9095 87.9694L10.9152 87.5732C11.4748 87.5816 12.0063 87.6939 12.4948 87.9067C13.3358 88.2733 13.8212 88.8368 14.0545 89.1075C15.0303 90.24 15.7633 91.3641 16.5392 92.5542C16.8259 92.9937 17.12 93.4447 17.4367 93.9123C17.8544 94.5291 18.3744 95.2969 19.1327 96.2495C19.8905 97.2016 20.7028 98.1111 21.547 98.9534C22.7566 100.16 23.6209 100.848 23.9048 101.075C24.0563 101.196 24.088 101.221 24.0963 101.309Z" fill="#F2F2F2"/>
<path d="M10.7193 88.9109C10.7064 88.9208 10.6932 88.9305 10.6793 88.9398C10.4014 89.1315 10.031 89.1625 9.57828 89.0324C9.36568 88.971 9.18821 88.8506 8.83427 88.6105C8.77962 88.5736 8.50581 88.3835 8.19019 88.0748C7.98389 87.8731 7.91485 87.7755 7.89516 87.6573C7.87305 87.5259 7.90342 87.3989 7.9602 87.2852C7.93307 87.2583 7.91241 87.2249 7.90108 87.1833C7.85357 87.0114 8.00878 86.9189 8.09197 86.8678C8.13461 86.8427 8.18807 86.8117 8.23827 86.7685C8.31751 86.701 8.34282 86.6424 8.38147 86.5539C8.4184 86.4692 8.46431 86.3639 8.56391 86.2484C8.75951 86.0196 9.00592 85.9348 9.08711 85.9068C9.5132 85.758 9.88373 85.8925 10.3127 86.0482C10.3985 86.0796 10.7029 86.2002 11.0261 86.4381C11.2593 86.6097 11.326 86.7145 11.3633 86.802C11.4403 86.9814 11.4155 87.1373 11.3303 87.505C11.2418 87.8894 11.1972 88.0821 11.1397 88.2228C11.0055 88.5496 10.9212 88.7549 10.7193 88.9109Z" fill="#F2F2F2"/>
<path d="M23.7061 65.9556L28.2877 73.5388L54.9869 71.959L47.8777 62.7959L23.7061 65.9556Z" fill="#F2F2F2"/>
<path d="M31.6839 101.423C31.5284 101.423 31.393 101.308 31.3713 101.15L23.3931 42.8816C23.3694 42.7087 23.4904 42.5493 23.6632 42.5257C23.836 42.5007 23.9954 42.6229 24.0192 42.7959L31.9973 101.064C32.021 101.237 31.9001 101.396 31.7272 101.42C31.7126 101.422 31.6982 101.423 31.6839 101.423Z" fill="#F2F2F2"/>
<path d="M23.7061 101.497C23.5316 101.497 23.3902 101.356 23.3902 101.181V42.8501C23.3902 42.6757 23.5316 42.5342 23.7061 42.5342C23.8806 42.5342 24.0221 42.6757 24.0221 42.8501V101.181C24.0221 101.356 23.8806 101.497 23.7061 101.497Z" fill="#F2F2F2"/>
<path d="M63.7549 101.265C63.6206 101.265 63.496 101.179 63.4536 101.044L44.5746 41.0379C44.5222 40.8714 44.6147 40.694 44.7811 40.6415C44.9475 40.5894 45.125 40.6818 45.1773 40.8481L64.0564 100.854C64.1088 101.02 64.0163 101.198 63.8498 101.25C63.8183 101.26 63.7863 101.265 63.7549 101.265Z" fill="#F2F2F2"/>
<path d="M57.9884 101.339C57.8473 101.339 57.7188 101.244 57.6824 101.101L44.5697 48.1415C44.5267 47.9724 44.629 47.8003 44.7981 47.7573C44.9677 47.7146 45.1392 47.8165 45.1822 47.9856L58.2949 100.945C58.3378 101.114 58.2356 101.286 58.0665 101.329C58.0404 101.336 58.0142 101.339 57.9884 101.339Z" fill="#F2F2F2"/>
<path d="M23.7061 43.7794L45.5869 43.4429L49.6155 66.4295H24.0221L23.7061 43.7794Z" fill="#F2F2F2"/>
<path d="M195.719 101.176H0.281158V101.562H195.719V101.176Z" fill="#E6E6E6"/>
<path d="M40.3524 18.6628C41.0154 19.0353 42.0853 17.5618 42.3278 18.2825C42.5703 19.0033 41.983 21.9116 41.68 22.6091C41.5294 22.9558 41.3165 23.2729 41.1688 23.6208C41.021 23.9687 40.9418 24.3687 41.0724 24.7234C41.2997 25.3407 42.0499 25.5918 42.4218 26.1344C42.855 26.7663 42.6801 27.6174 42.4775 28.3563C42.303 28.9932 42.117 29.6358 41.7809 30.2043C41.4449 30.7728 40.9383 31.2678 40.3053 31.4559C39.4994 31.6954 38.638 31.4108 37.861 31.0895C37.114 30.7805 36.375 30.4304 35.7396 29.9306C35.1043 29.4308 34.5742 28.7674 34.3521 27.9902C34.0735 27.0152 34.3062 25.9483 34.7886 25.0564C35.2709 24.1645 35.9845 23.4214 36.7166 22.7199C37.9497 21.5384 39.2619 20.4395 40.6416 19.4331" fill="#2F2E41"/>
<path d="M44.4672 53.6628L62.1586 60.3641C62.1586 60.3641 63.6329 61.8384 63.9009 64.3849C64.169 66.9314 69.1279 81.4061 69.1279 81.4061L64.8391 83.0144C64.8391 83.0144 57.6017 71.8903 58.0038 67.3334C58.0038 67.3334 57.1996 65.1848 56.7976 65.1199C56.3955 65.055 50.3644 61.9724 46.4776 62.3745C42.5909 62.7766 32.4049 63.9828 32.1369 59.2919C31.8688 54.601 34.2196 54.601 34.2196 54.601L44.4672 53.6628Z" fill="#2F2E41"/>
<path d="M68.1897 80.1999C68.1897 80.1999 69.396 79.7978 70.2001 80.602C71.0043 81.4061 71.0043 82.0762 71.0043 82.0762C71.0043 82.0762 77.3035 81.9422 77.5715 82.7464C77.8396 83.5505 76.9014 86.7671 74.623 86.9012C72.3445 87.0352 64.571 88.6435 64.571 87.1692C64.571 85.6949 64.7051 82.3443 65.2412 82.3443C65.7773 82.3443 68.1897 80.1999 68.1897 80.1999Z" fill="#2F2E41"/>
<path d="M45.9955 57.9255L58.8897 71.7686C58.8897 71.7686 59.5586 73.7433 58.6712 76.1452C57.7838 78.547 55.8197 93.7211 55.8197 93.7211L51.2621 93.2637C51.2621 93.2637 49.6996 80.0848 52.0781 76.1772C52.0781 76.1772 52.3087 73.8946 51.9769 73.6584C51.6452 73.4221 47.6029 67.9874 43.94 66.6266C40.2771 65.2658 30.6103 61.8364 32.4474 57.5118C34.2845 53.1873 36.3921 54.2284 36.3921 54.2284L45.9955 57.9255Z" fill="#2F2E41"/>
<path d="M55.5125 92.2241C55.5125 92.2241 56.7721 92.3978 57.137 93.4749C57.5018 94.5521 57.2051 95.1529 57.2051 95.1529C57.2051 95.1529 62.9122 97.8224 62.7964 98.6621C62.6806 99.5018 60.415 101.97 58.3128 101.081C56.2106 100.193 48.5287 98.192 49.1816 96.8702C49.8345 95.5484 51.4386 92.6036 51.9192 92.841C52.3999 93.0784 55.5125 92.2241 55.5125 92.2241Z" fill="#2F2E41"/>
<path d="M34.2143 29.4714L38.5031 32.286L43.328 39.6574C43.328 39.6574 44.4002 47.4308 43.9981 47.8329C43.5961 48.235 43.7301 48.6371 43.7301 49.4412C43.7301 50.2454 44.7147 50.3309 44.0883 51.0252C43.462 51.7196 42.9365 51.8642 43.8694 52.127C44.8023 52.3898 45.8861 52.1333 45.3442 52.9317C44.8023 53.73 45.2044 53.9981 44.9363 54.2661C44.6682 54.5342 33.8178 65.9937 31.8074 61.5708C29.7971 57.148 29.6574 40.1935 29.6574 40.1935L31.1057 34.6703L34.2143 29.4714Z" fill="#FE5D26"/>
<path d="M21 61.047C20.5436 62.5901 20.97 64.0765 21.9521 64.3668C22.9342 64.657 24.1001 63.6414 24.5564 62.0976C24.7471 61.4834 24.788 60.8324 24.6756 60.1992L26.5266 53.6362L23.4283 52.8333L21.9324 59.3884C21.4936 59.8589 21.1739 60.4276 21 61.047Z" fill="#FFB6B6"/>
<path d="M38.6461 38.7919C38.6461 38.7919 33.6508 34.9784 31.7492 37.3833C29.8477 39.7883 22.8819 50.4648 22.8819 50.4648L22.4201 54.5334L26.3707 55.4053L32.756 45.9963L38.6461 38.7919Z" fill="#FE5D26"/>
<path d="M63.7592 23.9718C64.9048 22.8416 65.2501 21.3344 64.5307 20.6055C63.8113 19.8765 62.2998 20.202 61.154 21.3328C60.6901 21.7782 60.3396 22.3283 60.1319 22.9369L55.3387 27.7871L57.6626 29.9879L62.1412 24.9728C62.7527 24.7732 63.3076 24.4299 63.7592 23.9718Z" fill="#FFB6B6"/>
<path d="M37.5531 34.9223C37.5531 34.9223 40.0823 40.6755 42.9095 39.4896C45.7367 38.3037 56.9959 32.3254 56.9959 32.3254L59.3672 28.9871L56.3304 26.314L46.1921 31.4633L37.5531 34.9223Z" fill="#FE5D26"/>
<path d="M38.6966 28.3278C41.3533 28.3278 43.507 26.1741 43.507 23.5174C43.507 20.8607 41.3533 18.707 38.6966 18.707C36.0399 18.707 33.8862 20.8607 33.8862 23.5174C33.8862 26.1741 36.0399 28.3278 38.6966 28.3278Z" fill="#FFB6B6"/>
<path d="M33.2739 31.0511C34.3966 32.6527 34.9708 34.6315 34.8797 36.5853C36.1527 35.9687 37.0118 34.6659 37.3042 33.2819C37.5967 31.898 37.3736 30.4449 36.9037 29.1108C36.899 29.0974 36.8943 29.0841 36.8895 29.0708C36.176 27.0682 36.839 24.8301 38.5622 23.5853C39.7246 22.7456 40.7327 21.6922 41.5064 20.4847C41.9432 19.803 42.3145 18.9479 41.9882 18.2069C41.6875 17.5241 40.9107 17.205 40.1959 16.9915C38.5636 16.5039 36.8293 16.2265 35.1539 16.535C33.4786 16.8435 31.8657 17.807 31.0739 19.3153C30.2821 20.8237 30.4895 22.8822 31.7747 24.0004C31.3694 24.1314 31.0826 24.5611 31.117 24.9857C31.1515 25.4103 31.5037 25.7881 31.9249 25.8522C31.6501 25.8424 31.4879 26.2043 31.5859 26.4612C31.6839 26.7181 31.9366 26.8777 32.1777 27.01C32.5211 27.1983 32.9017 27.3953 32.9032 27.8885C32.9038 28.0863 32.8332 28.2782 32.718 28.439C32.4388 28.8285 31.9879 29.004 31.5539 29.1686C32.4719 29.439 33.2038 30.2594 33.3681 31.2021" fill="#2F2E41"/>
<path d="M73.2046 29.7425C81.1703 29.7425 87.6277 23.285 87.6277 15.3194C87.6277 7.35369 81.1703 0.89624 73.2046 0.89624C65.2389 0.89624 58.7815 7.35369 58.7815 15.3194C58.7815 23.285 65.2389 29.7425 73.2046 29.7425Z" fill="#1D1D1F"/>
<path d="M72.4571 15.3876L71.0799 23.5549L72.5114 23.7963L73.8885 15.6289L72.4571 15.3876Z" fill="white"/>
<path d="M77.7959 20.4224L72.8747 17.2765L67.1941 18.6348L74.6138 6.96265L77.7959 20.4224Z" fill="white"/>
<path d="M164.145 85.7028C164.358 85.6184 164.628 86.094 164.811 86.0093C164.993 85.925 164.788 85.4234 164.954 84.769C164.984 84.651 165.174 83.9074 165.485 83.8733C166.075 83.8086 166.585 86.3499 167.467 86.3282C167.66 86.3234 167.892 86.1947 168.494 86.1596C168.733 86.1456 168.863 86.1562 168.931 86.2418C169.027 86.3634 168.914 86.5298 168.799 86.9412C168.628 87.5581 168.763 87.6171 168.586 88.0776C168.454 88.4194 168.31 88.5664 168.383 88.673C168.486 88.824 168.841 88.6271 168.995 88.7882C169.152 88.9527 168.995 89.3792 168.83 89.6624C168.522 90.194 168.099 90.3754 167.742 90.6343C167.355 90.9155 166.864 91.4197 166.506 92.3928L163.639 101.146C164.189 99.3207 165.615 94.2525 166.069 92.3106C166.2 91.75 166.316 91.1682 166.015 90.6712C165.726 90.1927 165.086 89.8504 164.497 89.1183C164.429 89.0328 164.241 88.7923 164.317 88.6318C164.381 88.4991 164.568 88.5419 164.629 88.4189C164.711 88.254 164.442 88.043 164.236 87.6209C164.091 87.3232 164.052 87.0719 164.018 86.8557C164.008 86.7905 163.862 85.8153 164.145 85.7028Z" fill="#F2F2F2"/>
<path d="M170.945 96.7285C171.048 96.8085 170.893 97.0788 170.987 97.144C171.081 97.209 171.268 96.9634 171.637 96.8563C171.703 96.837 172.123 96.7154 172.23 96.8583C172.432 97.1293 171.331 98.1127 171.597 98.5393C171.655 98.6329 171.785 98.7097 171.976 98.9949C172.052 99.1084 172.084 99.1753 172.061 99.2332C172.03 99.3153 171.915 99.3077 171.68 99.3703C171.328 99.4643 171.338 99.5476 171.061 99.5932C170.855 99.6271 170.741 99.599 170.71 99.6656C170.666 99.7598 170.865 99.877 170.83 99.9991C170.795 100.124 170.54 100.17 170.354 100.171C170.004 100.172 169.793 100.017 169.563 99.917C169.313 99.8079 168.924 99.7127 168.343 99.8176L163.219 100.936C164.274 100.679 167.173 99.9168 168.257 99.5794C168.57 99.482 168.889 99.371 169.046 99.0801C169.198 98.8001 169.181 98.387 169.37 97.887C169.393 97.8286 169.456 97.6669 169.557 97.6583C169.641 97.6513 169.674 97.7553 169.752 97.7499C169.856 97.7426 169.882 97.5494 170.03 97.3268C170.134 97.1698 170.246 97.078 170.343 96.999C170.372 96.9752 170.808 96.6219 170.945 96.7285Z" fill="#F2F2F2"/>
<path d="M168.531 95.6012L169.021 95.0945L169.025 95.0305C169.044 94.7345 169.124 94.4929 169.262 94.312C169.284 94.2832 169.308 94.2556 169.331 94.2275C169.426 94.1159 169.544 93.9772 169.598 93.7516C169.629 93.6256 169.678 93.318 169.479 93.2076C169.426 93.1774 169.373 93.1714 169.326 93.1759C169.327 93.1664 169.328 93.1568 169.329 93.1464C169.339 93.0193 169.323 92.9493 169.307 92.8819C169.296 92.8301 169.283 92.7766 169.281 92.6707C169.281 92.6243 169.282 92.5852 169.283 92.5524C169.287 92.4529 169.286 92.3302 169.179 92.2498C169.062 92.1679 168.93 92.2157 168.843 92.2472C168.688 92.3035 168.595 92.3585 168.533 92.3951C168.51 92.4085 168.485 92.4234 168.475 92.4267C168.398 92.4522 168.14 92.1734 168.043 92.069C167.824 91.8337 167.635 91.6301 167.424 91.7191C167.273 91.7827 167.205 91.9689 167.217 92.2877C167.221 92.387 167.24 92.4743 167.26 92.547C167.202 92.54 167.139 92.5489 167.08 92.5946C166.943 92.703 166.954 92.927 167.114 93.2608C167.154 93.3439 167.207 93.4554 167.313 93.5712C167.363 93.6257 167.414 93.6682 167.457 93.7039C167.438 93.7304 167.423 93.7629 167.416 93.8036C167.397 93.9235 167.461 94.0375 167.613 94.1392C167.778 94.2533 167.932 94.3239 168.068 94.3863C168.186 94.441 168.288 94.4884 168.352 94.5455C168.471 94.6531 168.49 94.8292 168.503 95.0483L168.531 95.6012Z" fill="#F2F2F2"/>
<path d="M170.793 92.0755L171.159 92.6786L171.22 92.6988C171.501 92.792 171.715 92.9304 171.855 93.1102C171.877 93.1387 171.898 93.1685 171.919 93.1987C172.003 93.3186 172.107 93.4677 172.311 93.5777C172.426 93.6388 172.711 93.7642 172.868 93.6004C172.91 93.5569 172.93 93.507 172.937 93.4601C172.946 93.4634 172.955 93.4666 172.965 93.4702C173.086 93.512 173.157 93.5144 173.226 93.5167C173.28 93.5185 173.334 93.5202 173.437 93.5451C173.482 93.5561 173.52 93.5674 173.551 93.5769C173.647 93.6055 173.766 93.6356 173.87 93.5527C173.979 93.4601 173.967 93.3209 173.958 93.2287C173.943 93.0642 173.913 92.9602 173.894 92.8911C173.887 92.8659 173.879 92.8375 173.878 92.8274C173.873 92.7457 174.208 92.5674 174.334 92.4995C174.617 92.3481 174.861 92.217 174.829 91.9899C174.806 91.8274 174.643 91.7145 174.331 91.6457C174.234 91.6244 174.145 91.62 174.07 91.6208C174.091 91.5668 174.099 91.5033 174.069 91.4354C173.999 91.2748 173.78 91.2292 173.416 91.2991C173.326 91.3162 173.204 91.3397 173.065 91.4131C173 91.4477 172.946 91.4853 172.901 91.5183C172.88 91.4933 172.852 91.4701 172.815 91.4535C172.704 91.4045 172.577 91.438 172.44 91.5589C172.288 91.6895 172.18 91.8205 172.086 91.9359C172.003 92.0365 171.931 92.123 171.86 92.1709C171.725 92.258 171.55 92.232 171.335 92.1889L170.793 92.0755Z" fill="#F2F2F2"/>
<path d="M172.344 90.664L172.834 90.1572L172.838 90.0932C172.857 89.7973 172.937 89.5556 173.075 89.3748C173.097 89.346 173.121 89.3184 173.144 89.2902C173.239 89.1786 173.357 89.0399 173.411 88.8143C173.442 88.6884 173.491 88.3807 173.292 88.2703C173.239 88.2401 173.186 88.2342 173.139 88.2387C173.14 88.2291 173.141 88.2195 173.142 88.2091C173.152 88.082 173.136 88.012 173.12 87.9446C173.109 87.8928 173.096 87.8394 173.094 87.7335C173.094 87.687 173.095 87.648 173.096 87.6151C173.1 87.5156 173.099 87.3929 172.992 87.3126C172.875 87.2306 172.743 87.2784 172.656 87.31C172.501 87.3662 172.408 87.4213 172.346 87.4578C172.323 87.4712 172.298 87.4862 172.288 87.4895C172.211 87.5149 171.953 87.2361 171.856 87.1317C171.637 86.8964 171.448 86.6928 171.237 86.7818C171.086 86.8454 171.018 87.0316 171.03 87.3504C171.034 87.4497 171.053 87.537 171.073 87.6097C171.015 87.6028 170.952 87.6116 170.893 87.6573C170.756 87.7657 170.767 87.9898 170.927 88.3236C170.967 88.4067 171.02 88.5181 171.126 88.6339C171.176 88.6884 171.227 88.731 171.27 88.7667C171.251 88.7931 171.236 88.8256 171.229 88.8664C171.21 88.9862 171.274 89.1003 171.426 89.2019C171.591 89.3161 171.745 89.3866 171.881 89.4491C171.999 89.5037 172.101 89.5511 172.165 89.6082C172.284 89.7158 172.303 89.8919 172.316 90.111L172.344 90.664Z" fill="#F2F2F2"/>
<path d="M163.46 100.994L163.632 101.011L163.756 101.131C163.768 101.12 163.797 101.097 163.844 101.06C164.096 100.859 164.864 100.247 165.936 99.1773C166.685 98.4306 167.404 97.6245 168.076 96.7811C168.748 95.9363 169.208 95.2582 169.577 94.7132C169.855 94.3021 170.114 93.9058 170.365 93.5195C171.038 92.4876 171.674 91.5131 172.513 90.5389C172.701 90.3213 173.091 89.8686 173.755 89.5792C174.14 89.4114 174.56 89.3229 175.004 89.3165L174.999 88.9697C174.509 88.9771 174.043 89.0753 173.616 89.2616C172.88 89.5826 172.455 90.0758 172.25 90.3128C171.396 91.3042 170.755 92.2882 170.075 93.33C169.824 93.7148 169.567 94.1096 169.29 94.5189C168.924 95.0589 168.469 95.7311 167.805 96.5649C167.142 97.3984 166.43 98.1946 165.691 98.9319C164.633 99.988 163.876 100.591 163.627 100.789C163.495 100.895 163.467 100.917 163.46 100.994Z" fill="#F2F2F2"/>
<path d="M175.17 90.1408C175.181 90.1495 175.193 90.158 175.205 90.1661C175.448 90.3339 175.773 90.3612 176.169 90.2473C176.355 90.1934 176.51 90.0881 176.82 89.8779C176.868 89.8456 177.108 89.6792 177.384 89.4089C177.565 89.2324 177.625 89.1469 177.642 89.0435C177.662 88.9284 177.635 88.8172 177.585 88.7177C177.609 88.6941 177.627 88.6649 177.637 88.6285C177.679 88.478 177.543 88.3971 177.47 88.3524C177.433 88.3304 177.386 88.3032 177.342 88.2654C177.273 88.2063 177.25 88.155 177.217 88.0775C177.184 88.0034 177.144 87.9112 177.057 87.8101C176.886 87.6098 176.67 87.5356 176.599 87.5111C176.226 87.3808 175.901 87.4985 175.526 87.6348C175.451 87.6623 175.184 87.7679 174.901 87.9761C174.697 88.1264 174.639 88.2181 174.606 88.2947C174.539 88.4517 174.561 88.5883 174.635 88.9101C174.713 89.2466 174.752 89.4153 174.802 89.5384C174.92 89.8246 174.993 90.0043 175.17 90.1408Z" fill="#F2F2F2"/>
<path d="M118.895 99.2347L115.843 98.5281L117.116 86.4204L121.62 87.4632L118.895 99.2347Z" fill="#A0616A"/>
<path d="M108.455 96.7455C108.323 96.8835 108.153 97.3884 108.11 97.5746C107.977 98.1466 108.334 98.7177 108.906 98.8501L118.357 101.038C118.747 101.128 119.137 100.885 119.227 100.495L119.318 100.101C119.318 100.101 120.06 99.0266 119.434 97.3461C119.434 97.3461 117.974 98.2106 116.6 96.0092L116.294 94.9321L111.832 96.8398L109.656 96.6106C109.181 96.5604 108.785 96.3997 108.455 96.7455Z" fill="#2F2E41"/>
<path d="M150.919 92.7085L148.651 94.8686L139.239 87.1461L142.587 83.958L150.919 92.7085Z" fill="#A0616A"/>
<path d="M143.098 100.058C143.141 100.245 143.469 100.664 143.601 100.802C144.006 101.228 144.679 101.244 145.104 100.839L152.129 94.1491C152.419 93.8729 152.431 93.4138 152.154 93.1237L151.876 92.8312C151.876 92.8312 151.386 91.6211 149.639 91.219C149.639 91.219 149.558 92.9142 146.963 92.8508L145.896 92.5141L145.034 97.2898L143.647 98.9805C143.343 99.3504 142.991 99.5919 143.098 100.058Z" fill="#2F2E41"/>
<path d="M163.801 70.0458L159.791 76.6841L136.418 75.3011L142.642 67.2798L163.801 70.0458Z" fill="#F2F2F2"/>
<path d="M156.818 101.094C156.954 101.094 157.072 100.993 157.091 100.855L164.075 49.8469C164.096 49.6955 163.99 49.556 163.839 49.5353C163.688 49.5134 163.548 49.6204 163.527 49.7718L156.543 100.78C156.522 100.931 156.628 101.071 156.78 101.091C156.792 101.093 156.805 101.094 156.818 101.094Z" fill="#F2F2F2"/>
<path d="M163.801 101.159C163.954 101.159 164.078 101.035 164.078 100.882V49.8191C164.078 49.6663 163.954 49.5425 163.801 49.5425C163.649 49.5425 163.525 49.6663 163.525 49.8191V100.882C163.525 101.035 163.649 101.159 163.801 101.159Z" fill="#F2F2F2"/>
<path d="M128.743 100.956C128.86 100.956 128.969 100.88 129.006 100.762L145.533 48.2327C145.579 48.087 145.498 47.9317 145.352 47.8858C145.207 47.8401 145.051 47.921 145.005 48.0666L128.479 100.596C128.433 100.742 128.514 100.897 128.659 100.943C128.687 100.952 128.715 100.956 128.743 100.956Z" fill="#F2F2F2"/>
<path d="M133.791 101.02C133.914 101.02 134.027 100.937 134.058 100.812L145.537 54.4513C145.575 54.3032 145.485 54.1526 145.337 54.115C145.189 54.0776 145.039 54.1668 145.001 54.3149L133.522 100.676C133.485 100.824 133.574 100.974 133.722 101.012C133.745 101.018 133.768 101.02 133.791 101.02Z" fill="#F2F2F2"/>
<path d="M163.801 50.6327L144.647 50.3381L141.12 70.4607H163.525L163.801 50.6327Z" fill="#F2F2F2"/>
<path d="M156.441 64.0914C156.441 64.0914 159.772 72.3543 153.612 74.2389C147.452 76.1234 138.574 78.786 138.574 78.786L148.781 88.6651L143.749 91.8809C143.749 91.8809 125.186 79.166 125.186 76.1234C125.186 73.0809 140.398 65.1978 140.398 65.1978L148.781 62.2031L156.441 64.0914Z" fill="#2F2E41"/>
<path d="M137.05 62.2031C137.05 62.2031 119.949 63.4588 118.66 66.7831C117.372 70.1074 114.799 87.2931 114.799 87.2931L123.788 88.8876L126.47 74.2389L151.078 65.4818L137.05 62.2031Z" fill="#2F2E41"/>
<path d="M127.925 43.3192L132.441 37.7988L137.428 41.07C137.428 41.07 156.224 53.2814 157.001 64.7398C157.001 64.7398 149.439 72.014 139.735 62.8778L132.703 61.0129L127.925 43.3192Z" fill="#FE5D26"/>
<path d="M107.87 66.2798C106.37 66.8444 104.863 66.5283 104.504 65.5738C104.144 64.6193 105.069 63.3878 106.569 62.8232C107.226 62.5761 107.883 62.4977 108.446 62.5677L114.832 60.2551L115.853 63.2749L109.45 65.2342C109.073 65.6577 108.527 66.0327 107.87 66.2798Z" fill="#A0616A"/>
<path d="M129.432 43.7986L127.925 43.3191L123.614 56.4901L108.874 61.8974L109.815 65.5281L126.578 61.5279L133.048 55.2187L129.432 43.7986Z" fill="#FE5D26"/>
<path d="M126.678 39.3906C129.632 39.3906 132.026 36.9965 132.026 34.0432C132.026 31.0899 129.632 28.6958 126.678 28.6958C123.725 28.6958 121.331 31.0899 121.331 34.0432C121.331 36.9965 123.725 39.3906 126.678 39.3906Z" fill="#A0616A"/>
<path d="M131.975 30.0133C131.975 30.0133 130.583 25.5216 125.97 26.1216C125.97 26.1216 125.038 27.031 124.25 26.8895C123.462 26.748 121.985 29.0981 121.59 29.0932C121.195 29.0882 120.533 29.4746 121.191 29.4829C121.848 29.4912 122.565 29.1712 121.649 29.6861C120.732 30.2009 120.123 30.6538 120.778 30.9252C121.432 31.1967 121.557 30.4745 120.708 31.2534C119.858 32.0322 120.375 31.5781 120.764 31.9778C121.154 32.3775 120.541 34.5556 120.541 34.5556C120.541 34.5556 120.49 32.8955 122.726 32.9237C124.963 32.9518 126.404 33.4963 127.07 32.8467C127.736 32.1971 128.714 33.2 129.329 33.831C129.945 34.4619 130.473 34.337 130.473 34.337L129.908 37.3566C129.908 37.3566 132.213 37.1928 132.36 36.0056C132.506 34.8185 131.93 33.5658 132.33 33.176C132.729 32.7862 131.975 30.0133 131.975 30.0133Z" fill="#2F2E41"/>
<path d="M105.136 65.213C112.109 65.213 117.762 59.5601 117.762 52.587C117.762 45.6138 112.109 39.9609 105.136 39.9609C98.1624 39.9609 92.5095 45.6138 92.5095 52.587C92.5095 59.5601 98.1624 65.213 105.136 65.213Z" fill="#1D1D1F"/>
<path d="M105.79 52.6469L104.537 52.8582L105.742 60.0079L106.996 59.7966L105.79 52.6469Z" fill="white"/>
<path d="M101.116 57.0542L105.424 54.3003L110.397 55.4893L103.902 45.2715L101.116 57.0542Z" fill="white"/>
<path d="M108.848 59.0981C107.246 59.099 105.946 58.2729 105.945 57.253C105.945 56.2331 107.244 55.4057 108.846 55.4048C109.548 55.4044 110.191 55.5625 110.693 55.8259L117.484 55.9075L117.378 59.0935L110.695 58.675C110.193 58.939 109.55 59.0978 108.848 59.0981Z" fill="#A0616A"/>
<path d="M134.662 43.3779C137.942 46.9636 138.345 52.3276 135.637 56.3631L130.199 61.3375L112.763 59.6831L113.13 55.6015L125.454 54.9386L134.662 43.3779Z" fill="#FE5D26"/>
</g>
<defs>
<clipPath id="clip0_603_1095">
<rect width="195.438" height="100.668" fill="white" transform="translate(0.281158 0.894043)"/>
</clipPath>
</defs>
</svg>
