<svg width="176" height="150" viewBox="0 0 176 150" fill="none" xmlns="http://www.w3.org/2000/svg">
<g clip-path="url(#clip0_603_1171)">
<path d="M94.1286 21.7381C99.9637 17.4276 108.179 15.7751 114.607 19.1379C107.371 22.2799 101.479 27.8803 97.9738 34.9483C96.632 37.6789 95.4239 40.8559 92.6554 42.1179C90.9328 42.9032 88.8998 42.7516 87.116 42.1175C85.3322 41.4833 83.7455 40.4061 82.1808 39.3402L81.7116 39.2838C84.4961 32.5848 88.2934 26.0486 94.1286 21.7381Z" fill="#F0F0F0"/>
<path d="M114.555 19.2811C108.553 19.4691 102.763 21.5435 98.0077 25.2095C96.9699 25.9806 96.0601 26.9104 95.3118 27.9647C94.6161 29.0154 94.2144 30.2331 94.1484 31.4915C94.0634 32.6636 94.1122 33.8723 93.7437 35.0033C93.5465 35.5795 93.2297 36.1074 92.8141 36.5525C92.3986 36.9977 91.8936 37.3499 91.3324 37.5862C89.9493 38.2113 88.424 38.3022 86.9294 38.3392C85.2698 38.3803 83.5454 38.3967 82.0362 39.1781C81.8533 39.2728 81.7171 38.9835 81.8997 38.889C84.5255 37.5295 87.594 38.4165 90.3538 37.6074C91.6416 37.2298 92.8234 36.4619 93.3405 35.177C93.7927 34.0535 93.7435 32.807 93.8193 31.6195C93.8656 30.3909 94.2121 29.1924 94.8283 28.1287C95.5205 27.0396 96.393 26.0763 97.4083 25.28C99.6657 23.4507 102.197 21.9878 104.908 20.9447C107.997 19.7371 111.269 19.0667 114.583 18.9625C114.789 18.9561 114.759 19.2747 114.555 19.2811Z" fill="white"/>
<path d="M99.4696 23.939C98.9628 23.0576 98.7858 22.0247 98.9703 21.0249C99.1548 20.0251 99.6886 19.1233 100.477 18.4808C100.636 18.3513 100.845 18.5937 100.685 18.7233C99.9502 19.3203 99.453 20.1603 99.2831 21.0917C99.1133 22.0231 99.2819 22.9845 99.7587 23.8025C99.8621 23.9804 99.5724 24.1158 99.4696 23.939Z" fill="white"/>
<path d="M94.1133 30.8917C96.1149 31.4511 98.2539 31.2356 100.104 30.2881C100.287 30.1941 100.423 30.4833 100.24 30.5772C98.3134 31.5597 96.087 31.7794 94.0053 31.1926C93.807 31.1366 93.916 30.8359 94.1133 30.8917Z" fill="white"/>
<path d="M107.982 20.1607C108.107 20.5426 108.325 20.8875 108.616 21.1643C108.907 21.4412 109.262 21.6414 109.65 21.7469C109.849 21.8005 109.74 22.1011 109.542 22.0479C109.114 21.9293 108.722 21.7077 108.4 21.4025C108.077 21.0974 107.834 20.7179 107.692 20.2972C107.676 20.2587 107.674 20.2152 107.689 20.1757C107.703 20.1362 107.731 20.1035 107.769 20.0844C107.807 20.0665 107.851 20.0645 107.891 20.0788C107.931 20.0931 107.963 20.1225 107.982 20.1607Z" fill="white"/>
<path d="M119.704 43.1662C119.578 43.1363 119.453 43.1064 119.326 43.0783C117.641 42.6852 115.926 42.4296 114.199 42.3142C114.066 42.3032 113.931 42.294 113.797 42.2868C109.634 42.053 105.464 42.5942 101.499 43.8827C99.9212 44.3969 98.3851 45.0304 96.9037 45.7777C94.858 46.8098 92.7219 48.0916 90.5195 48.3792C90.2901 48.4117 90.0588 48.4301 89.8271 48.434L81.6791 39.8606C81.6703 39.8318 81.6596 39.8048 81.6508 39.7759L81.3098 39.4485C81.3835 39.4046 81.4609 39.3607 81.5346 39.3168C81.5772 39.2912 81.6217 39.2675 81.6643 39.2419C81.6934 39.2254 81.7225 39.209 81.7477 39.1925C81.7573 39.1869 81.7671 39.1815 81.7747 39.1778C81.8 39.1613 81.8252 39.1486 81.8485 39.134C82.2804 38.8873 82.7148 38.6432 83.1517 38.4017C83.1536 38.3998 83.1536 38.3998 83.1574 38.3999C86.491 36.5683 90.0067 34.999 93.6489 34.0132C93.7585 33.9835 93.8699 33.952 93.9832 33.9263C95.6274 33.491 97.3044 33.1909 98.9975 33.0288C99.9249 32.9431 100.856 32.9043 101.787 32.9127C104.194 32.9391 106.581 33.3438 108.861 34.1119C113.407 35.6439 117.412 38.6127 119.544 42.8415C119.598 42.9497 119.651 43.0561 119.704 43.1662Z" fill="#F0F0F0"/>
<path d="M119.576 43.2502C114.671 39.7868 108.799 37.9571 102.795 38.021C101.502 38.0118 100.216 38.2064 98.9835 38.5977C97.7954 39.0177 96.7415 39.7482 95.9312 40.7132C95.1576 41.5979 94.4688 42.5923 93.4937 43.2735C92.9893 43.6148 92.4186 43.8456 91.8188 43.9508C91.219 44.0561 90.6037 44.0333 90.0133 43.884C88.5326 43.5504 87.2601 42.7047 86.0444 41.8344C84.6946 40.868 83.3079 39.8429 81.6324 39.5582C81.4293 39.5237 81.4948 39.2107 81.6975 39.2451C84.6126 39.7406 86.5285 42.2962 89.2193 43.3118C90.4748 43.7857 91.8808 43.8841 93.0672 43.1695C94.1047 42.5446 94.8159 41.5197 95.5914 40.6173C96.368 39.6642 97.3662 38.9159 98.4987 38.4375C99.7071 37.9847 100.984 37.7409 102.274 37.7164C105.178 37.6149 108.079 37.9706 110.872 38.7705C114.065 39.6657 117.082 41.1005 119.791 43.0128C119.958 43.1312 119.743 43.3679 119.576 43.2502Z" fill="white"/>
<path d="M104.727 37.8867C104.853 36.8778 105.334 35.9466 106.083 35.2593C106.832 34.5721 107.801 34.1735 108.817 34.1349C109.023 34.1278 109.044 34.4469 108.838 34.454C107.892 34.4883 106.989 34.8596 106.292 35.501C105.596 36.1424 105.152 37.0116 105.04 37.9518C105.016 38.1561 104.703 38.0898 104.727 37.8867Z" fill="white"/>
<path d="M96.2644 40.2131C97.5257 41.8649 99.3633 42.9807 101.411 43.3378C101.614 43.373 101.548 43.686 101.346 43.6509C99.2158 43.2752 97.3058 42.1102 95.997 40.3884C95.8724 40.2242 96.1404 40.0498 96.2644 40.2131Z" fill="white"/>
<path d="M113.798 39.9948C113.668 40.3749 113.634 40.7815 113.7 41.1779C113.766 41.5743 113.929 41.9482 114.175 42.2659C114.302 42.4284 114.034 42.6027 113.908 42.4412C113.638 42.0889 113.458 41.6758 113.384 41.238C113.311 40.8002 113.345 40.351 113.485 39.9297C113.495 39.8888 113.52 39.8533 113.555 39.8303C113.59 39.8073 113.633 39.7985 113.674 39.8057C113.716 39.8145 113.752 39.8393 113.775 39.8747C113.798 39.9101 113.807 39.9533 113.798 39.9948Z" fill="white"/>
<path d="M92.5889 28.1509H91.9575V10.8531C91.9575 9.53833 91.6986 8.23648 91.1954 7.02183C90.6923 5.80717 89.9549 4.70351 89.0252 3.77386C88.0956 2.8442 86.9919 2.10676 85.7772 1.60364C84.5626 1.10051 83.2607 0.841553 81.946 0.841553H45.2982C43.9835 0.84155 42.6817 1.1005 41.467 1.60362C40.2523 2.10675 39.1487 2.84419 38.219 3.77384C37.2894 4.70349 36.5519 5.80715 36.0488 7.0218C35.5457 8.23645 35.2867 9.53831 35.2867 10.853V105.75C35.2867 108.405 36.3415 110.952 38.219 112.829C40.0965 114.707 42.643 115.762 45.2982 115.762H81.946C84.6012 115.762 87.1476 114.707 89.0252 112.829C90.9027 110.952 91.9575 108.405 91.9575 105.75V40.4638H92.5889V28.1509Z" fill="#3F3D56"/>
<path d="M82.3499 3.4463H77.5662C77.7862 3.98565 77.8702 4.57082 77.8107 5.15027C77.7513 5.72971 77.5503 6.28566 77.2254 6.76911C76.9005 7.25257 76.4616 7.6487 75.9476 7.92262C75.4335 8.19653 74.86 8.33983 74.2775 8.33987H53.2824C52.6999 8.33983 52.1264 8.19654 51.6123 7.92262C51.0983 7.64871 50.6595 7.25257 50.3346 6.76912C50.0096 6.28566 49.8086 5.72972 49.7492 5.15027C49.6897 4.57082 49.7737 3.98564 49.9937 3.44629H45.5257C43.5428 3.44629 41.6411 4.23399 40.239 5.6361C38.8369 7.03821 38.0492 8.93988 38.0492 10.9228V105.681C38.0492 106.663 38.2426 107.635 38.6183 108.542C38.994 109.449 39.5447 110.273 40.239 110.967C40.9333 111.662 41.7575 112.212 42.6645 112.588C43.5716 112.964 44.5439 113.157 45.5257 113.157H82.3499C83.3318 113.157 84.304 112.964 85.2111 112.588C86.1182 112.212 86.9424 111.662 87.6366 110.967C88.3309 110.273 88.8816 109.449 89.2573 108.542C89.6331 107.635 89.8264 106.663 89.8264 105.681V10.9228C89.8264 8.93987 89.0387 7.03821 87.6366 5.6361C86.2345 4.23399 84.3328 3.4463 82.3499 3.4463Z" fill="white"/>
<path d="M64.6454 82.7173C61.9337 82.7198 59.2481 82.1875 56.7424 81.151C54.2366 80.1144 51.9598 78.5939 50.0424 76.6765C48.1249 74.759 46.6044 72.4823 45.5679 69.9765C44.5313 67.4707 43.9991 64.7852 44.0016 62.0735C43.9978 58.2657 45.0486 54.5313 47.0377 51.2844C49.0267 48.0375 51.8763 45.4049 55.2702 43.6786C57.7304 42.427 60.4163 41.6804 63.1695 41.4828C65.9227 41.2852 68.6876 41.6406 71.3013 42.5281C75.9302 44.1055 79.849 47.2748 82.3595 51.4714C84.8701 55.6681 85.8096 60.6197 85.0105 65.4443C84.2115 70.2689 81.7259 74.6532 77.9964 77.8164C74.2669 80.9797 69.5357 82.7164 64.6454 82.7173ZM64.6454 42.2392C61.5136 42.23 58.4252 42.9708 55.6383 44.3997C53.2023 45.6407 51.0492 47.372 49.3141 49.4848C47.579 51.5975 46.2995 54.0462 45.5557 56.677C44.812 59.3078 44.6201 62.0639 44.9922 64.7724C45.3643 67.4809 46.2923 70.0832 47.7179 72.416C49.1436 74.7488 51.0361 76.7616 53.2766 78.3283C55.5171 79.8949 58.0574 80.9814 60.7378 81.5196C63.4182 82.0577 66.1809 82.036 68.8526 81.4557C71.5242 80.8754 74.047 79.7491 76.2626 78.1474C77.3338 77.3745 78.3243 76.4956 79.2193 75.524C81.8366 72.6921 83.5713 69.1585 84.2111 65.3558C84.8508 61.553 84.3677 57.6463 82.8211 54.1139C81.2744 50.5816 78.7312 47.5768 75.503 45.4677C72.2747 43.3586 68.5015 42.2367 64.6454 42.2392Z" fill="#F0F0F0"/>
<path d="M19.9133 43.7528C20.48 43.8238 21.0242 44.0182 21.5075 44.3224C21.9909 44.6265 22.4017 45.0329 22.7111 45.5129C23.0204 45.993 23.2207 46.535 23.2979 47.1009C23.375 47.6667 23.3272 48.2426 23.1578 48.7879L30.0167 54.5012L27.5613 59.5161L17.9886 51.3119C17.0913 50.9665 16.3518 50.3039 15.9104 49.4497C15.469 48.5956 15.3562 47.6091 15.5934 46.6774C15.8307 45.7456 16.4015 44.9333 17.1977 44.3942C17.9939 43.8552 18.9601 43.627 19.9133 43.7528Z" fill="#FFB6B6"/>
<path d="M83.9723 67.5785C83.8348 66.0999 83.2661 63.4416 82.7836 62.4587C81.3001 58.5761 71.7155 55.3851 70.4284 54.9737L70.1019 51.3442L56.7846 49.9112L55.0952 54.5527L50.3189 56.3446C49.9946 56.4655 49.7011 56.6567 49.4594 56.9044C49.2178 57.1522 49.0339 57.4503 48.921 57.7775L44.6358 59.0161L40.4072 60.2385L25.7164 49.887L25.0228 50.3403L20.3868 53.3654L19.6716 53.8322L38.6828 70.9841L45.7448 69.3272L51.0556 68.0778L51.5089 69.9182L50.3351 76.3839C53.7359 79.7859 58.2375 81.865 63.0325 82.2482C67.8274 82.6315 72.6021 81.2939 76.5001 78.4752L79.517 75.7983C81.6197 73.5247 83.1717 70.7983 84.0532 67.8295L83.9723 67.5785Z" fill="#E4E4E4"/>
<path d="M67.6275 46.9429C72.6547 45.2784 75.3807 39.8537 73.7163 34.8265C72.0518 29.7993 66.6271 27.0732 61.5999 28.7377C56.5727 30.4021 53.8466 35.8268 55.5111 40.8541C57.1755 45.8813 62.6002 48.6074 67.6275 46.9429Z" fill="#FFB6B6"/>
<path d="M57.0399 26.9091C57.972 25.5778 59.3709 24.646 60.9586 24.2988C62.5283 23.976 64.1621 24.2756 65.5151 25.1346C66.9863 24.5419 68.5726 24.1487 70.1311 24.3486C71.6896 24.5485 73.2171 25.4191 73.9382 26.8532C74.0899 27.2247 74.2739 27.5822 74.4882 27.9215C75.1236 28.7691 76.3043 28.8791 77.347 28.9198C76.8199 29.2273 76.2926 29.5347 75.7652 29.8422C76.2907 30.087 76.8162 30.3319 77.3418 30.5768C76.6265 30.8498 75.9113 31.1228 75.1962 31.3959C76.8608 32.8591 77.2634 35.4632 76.6331 37.6464C76.0364 39.7135 74.6682 41.4535 73.1405 42.9432C72.8424 41.8317 73.1703 40.6265 73.3887 39.4757C73.6192 38.2597 73.6562 36.8379 72.8048 35.9794C72.2304 35.4003 71.3879 35.2253 70.5936 35.0848C66.5865 34.3762 62.5424 33.896 58.4808 33.6466C57.9372 33.5715 57.3835 33.628 56.8663 33.8115C55.8779 34.2507 55.4808 35.4569 55.1943 36.5264C55.0571 34.6491 55.1667 32.7619 55.5204 30.913C55.7913 29.498 56.2182 28.0817 57.0399 26.9091Z" fill="#2F2E41"/>
<path d="M69.5027 92.4435H58.1689C57.7753 92.4435 57.3978 92.2871 57.1194 92.0088C56.8411 91.7304 56.6847 91.3529 56.6847 90.9593C56.6847 90.5657 56.8411 90.1881 57.1194 89.9098C57.3978 89.6315 57.7753 89.4751 58.1689 89.4751H69.5027C69.8964 89.4751 70.2739 89.6315 70.5522 89.9098C70.8306 90.1881 70.9869 90.5657 70.9869 90.9593C70.9869 91.3529 70.8306 91.7304 70.5522 92.0088C70.2739 92.2871 69.8964 92.4435 69.5027 92.4435Z" fill="#FE5D26"/>
<path d="M32.312 13.0187H1.13726C0.849982 13.0182 0.574622 12.9038 0.371648 12.7005C0.168674 12.4972 0.0546722 12.2217 0.0546722 11.9344C0.0546722 11.6471 0.168674 11.3716 0.371648 11.1683C0.574622 10.965 0.849982 10.8506 1.13726 10.8501H32.312C32.5996 10.8501 32.8753 10.9643 33.0787 11.1677C33.282 11.371 33.3963 11.6468 33.3963 11.9344C33.3963 12.222 33.282 12.4978 33.0787 12.7011C32.8753 12.9044 32.5996 13.0187 32.312 13.0187Z" fill="#FE5D26"/>
<path d="M50.3113 19.9441H1.13726C0.849709 19.9441 0.573931 19.8299 0.3706 19.6265C0.167269 19.4232 0.0530396 19.1474 0.0530396 18.8599C0.0530396 18.5723 0.167269 18.2965 0.3706 18.0932C0.573931 17.8899 0.849709 17.7756 1.13726 17.7756H50.3113C50.5988 17.7756 50.8746 17.8899 51.0779 18.0932C51.2813 18.2965 51.3955 18.5723 51.3955 18.8599C51.3955 19.1474 51.2813 19.4232 51.0779 19.6265C50.8746 19.8299 50.5988 19.9441 50.3113 19.9441Z" fill="#FE5D26"/>
<path d="M40.8616 26.4683H1.13726C0.849709 26.4683 0.573931 26.354 0.3706 26.1507C0.167269 25.9474 0.0530396 25.6716 0.0530396 25.384C0.0530396 25.0965 0.167269 24.8207 0.3706 24.6174C0.573931 24.414 0.849709 24.2998 1.13726 24.2998H40.8616C41.1491 24.2998 41.4249 24.414 41.6282 24.6174C41.8316 24.8207 41.9458 25.0965 41.9458 25.384C41.9458 25.6716 41.8316 25.9474 41.6282 26.1507C41.4249 26.354 41.1491 26.4683 40.8616 26.4683Z" fill="#CACACA"/>
<path d="M23.5375 32.9687H1.13726C0.849709 32.9687 0.573931 32.8545 0.3706 32.6512C0.167269 32.4478 0.0530396 32.1721 0.0530396 31.8845C0.0530396 31.597 0.167269 31.3212 0.3706 31.1179C0.573931 30.9145 0.849709 30.8003 1.13726 30.8003H23.5375C23.8251 30.8003 24.1009 30.9145 24.3042 31.1179C24.5075 31.3212 24.6217 31.597 24.6217 31.8845C24.6217 32.1721 24.5075 32.4478 24.3042 32.6512C24.1009 32.8545 23.8251 32.9687 23.5375 32.9687Z" fill="#CACACA"/>
<path d="M35.9119 39.4685H1.13726C0.850001 39.468 0.57467 39.3536 0.371708 39.1503C0.168746 38.9471 0.0547485 38.6715 0.0547485 38.3843C0.0547485 38.097 0.168746 37.8215 0.371708 37.6182C0.57467 37.4149 0.850001 37.3005 1.13726 37.3H35.9119C36.1992 37.3005 36.4745 37.4149 36.6775 37.6182C36.8804 37.8215 36.9944 38.097 36.9944 38.3843C36.9944 38.6715 36.8804 38.9471 36.6775 39.1503C36.4745 39.3536 36.1992 39.468 35.9119 39.4685Z" fill="#CACACA"/>
<path d="M133.917 145.544L131.122 145.544L129.793 134.767L133.917 134.767L133.917 145.544Z" fill="#9F616A"/>
<path d="M135.016 149.411L124.348 149.411V149.276C124.348 148.175 124.786 147.119 125.565 146.34C126.343 145.561 127.399 145.124 128.5 145.124H128.501L130.449 143.646L134.085 145.124L135.016 145.124L135.016 149.411Z" fill="#2F2E41"/>
<path d="M132.289 94.8926L131.056 79.8674L130.088 74.2278L135.508 73.0308L137.307 80.7517L135.74 95.3096C136.056 95.6969 136.249 96.1699 136.294 96.6678C136.339 97.1657 136.235 97.6657 135.994 98.1037C135.753 98.5416 135.386 98.8975 134.941 99.1255C134.496 99.3536 133.993 99.4434 133.497 99.3834C133.001 99.3235 132.533 99.1165 132.156 98.789C131.778 98.4616 131.507 98.0287 131.377 97.5459C131.247 97.0631 131.264 96.5526 131.427 96.0798C131.589 95.607 131.889 95.1935 132.289 94.8926Z" fill="#9F616A"/>
<path d="M119.075 145.544L116.281 145.544L114.951 134.767L119.075 134.767L119.075 145.544Z" fill="#9F616A"/>
<path d="M114.603 98.2987L113.364 100.441C113.364 100.441 112.003 100.813 112.448 105.25C112.893 109.686 112.912 135.973 115.065 139.207L115.455 141.985L119.521 142.373L119.623 139.909L124.471 105.668C124.471 105.668 127.326 139.281 129.688 140.104L130.541 142.904L134.268 142.906L134.048 139.606L134.288 97.9514L114.603 98.2987Z" fill="#2F2E41"/>
<path d="M113.241 100.278L113.155 100.256C115.712 90.6936 114.975 78.3109 113.169 65.0142L113.169 64.9591L119.695 58.9817H125.362L130.98 62.6071C134.612 64.423 135.437 68.2684 135.445 68.3072L135.451 68.3345L133.226 76.102L134.902 98.5655L134.904 98.5915L134.894 98.6158C134.352 99.9914 132.898 99.7955 131.215 99.5686C129.534 99.342 123.341 101.414 121.442 101.414C117.732 101.414 113.506 100.346 113.241 100.278Z" fill="#FE5D26"/>
<path d="M129.804 65.6345L132.238 64.5754L135.446 68.508L138.046 81.1095L129.14 79.7602L129.804 65.6345Z" fill="#FE5D26"/>
<path d="M92.3591 88.872L103.488 78.7025L107.356 74.4856L111.62 78.0398L106.614 84.1872L94.1414 91.8568C94.0285 92.3439 93.7726 92.786 93.4065 93.1265C93.0404 93.4669 92.5808 93.6901 92.0869 93.7674C91.593 93.8447 91.0872 93.7726 90.6346 93.5603C90.1819 93.348 89.8031 93.0052 89.5468 92.5759C89.2905 92.1467 89.1684 91.6506 89.1961 91.1515C89.2239 90.6523 89.4002 90.1728 89.7026 89.7746C90.0049 89.3765 90.4194 89.0778 90.8927 88.9169C91.3661 88.7561 91.8767 88.7405 92.3591 88.872Z" fill="#9F616A"/>
<path d="M103.246 78.8131L106.328 74.8103C106.354 74.7529 108.911 69.0381 111.128 66.5551C113.402 64.008 115.192 65.3106 115.21 65.3246L115.254 65.3582L115.378 74.7644L106.843 84.9626L103.246 78.8131Z" fill="#FE5D26"/>
<path d="M127.095 53.3514C127.554 50.5194 125.631 47.851 122.799 47.3915C119.967 46.9319 117.299 48.8551 116.839 51.6871C116.38 54.5191 118.303 57.1875 121.135 57.6471C123.967 58.1066 126.635 56.1834 127.095 53.3514Z" fill="#9F616A"/>
<path d="M117.218 51.7481C117.218 51.7481 117.176 49.9219 116.945 49.1138C116.714 48.3057 116.252 47.613 116.483 47.613C116.714 47.613 116.83 47.0358 116.83 47.0358C116.83 47.0358 117.061 46.9204 117.176 47.0358C117.291 47.1513 117.407 46.2277 117.407 46.2277C117.407 46.2277 117.522 45.8814 117.638 46.1123C117.753 46.3432 117.753 46.2277 117.869 45.8814C117.984 45.5351 118.561 45.3042 118.561 45.3042C118.561 45.3042 120.755 45.4196 121.101 44.9579C121.447 44.4961 125.372 44.8424 126.18 45.4196C126.989 45.9968 130.567 48.0748 129.99 49.8064C129.413 51.5381 127.751 55.5251 127.335 55.9248C126.676 56.557 126.221 56.7849 123.105 57.4048C122.495 57.5261 119.383 55.5358 119.383 55.1895C119.383 54.8432 119.758 53.7449 119.155 53.5941C118.244 53.3662 118.141 54.5188 117.91 54.1724C117.679 53.8261 117.218 51.7481 117.218 51.7481Z" fill="#2F2E41"/>
<path d="M120.174 149.411L109.506 149.411V149.276C109.506 148.175 109.944 147.119 110.723 146.34C111.501 145.561 112.557 145.124 113.658 145.124H113.659L115.607 143.646L119.243 145.124L120.174 145.124L120.174 149.411Z" fill="#2F2E41"/>
<path d="M175.626 149.615H0.951099C0.865882 149.615 0.784161 149.581 0.723904 149.52C0.663647 149.46 0.629791 149.378 0.629791 149.293C0.629791 149.208 0.663647 149.126 0.723904 149.066C0.784161 149.006 0.865882 148.972 0.951099 148.972H175.626C175.711 148.972 175.793 149.006 175.853 149.066C175.913 149.126 175.947 149.208 175.947 149.293C175.947 149.378 175.913 149.46 175.853 149.52C175.793 149.581 175.711 149.615 175.626 149.615Z" fill="#CACACA"/>
</g>
<defs>
<clipPath id="clip0_603_1171">
<rect width="175.894" height="148.773" fill="white" transform="translate(0.0530396 0.841553)"/>
</clipPath>
</defs>
</svg>
