<svg width="113" height="118" viewBox="0 0 113 118" fill="none" xmlns="http://www.w3.org/2000/svg">
<g filter="url(#filter0_dd_748_1067)">
<path d="M73.7497 70.2086H56.8692C56.4613 69.063 55.8036 68.0226 54.9437 67.1627C54.0839 66.3029 53.0434 65.6452 51.8979 65.2373V56.5512H71.0182C71.7427 56.5512 72.4374 56.2634 72.9497 55.7511C73.4619 55.2389 73.7497 54.5441 73.7497 53.8197C73.7497 53.0953 73.4619 52.4005 72.9497 51.8883C72.4374 51.376 71.7427 51.0882 71.0182 51.0882H68.2868V34.6993C68.2867 32.526 67.4234 30.4417 65.8867 28.905C64.3499 27.3682 62.2656 26.5049 60.0923 26.5049H38.2405C36.0672 26.5049 33.9829 27.3682 32.4461 28.905C30.9093 30.4417 30.046 32.526 30.046 34.6993V51.0882H27.3145C26.5901 51.0882 25.8953 51.376 25.3831 51.8883C24.8708 52.4005 24.583 53.0953 24.583 53.8197C24.583 54.5441 24.8708 55.2389 25.3831 55.7511C25.8953 56.2634 26.5901 56.5512 27.3145 56.5512H46.4349V65.2373C45.2893 65.6452 44.2489 66.3029 43.389 67.1627C42.5292 68.0226 41.8715 69.063 41.4636 70.2086H24.583C23.8586 70.2086 23.1638 70.4964 22.6516 71.0086C22.1393 71.5209 21.8516 72.2156 21.8516 72.9401C21.8516 73.6645 22.1393 74.3593 22.6516 74.8715C23.1638 75.3838 23.8586 75.6716 24.583 75.6716H41.4636C42.0378 77.2535 43.0851 78.6203 44.4632 79.5862C45.8413 80.5521 47.4835 81.0703 49.1664 81.0703C50.8493 81.0703 52.4914 80.5521 53.8695 79.5862C55.2477 78.6203 56.295 77.2535 56.8692 75.6716H73.7497C74.4741 75.6716 75.1689 75.3838 75.6812 74.8715C76.1934 74.3593 76.4812 73.6645 76.4812 72.9401C76.4812 72.2156 76.1934 71.5209 75.6812 71.0086C75.1689 70.4964 74.4741 70.2086 73.7497 70.2086ZM35.509 51.0882V34.6993C35.509 33.9749 35.7968 33.2801 36.309 32.7679C36.8213 32.2556 37.516 31.9678 38.2405 31.9678H60.0923C60.8167 31.9678 61.5115 32.2556 62.0238 32.7679C62.536 33.2801 62.8238 33.9749 62.8238 34.6993V51.0882H35.509ZM49.1664 75.6716C48.6261 75.6716 48.098 75.5114 47.6488 75.2112C47.1997 74.9111 46.8496 74.4845 46.6428 73.9854C46.4361 73.4862 46.382 72.937 46.4874 72.4072C46.5928 71.8773 46.8529 71.3906 47.2349 71.0086C47.6169 70.6266 48.1036 70.3665 48.6335 70.2611C49.1633 70.1557 49.7126 70.2098 50.2117 70.4165C50.7108 70.6232 51.1374 70.9733 51.4375 71.4225C51.7377 71.8717 51.8979 72.3998 51.8979 72.9401C51.8979 73.6645 51.6101 74.3593 51.0978 74.8715C50.5856 75.3838 49.8908 75.6716 49.1664 75.6716Z" fill="#4280EF"/>
</g>
<defs>
<filter id="filter0_dd_748_1067" x="-23.6113" y="-18.958" width="141.556" height="141.556" filterUnits="userSpaceOnUse" color-interpolation-filters="sRGB">
<feFlood flood-opacity="0" result="BackgroundImageFix"/>
<feColorMatrix in="SourceAlpha" type="matrix" values="0 0 0 0 0 0 0 0 0 0 0 0 0 0 0 0 0 0 127 0" result="hardAlpha"/>
<feOffset dx="4" dy="4"/>
<feGaussianBlur stdDeviation="15"/>
<feComposite in2="hardAlpha" operator="out"/>
<feColorMatrix type="matrix" values="0 0 0 0 0.423529 0 0 0 0 0.388235 0 0 0 0 1 0 0 0 0.5 0"/>
<feBlend mode="normal" in2="BackgroundImageFix" result="effect1_dropShadow_748_1067"/>
<feColorMatrix in="SourceAlpha" type="matrix" values="0 0 0 0 0 0 0 0 0 0 0 0 0 0 0 0 0 0 127 0" result="hardAlpha"/>
<feOffset dx="-2" dy="-2"/>
<feGaussianBlur stdDeviation="19"/>
<feComposite in2="hardAlpha" operator="out"/>
<feColorMatrix type="matrix" values="0 0 0 0 0.423529 0 0 0 0 0.388235 0 0 0 0 1 0 0 0 0.4 0"/>
<feBlend mode="normal" in2="effect1_dropShadow_748_1067" result="effect2_dropShadow_748_1067"/>
<feBlend mode="normal" in="SourceGraphic" in2="effect2_dropShadow_748_1067" result="shape"/>
</filter>
</defs>
</svg>
