<svg width="111" height="112" viewBox="0 0 111 112" fill="none" xmlns="http://www.w3.org/2000/svg">
<g filter="url(#filter0_dd_748_1509)">
<path d="M36.9954 66.3735C35.4348 67.6864 33.8023 68.2746 32.0978 68.1381C30.3934 68.0015 28.9257 67.4188 27.6947 66.3899C26.4637 65.361 25.6324 64.0117 25.2008 62.3418C24.7729 60.6738 25.0788 58.9748 26.1186 57.2449L31.4505 48.4086C30.3469 47.5837 29.4647 46.5348 28.8036 45.2619C28.1445 43.9927 27.8149 42.6087 27.8149 41.11C27.8149 38.5607 28.7008 36.3991 30.4726 34.6255C32.2444 32.8537 34.405 31.9678 36.9544 31.9678C39.5038 31.9678 41.6644 32.8537 43.4362 34.6255C45.208 36.3973 46.0939 38.5579 46.0939 41.1073C46.0939 43.6567 45.2089 45.8182 43.4389 47.5918C41.6689 49.3655 39.5083 50.2514 36.9571 50.2496C36.4072 50.2496 35.8755 50.2095 35.3619 50.1294C34.8484 50.0493 34.3568 49.9109 33.8869 49.7142L28.4704 58.6953C27.8294 59.7606 27.6346 60.8058 27.8859 61.8311C28.1372 62.8563 28.647 63.6885 29.4155 64.3276C30.184 64.9668 31.0999 65.331 32.1634 65.4202C33.2268 65.504 34.2511 65.1398 35.2363 64.3276L62.3927 41.2521C63.9187 39.9391 65.5193 39.3446 67.1946 39.4684C68.8681 39.5922 70.3386 40.1695 71.606 41.2002C72.8734 42.229 73.7365 43.5775 74.1954 45.2455C74.6543 46.9135 74.3465 48.6307 73.2722 50.3971L67.883 59.2826C68.9865 60.1093 69.8687 61.1491 70.5298 62.4019C71.1908 63.6548 71.5204 65.0314 71.5186 66.5319C71.5186 69.0813 70.6235 71.2419 68.8335 73.0137C67.0453 74.7856 64.8756 75.6715 62.3244 75.6715C59.8114 75.6715 57.669 74.7765 55.8972 72.9864C54.1254 71.1964 53.2395 69.0449 53.2395 66.5319C53.2395 64.019 54.1254 61.8675 55.8972 60.0775C57.669 58.2874 59.8114 57.3924 62.3244 57.3924C62.8743 57.3924 63.4133 57.4416 63.9414 57.5399C64.4695 57.6382 64.9676 57.7848 65.4356 57.9797L70.8685 48.9467C71.5076 47.8814 71.7098 46.8361 71.4748 45.8109C71.2399 44.7857 70.7392 43.9535 69.9725 43.3143C69.2077 42.6734 68.2927 42.301 67.2274 42.1972C66.1621 42.0934 65.1378 42.4658 64.1545 43.3143L36.9954 66.3735Z" fill="#4280EF"/>
</g>
<defs>
<filter id="filter0_dd_748_1509" x="-23.1113" y="-18.958" width="141.556" height="141.556" filterUnits="userSpaceOnUse" color-interpolation-filters="sRGB">
<feFlood flood-opacity="0" result="BackgroundImageFix"/>
<feColorMatrix in="SourceAlpha" type="matrix" values="0 0 0 0 0 0 0 0 0 0 0 0 0 0 0 0 0 0 127 0" result="hardAlpha"/>
<feOffset dx="4" dy="4"/>
<feGaussianBlur stdDeviation="15"/>
<feComposite in2="hardAlpha" operator="out"/>
<feColorMatrix type="matrix" values="0 0 0 0 0.423529 0 0 0 0 0.388235 0 0 0 0 1 0 0 0 0.5 0"/>
<feBlend mode="normal" in2="BackgroundImageFix" result="effect1_dropShadow_748_1509"/>
<feColorMatrix in="SourceAlpha" type="matrix" values="0 0 0 0 0 0 0 0 0 0 0 0 0 0 0 0 0 0 127 0" result="hardAlpha"/>
<feOffset dx="-2" dy="-2"/>
<feGaussianBlur stdDeviation="19"/>
<feComposite in2="hardAlpha" operator="out"/>
<feColorMatrix type="matrix" values="0 0 0 0 0.423529 0 0 0 0 0.388235 0 0 0 0 1 0 0 0 0.4 0"/>
<feBlend mode="normal" in2="effect1_dropShadow_748_1509" result="effect2_dropShadow_748_1509"/>
<feBlend mode="normal" in="SourceGraphic" in2="effect2_dropShadow_748_1509" result="shape"/>
</filter>
</defs>
</svg>
