<svg width="116" height="123" viewBox="0 0 116 123" fill="none" xmlns="http://www.w3.org/2000/svg">
<g filter="url(#filter0_dd_748_1986)">
<path d="M73.7498 48.3567C64.871 48.8716 56.3319 51.9495 49.1664 57.2176C42.0009 51.9495 33.4618 48.8716 24.5831 48.3567V56.4418C23.1318 56.4447 21.7411 57.0239 20.7166 58.0519C19.6922 59.0799 19.1179 60.4726 19.1201 61.9239V64.6663C19.1201 67.6956 24.5831 70.6975 24.5831 70.6975V76.1795C31.8379 76.6464 38.8344 79.0518 44.8425 83.1448C46.3599 84.1969 47.8046 85.3504 49.1664 86.5974C50.5283 85.3504 51.9729 84.1969 53.4904 83.1448C59.4985 79.0518 66.495 76.6464 73.7498 76.1795V70.1484C75.201 70.1455 76.5918 69.5664 77.6162 68.5384C78.6406 67.5104 79.2149 66.1176 79.2127 64.6663V61.9239C79.2149 60.4726 78.6406 59.0799 77.6162 58.0519C76.5918 57.0239 75.201 56.4447 73.7498 56.4418V48.3567ZM49.1664 79.5556C43.5013 75.4038 36.9607 72.6044 30.0461 71.3721V54.5735C35.3453 55.6411 40.3767 57.7606 44.8425 60.8068C46.3599 61.8589 47.8046 63.0124 49.1664 64.2593C50.5283 63.0124 51.9729 61.8589 53.4904 60.8068C57.9559 57.7597 62.9873 55.6392 68.2868 54.5708V71.3721C61.3721 72.6044 54.8315 75.4038 49.1664 79.5556ZM46.4349 42.8937H51.8979V45.6252H46.4349V42.8937ZM46.4349 31.9678H51.8979V34.6993H46.4349V31.9678Z" fill="#4280EF"/>
<path d="M46.4347 48.3568H51.8977V51.0883H46.4347V48.3568ZM40.9718 34.6994C41.6962 34.6994 42.391 34.4116 42.9032 33.8994C43.4155 33.3871 43.7033 32.6923 43.7033 31.9679C43.7058 31.6121 43.6376 31.2593 43.5026 30.9301C43.3676 30.6008 43.1685 30.3017 42.9169 30.0501C42.6653 29.7985 42.3662 29.5994 42.0369 29.4644C41.7077 29.3294 41.3549 29.2612 40.9991 29.2637C40.6422 29.2619 40.2884 29.3305 39.958 29.4654C39.6276 29.6003 39.3269 29.799 39.0733 30.0501C38.561 30.5572 38.2712 31.2471 38.2676 31.9679C38.264 32.6887 38.5469 33.3814 39.054 33.8937C39.5611 34.406 40.251 34.6958 40.9718 34.6994Z" fill="#4280EF"/>
<path d="M57.3614 34.6993C58.8699 34.6993 60.0928 33.4764 60.0928 31.9678C60.0928 30.4593 58.8699 29.2363 57.3614 29.2363C55.8528 29.2363 54.6299 30.4593 54.6299 31.9678C54.6299 33.4764 55.8528 34.6993 57.3614 34.6993Z" fill="#4280EF"/>
<path d="M60.0922 42.8938H38.2403C36.0677 42.8917 33.9847 42.0276 32.4484 40.4914C30.9121 38.9551 30.0481 36.872 30.0459 34.6994V29.2364C30.0481 27.0638 30.9121 24.9808 32.4484 23.4445C33.9847 21.9082 36.0677 21.0442 38.2403 21.042H60.0922C62.2648 21.0442 64.3479 21.9082 65.8841 23.4445C67.4204 24.9808 68.2845 27.0638 68.2866 29.2364V34.6994C68.2845 36.872 67.4204 38.9551 65.8841 40.4914C64.3479 42.0276 62.2648 42.8917 60.0922 42.8938ZM38.2403 26.505C37.5159 26.505 36.8211 26.7927 36.3089 27.305C35.7966 27.8172 35.5089 28.512 35.5089 29.2364V34.6994C35.5089 35.4238 35.7966 36.1186 36.3089 36.6308C36.8211 37.1431 37.5159 37.4309 38.2403 37.4309H60.0922C60.8166 37.4309 61.5114 37.1431 62.0236 36.6308C62.5359 36.1186 62.8237 35.4238 62.8237 34.6994V29.2364C62.8237 28.512 62.5359 27.8172 62.0236 27.305C61.5114 26.7927 60.8166 26.505 60.0922 26.505H38.2403Z" fill="#4280EF"/>
</g>
<defs>
<filter id="filter0_dd_748_1986" x="-23.6113" y="-18.958" width="141.556" height="141.556" filterUnits="userSpaceOnUse" color-interpolation-filters="sRGB">
<feFlood flood-opacity="0" result="BackgroundImageFix"/>
<feColorMatrix in="SourceAlpha" type="matrix" values="0 0 0 0 0 0 0 0 0 0 0 0 0 0 0 0 0 0 127 0" result="hardAlpha"/>
<feOffset dx="4" dy="4"/>
<feGaussianBlur stdDeviation="15"/>
<feComposite in2="hardAlpha" operator="out"/>
<feColorMatrix type="matrix" values="0 0 0 0 0.423529 0 0 0 0 0.388235 0 0 0 0 1 0 0 0 0.5 0"/>
<feBlend mode="normal" in2="BackgroundImageFix" result="effect1_dropShadow_748_1986"/>
<feColorMatrix in="SourceAlpha" type="matrix" values="0 0 0 0 0 0 0 0 0 0 0 0 0 0 0 0 0 0 127 0" result="hardAlpha"/>
<feOffset dx="-2" dy="-2"/>
<feGaussianBlur stdDeviation="19"/>
<feComposite in2="hardAlpha" operator="out"/>
<feColorMatrix type="matrix" values="0 0 0 0 0.423529 0 0 0 0 0.388235 0 0 0 0 1 0 0 0 0.4 0"/>
<feBlend mode="normal" in2="effect1_dropShadow_748_1986" result="effect2_dropShadow_748_1986"/>
<feBlend mode="normal" in="SourceGraphic" in2="effect2_dropShadow_748_1986" result="shape"/>
</filter>
</defs>
</svg>
