<svg width="115" height="119" viewBox="0 0 115 119" fill="none" xmlns="http://www.w3.org/2000/svg">
<g filter="url(#filter0_dd_748_1823)">
<path d="M49.6667 72.2571C47.3003 72.2592 44.9703 71.6748 42.885 70.5562C40.7998 69.4376 39.0242 67.8196 37.7171 65.847L41.1301 63.5792C42.0644 64.9881 43.3329 66.1438 44.8224 66.9433C46.3119 67.7428 47.9762 68.1612 49.6667 68.1612C51.3572 68.1612 53.0214 67.7428 54.5109 66.9433C56.0005 66.1438 57.2689 64.9881 58.2032 63.5792L61.6162 65.847C60.3091 67.8196 58.5336 69.4376 56.4483 70.5562C54.363 71.6748 52.033 72.2592 49.6667 72.2571ZM57.8611 49.7224C57.0508 49.7224 56.2586 49.9627 55.5848 50.4129C54.911 50.8631 54.3859 51.503 54.0758 52.2517C53.7657 53.0003 53.6845 53.8241 53.8426 54.6189C54.0007 55.4137 54.3909 56.1438 54.9639 56.7168C55.5369 57.2898 56.267 57.68 57.0618 57.8381C57.8566 57.9962 58.6804 57.915 59.4291 57.6049C60.1777 57.2948 60.8176 56.7697 61.2678 56.0959C61.718 55.4221 61.9583 54.63 61.9583 53.8196C61.9638 53.28 61.8616 52.7448 61.6576 52.2452C61.4537 51.7456 61.1521 51.2918 60.7705 50.9102C60.3889 50.5287 59.9351 50.2271 59.4355 50.0231C58.9359 49.8191 58.4007 49.7169 57.8611 49.7224ZM41.4722 49.7224C40.6619 49.7224 39.8697 49.9627 39.1959 50.4129C38.5221 50.8631 37.997 51.503 37.6869 52.2517C37.3768 53.0003 37.2956 53.8241 37.4537 54.6189C37.6118 55.4137 38.002 56.1438 38.5751 56.7168C39.1481 57.2898 39.8781 57.68 40.6729 57.8381C41.4677 57.9962 42.2915 57.915 43.0402 57.6049C43.7888 57.2948 44.4287 56.7697 44.8789 56.0959C45.3291 55.4221 45.5694 54.63 45.5694 53.8196C45.5749 53.28 45.4727 52.7448 45.2687 52.2452C45.0648 51.7456 44.7632 51.2918 44.3816 50.9102C44.0001 50.5287 43.5462 50.2271 43.0466 50.0231C42.5471 49.8191 42.0118 49.7169 41.4722 49.7224Z" fill="#4280EF"/>
<path d="M78.3474 53.8197V49.7225H74.2502V41.528C74.2475 39.3556 73.3833 37.2729 71.8471 35.7367C70.311 34.2005 68.2282 33.3363 66.0558 33.3336H61.9585V25.1392H57.8613V33.3336H41.4724V25.1392H37.3752V33.3336H33.278C31.1055 33.3363 29.0228 34.2005 27.4866 35.7367C25.9505 37.2729 25.0863 39.3556 25.0836 41.528V49.7225H20.9863V53.8197H25.0836V64.0628H20.9863V68.16H25.0836V74.3058C25.0863 76.4783 25.9505 78.561 27.4866 80.0972C29.0228 81.6334 31.1055 82.4976 33.278 82.5003H66.0558C68.2282 82.4976 70.311 81.6334 71.8471 80.0972C73.3833 78.561 74.2475 76.4783 74.2502 74.3058V68.16H78.3474V64.0628H74.2502V53.8197H78.3474ZM70.153 74.3058C70.153 75.3925 69.7213 76.4346 68.9529 77.203C68.1846 77.9714 67.1424 78.403 66.0558 78.403H33.278C32.1913 78.403 31.1492 77.9714 30.3808 77.203C29.6124 76.4346 29.1808 75.3925 29.1808 74.3058V41.528C29.1808 40.4414 29.6124 39.3993 30.3808 38.6309C31.1492 37.8625 32.1913 37.4308 33.278 37.4308H66.0558C67.1424 37.4308 68.1846 37.8625 68.9529 38.6309C69.7213 39.3993 70.153 40.4414 70.153 41.528V74.3058Z" fill="#4280EF"/>
</g>
<defs>
<filter id="filter0_dd_748_1823" x="-23.1113" y="-18.958" width="141.556" height="141.556" filterUnits="userSpaceOnUse" color-interpolation-filters="sRGB">
<feFlood flood-opacity="0" result="BackgroundImageFix"/>
<feColorMatrix in="SourceAlpha" type="matrix" values="0 0 0 0 0 0 0 0 0 0 0 0 0 0 0 0 0 0 127 0" result="hardAlpha"/>
<feOffset dx="4" dy="4"/>
<feGaussianBlur stdDeviation="15"/>
<feComposite in2="hardAlpha" operator="out"/>
<feColorMatrix type="matrix" values="0 0 0 0 0.423529 0 0 0 0 0.388235 0 0 0 0 1 0 0 0 0.5 0"/>
<feBlend mode="normal" in2="BackgroundImageFix" result="effect1_dropShadow_748_1823"/>
<feColorMatrix in="SourceAlpha" type="matrix" values="0 0 0 0 0 0 0 0 0 0 0 0 0 0 0 0 0 0 127 0" result="hardAlpha"/>
<feOffset dx="-2" dy="-2"/>
<feGaussianBlur stdDeviation="19"/>
<feComposite in2="hardAlpha" operator="out"/>
<feColorMatrix type="matrix" values="0 0 0 0 0.423529 0 0 0 0 0.388235 0 0 0 0 1 0 0 0 0.4 0"/>
<feBlend mode="normal" in2="effect1_dropShadow_748_1823" result="effect2_dropShadow_748_1823"/>
<feBlend mode="normal" in="SourceGraphic" in2="effect2_dropShadow_748_1823" result="shape"/>
</filter>
</defs>
</svg>
