<svg width="40" height="40" viewBox="0 0 40 40" fill="none" xmlns="http://www.w3.org/2000/svg">
<path d="M10 5V10H5V5H10ZM2.5 2.5V12.5H12.5V2.5H2.5ZM22.5 8.75V13.75H17.5V8.75H22.5ZM15 6.25V16.25H25V6.25H15ZM10 20V25H5V20H10ZM2.5 17.5V27.5H12.5V17.5H2.5Z" fill="url(#paint0_linear_805_882)"/>
<path d="M27.5 12.5V20H20V27.5H12.5V37.5H37.5V12.5H27.5ZM22.5 22.5H27.5V27.5H22.5V22.5ZM20 35H15V30H20V35ZM27.5 35H22.5V30H27.5V35ZM35 35H30V30H35V35ZM35 27.5H30V22.5H35V27.5ZM30 20V15H35V20H30Z" fill="#FE5D26"/>
<defs>
<linearGradient id="paint0_linear_805_882" x1="2.5" y1="15" x2="25" y2="15" gradientUnits="userSpaceOnUse">
<stop stop-color="#EFCDBB"/>
<stop offset="0.5" stop-color="#DAB8A4"/>
<stop offset="1" stop-color="#A3735E"/>
</linearGradient>
</defs>
</svg>
