<svg width="33" height="33" viewBox="0 0 33 33" fill="none" xmlns="http://www.w3.org/2000/svg">
<path d="M25.4567 16.0138L22.2817 25.5405C22.2308 25.6929 22.1439 25.8307 22.0285 25.9424C21.913 26.0541 21.7723 26.1364 21.6183 26.1822L2.155 31.9688C1.97965 32.0209 1.79338 32.0239 1.61645 31.9775C1.43953 31.931 1.27872 31.837 1.15155 31.7055C1.02437 31.574 0.93569 31.4102 0.895159 31.2318C0.854627 31.0534 0.863797 30.8674 0.921669 30.6938L7.24167 11.7372C7.28696 11.6011 7.36101 11.4763 7.45879 11.3713C7.55656 11.2664 7.67578 11.1837 7.80834 11.1288L16.7867 7.43217C16.9692 7.35679 17.17 7.33713 17.3636 7.37569C17.5573 7.41425 17.7353 7.50929 17.875 7.64884L25.215 14.9905C25.3463 15.1218 25.4385 15.2871 25.4812 15.4678C25.5239 15.6486 25.5154 15.8376 25.4567 16.0138ZM1.49334 31.3372L12.1 20.7305L1.49334 31.3372Z" fill="url(#paint0_linear_805_657)"/>
<path d="M1.49334 31.3372L12.1 20.7305M25.4567 16.0138L22.2817 25.5405C22.2308 25.6929 22.1439 25.8307 22.0285 25.9424C21.913 26.0541 21.7723 26.1364 21.6183 26.1822L2.155 31.9688C1.97965 32.0209 1.79338 32.0239 1.61645 31.9775C1.43953 31.931 1.27872 31.837 1.15155 31.7055C1.02437 31.574 0.93569 31.4102 0.895159 31.2318C0.854627 31.0534 0.863797 30.8674 0.921669 30.6938L7.24167 11.7372C7.28696 11.6011 7.36101 11.4763 7.45879 11.3713C7.55656 11.2664 7.67578 11.1837 7.80834 11.1288L16.7867 7.43217C16.9692 7.35679 17.17 7.33713 17.3636 7.37569C17.5573 7.41425 17.7353 7.50929 17.875 7.64884L25.215 14.9905C25.3463 15.1218 25.4385 15.2871 25.4812 15.4678C25.5239 15.6486 25.5154 15.8376 25.4567 16.0138Z" stroke="black" stroke-width="1.5" stroke-linecap="round" stroke-linejoin="round"/>
<path d="M26.6717 2.30376L30.6117 6.24376C30.9077 6.52703 31.1443 6.86658 31.3073 7.2425C31.4704 7.61841 31.5567 8.02311 31.5612 8.43285C31.5658 8.84258 31.4884 9.24909 31.3337 9.62852C31.179 10.0079 30.95 10.3527 30.6603 10.6424C30.3706 10.9321 30.0259 11.1611 29.6464 11.3158C29.267 11.4705 28.8605 11.5479 28.4507 11.5433C28.041 11.5388 27.6363 11.4525 27.2604 11.2894C26.8845 11.1264 26.5449 10.8898 26.2617 10.5938L22.32 6.65376C21.764 6.07267 21.4577 5.297 21.4666 4.49285C21.4755 3.68869 21.7989 2.91999 22.3676 2.35133C22.9362 1.78267 23.7049 1.45927 24.5091 1.45038C25.3132 1.44149 26.0906 1.74782 26.6717 2.30376Z" fill="#FE5D26" stroke="black" stroke-width="1.5" stroke-linecap="round" stroke-linejoin="round"/>
<path d="M15.635 17.1939C15.4044 16.9551 15.1285 16.7647 14.8235 16.6336C14.5185 16.5026 14.1905 16.4336 13.8585 16.4308C13.5266 16.4279 13.1974 16.4911 12.8901 16.6168C12.5829 16.7425 12.3038 16.9282 12.069 17.1629C11.8343 17.3976 11.6487 17.6768 11.523 17.984C11.3973 18.2912 11.334 18.6204 11.3369 18.9524C11.3398 19.2843 11.4087 19.6124 11.5398 19.9174C11.6708 20.2224 11.8612 20.4983 12.1 20.7289C12.5715 21.1843 13.203 21.4363 13.8585 21.4306C14.514 21.4249 15.141 21.162 15.6046 20.6984C16.0681 20.2349 16.331 19.6079 16.3367 18.9524C16.3424 18.2969 16.0904 17.6654 15.635 17.1939Z" stroke="black" stroke-width="1.5" stroke-linecap="round" stroke-linejoin="round"/>
<defs>
<linearGradient id="paint0_linear_805_657" x1="0.8703" y1="19.6833" x2="25.508" y2="19.6833" gradientUnits="userSpaceOnUse">
<stop stop-color="#EFCDBB"/>
<stop offset="0.5" stop-color="#DAB8A4"/>
<stop offset="1" stop-color="#A3735E"/>
</linearGradient>
</defs>
</svg>
