<svg width="40" height="40" viewBox="0 0 40 40" fill="none" xmlns="http://www.w3.org/2000/svg">
<path d="M27.1433 5H12.8567C11.28 5 10 6.34333 10 8V32C10 33.6567 11.28 35 12.8567 35H27.1433C28.7217 35 30 33.6567 30 32V8C30 6.34333 28.7217 5 27.1433 5ZM17.5 10H22.5H17.5Z" fill="url(#paint0_linear_805_46)"/>
<path d="M17.5 10H22.5M27.1433 5H12.8567C11.28 5 10 6.34333 10 8V32C10 33.6567 11.28 35 12.8567 35H27.1433C28.7217 35 30 33.6567 30 32V8C30 6.34333 28.7217 5 27.1433 5Z" stroke="#FE5D26" stroke-width="1.5" stroke-linecap="round" stroke-linejoin="round"/>
<defs>
<linearGradient id="paint0_linear_805_46" x1="10" y1="20" x2="30" y2="20" gradientUnits="userSpaceOnUse">
<stop stop-color="#EFCDBB"/>
<stop offset="0.5" stop-color="#DAB8A4"/>
<stop offset="1" stop-color="#A3735E"/>
</linearGradient>
</defs>
</svg>
