<svg width="40" height="40" viewBox="0 0 40 40" fill="none" xmlns="http://www.w3.org/2000/svg">
<mask id="path-1-inside-1_805_910" fill="white">
<path d="M14.1333 26.6333V24.9667H16.9583C16.8839 25.2444 16.8256 25.5172 16.7833 25.785C16.7422 26.0517 16.7172 26.335 16.7083 26.635L14.1333 26.6333ZM13.9117 35C11.9061 35 10.1972 34.3106 8.785 32.9317C7.37278 31.5528 6.66667 29.87 6.66667 27.8833V12.7567C5.9 12.7567 5.24889 12.4944 4.71334 11.97C4.17778 11.4444 3.91 10.7983 3.91 10.0317V7.75667C3.91 6.99 4.17778 6.33889 4.71334 5.80333C5.24889 5.26778 5.9 5 6.66667 5H21.1217C21.8883 5 22.545 5.26778 23.0917 5.80333C23.6372 6.33778 23.91 6.98889 23.91 7.75667V10.0317C23.91 10.7983 23.6372 11.4444 23.0917 11.97C22.545 12.4944 21.8883 12.7567 21.1217 12.7567V18.985C20.8606 19.1661 20.6178 19.3583 20.3933 19.5617C20.1689 19.765 19.9556 19.9861 19.7533 20.225H14.135V18.5583H19.455V12.7567H8.33334V27.885C8.33334 29.4228 8.87778 30.7156 9.96667 31.7633C11.0556 32.8111 12.3706 33.3344 13.9117 33.3333C14.6383 33.3333 15.3156 33.2061 15.9433 32.9517C16.57 32.6972 17.13 32.3472 17.6233 31.9017C17.7389 32.1794 17.8661 32.4344 18.005 32.6667C18.1439 32.8989 18.3011 33.1339 18.4767 33.3717C17.8545 33.8806 17.1589 34.2789 16.39 34.5667C15.6211 34.8556 14.795 35 13.9117 35ZM26.9567 32.18C28.2522 32.18 29.3561 31.7233 30.2683 30.81C31.1794 29.8989 31.635 28.7956 31.635 27.5C31.635 26.2044 31.1794 25.1011 30.2683 24.19C29.3561 23.2767 28.2522 22.82 26.9567 22.82C25.6622 22.82 24.5589 23.2767 23.6467 24.19C22.7344 25.1011 22.2783 26.2044 22.2783 27.5C22.2783 28.7956 22.7339 29.8994 23.645 30.8117C24.5561 31.7239 25.66 32.1794 26.9567 32.1783M35.4567 37.1483L30.8283 32.52C30.2606 32.9511 29.6483 33.28 28.9917 33.5067C28.3361 33.7333 27.6578 33.8467 26.9567 33.8467C25.1944 33.8467 23.6961 33.2294 22.4617 31.995C21.2272 30.7606 20.6106 29.2622 20.6117 27.5C20.6128 25.7378 21.2295 24.2394 22.4617 23.005C23.6939 21.7706 25.1922 21.1539 26.9567 21.155C28.7211 21.1561 30.2194 21.7728 31.4517 23.005C32.6839 24.2372 33.3006 25.7356 33.3017 27.5C33.3017 28.2 33.1889 28.8783 32.9633 29.535C32.7367 30.1906 32.4078 30.8028 31.9767 31.3717L36.605 36L35.4567 37.1483Z"/>
</mask>
<path d="M14.1333 26.6333V24.9667H16.9583C16.8839 25.2444 16.8256 25.5172 16.7833 25.785C16.7422 26.0517 16.7172 26.335 16.7083 26.635L14.1333 26.6333ZM13.9117 35C11.9061 35 10.1972 34.3106 8.785 32.9317C7.37278 31.5528 6.66667 29.87 6.66667 27.8833V12.7567C5.9 12.7567 5.24889 12.4944 4.71334 11.97C4.17778 11.4444 3.91 10.7983 3.91 10.0317V7.75667C3.91 6.99 4.17778 6.33889 4.71334 5.80333C5.24889 5.26778 5.9 5 6.66667 5H21.1217C21.8883 5 22.545 5.26778 23.0917 5.80333C23.6372 6.33778 23.91 6.98889 23.91 7.75667V10.0317C23.91 10.7983 23.6372 11.4444 23.0917 11.97C22.545 12.4944 21.8883 12.7567 21.1217 12.7567V18.985C20.8606 19.1661 20.6178 19.3583 20.3933 19.5617C20.1689 19.765 19.9556 19.9861 19.7533 20.225H14.135V18.5583H19.455V12.7567H8.33334V27.885C8.33334 29.4228 8.87778 30.7156 9.96667 31.7633C11.0556 32.8111 12.3706 33.3344 13.9117 33.3333C14.6383 33.3333 15.3156 33.2061 15.9433 32.9517C16.57 32.6972 17.13 32.3472 17.6233 31.9017C17.7389 32.1794 17.8661 32.4344 18.005 32.6667C18.1439 32.8989 18.3011 33.1339 18.4767 33.3717C17.8545 33.8806 17.1589 34.2789 16.39 34.5667C15.6211 34.8556 14.795 35 13.9117 35ZM26.9567 32.18C28.2522 32.18 29.3561 31.7233 30.2683 30.81C31.1794 29.8989 31.635 28.7956 31.635 27.5C31.635 26.2044 31.1794 25.1011 30.2683 24.19C29.3561 23.2767 28.2522 22.82 26.9567 22.82C25.6622 22.82 24.5589 23.2767 23.6467 24.19C22.7344 25.1011 22.2783 26.2044 22.2783 27.5C22.2783 28.7956 22.7339 29.8994 23.645 30.8117C24.5561 31.7239 25.66 32.1794 26.9567 32.1783M35.4567 37.1483L30.8283 32.52C30.2606 32.9511 29.6483 33.28 28.9917 33.5067C28.3361 33.7333 27.6578 33.8467 26.9567 33.8467C25.1944 33.8467 23.6961 33.2294 22.4617 31.995C21.2272 30.7606 20.6106 29.2622 20.6117 27.5C20.6128 25.7378 21.2295 24.2394 22.4617 23.005C23.6939 21.7706 25.1922 21.1539 26.9567 21.155C28.7211 21.1561 30.2194 21.7728 31.4517 23.005C32.6839 24.2372 33.3006 25.7356 33.3017 27.5C33.3017 28.2 33.1889 28.8783 32.9633 29.535C32.7367 30.1906 32.4078 30.8028 31.9767 31.3717L36.605 36L35.4567 37.1483Z" fill="url(#paint0_linear_805_910)"/>
<path d="M14.1333 26.6333H13.1333V27.6327L14.1327 27.6333L14.1333 26.6333ZM14.1333 24.9667V23.9667H13.1333V24.9667H14.1333ZM16.9583 24.9667L17.9243 25.2255L18.2616 23.9667H16.9583V24.9667ZM16.7833 25.785L15.7955 25.6292L15.795 25.6326L16.7833 25.785ZM16.7083 26.635L16.7077 27.635L17.6791 27.6356L17.7079 26.6646L16.7083 26.635ZM6.66667 27.8833H7.66667H6.66667ZM6.66667 12.7567H7.66667V11.7567H6.66667V12.7567ZM4.71334 11.97L4.01292 12.6837L4.01368 12.6845L4.71334 11.97ZM6.66667 5V4V5ZM23.0917 5.80333L22.3919 6.51766L22.3919 6.51768L23.0917 5.80333ZM23.0917 11.97L23.784 12.6916L23.7855 12.6902L23.0917 11.97ZM21.1217 12.7567V11.7567H20.1217V12.7567H21.1217ZM21.1217 18.985L21.6916 19.8067L22.1217 19.5084V18.985H21.1217ZM19.7533 20.225V21.225H20.217L20.5166 20.8711L19.7533 20.225ZM14.135 20.225H13.135V21.225H14.135V20.225ZM14.135 18.5583V17.5583H13.135V18.5583H14.135ZM19.455 18.5583V19.5583H20.455V18.5583H19.455ZM19.455 12.7567H20.455V11.7567H19.455V12.7567ZM8.33334 12.7567V11.7567H7.33334V12.7567H8.33334ZM13.9117 33.3333V32.3333H13.911L13.9117 33.3333ZM15.9433 32.9517L16.319 33.8784L16.3195 33.8782L15.9433 32.9517ZM17.6233 31.9017L18.5466 31.5176L18.0032 30.2112L16.9531 31.1595L17.6233 31.9017ZM18.4767 33.3717L19.1098 34.1457L19.8464 33.5433L19.2812 32.7777L18.4767 33.3717ZM16.39 34.5667L16.0395 33.6301L16.0383 33.6306L16.39 34.5667ZM30.2683 30.81L29.5612 30.1029L29.5608 30.1033L30.2683 30.81ZM30.2683 24.19L29.5608 24.8967L29.5612 24.8971L30.2683 24.19ZM23.6467 24.19L24.3533 24.8975L24.3542 24.8967L23.6467 24.19ZM35.4567 37.1483L34.7496 37.8554L35.4567 38.5625L36.1638 37.8554L35.4567 37.1483ZM30.8283 32.52L31.5354 31.8129L30.9185 31.1959L30.2236 31.7236L30.8283 32.52ZM28.9917 33.5067L28.6654 32.5614L28.6649 32.5616L28.9917 33.5067ZM33.3017 27.5H34.3017V27.4994L33.3017 27.5ZM32.9633 29.535L33.9084 29.8618L33.9091 29.8599L32.9633 29.535ZM31.9767 31.3717L31.1797 30.7677L30.6532 31.4624L31.2696 32.0788L31.9767 31.3717ZM36.605 36L37.3121 36.7071L38.0192 36L37.3121 35.2929L36.605 36ZM15.1333 26.6333V24.9667H13.1333V26.6333H15.1333ZM14.1333 25.9667H16.9583V23.9667H14.1333V25.9667ZM15.9924 24.7078C15.9094 25.0175 15.8436 25.3247 15.7955 25.6292L17.7711 25.9408C17.8076 25.7097 17.8584 25.4714 17.9243 25.2255L15.9924 24.7078ZM15.795 25.6326C15.747 25.9442 15.7188 26.2688 15.7088 26.6054L17.7079 26.6646C17.7157 26.4012 17.7375 26.1592 17.7717 25.9374L15.795 25.6326ZM16.709 25.635L14.134 25.6333L14.1327 27.6333L16.7077 27.635L16.709 25.635ZM13.9117 34C12.1625 34 10.7057 33.4094 9.48362 32.2162L8.08639 33.6472C9.68876 35.2117 11.6497 36 13.9117 36V34ZM9.48362 32.2162C8.26554 31.0268 7.66667 29.6026 7.66667 27.8833H5.66667C5.66667 30.1374 6.48002 32.0787 8.08639 33.6472L9.48362 32.2162ZM7.66667 27.8833V12.7567H5.66667V27.8833H7.66667ZM6.66667 11.7567C6.15493 11.7567 5.75694 11.5923 5.41299 11.2555L4.01368 12.6845C4.74084 13.3966 5.64508 13.7567 6.66667 13.7567V11.7567ZM5.41375 11.2563C5.07445 10.9233 4.91 10.5364 4.91 10.0317H2.91C2.91 11.0603 3.28111 11.9656 4.01293 12.6837L5.41375 11.2563ZM4.91 10.0317V7.75667H2.91V10.0317H4.91ZM4.91 7.75667C4.91 7.25157 5.07499 6.85589 5.42044 6.51044L4.00623 5.09623C3.28057 5.82188 2.91 6.72843 2.91 7.75667H4.91ZM5.42044 6.51044C5.7659 6.16499 6.16157 6 6.66667 6V4C5.63844 4 4.73189 4.37057 4.00623 5.09623L5.42044 6.51044ZM6.66667 6H21.1217V4H6.66667V6ZM21.1217 6C21.6272 6 22.0325 6.16559 22.3919 6.51766L23.7915 5.089C23.0575 4.36997 22.1495 4 21.1217 4V6ZM22.3919 6.51768C22.7443 6.8629 22.91 7.25606 22.91 7.75667H24.91C24.91 6.72172 24.5302 5.81265 23.7915 5.08899L22.3919 6.51768ZM22.91 7.75667V10.0317H24.91V7.75667H22.91ZM22.91 10.0317C22.91 10.5303 22.7451 10.9153 22.3979 11.2498L23.7855 12.6902C24.5293 11.9736 24.91 11.0663 24.91 10.0317H22.91ZM22.3994 11.2484C22.0414 11.5918 21.6338 11.7567 21.1217 11.7567V13.7567C22.1429 13.7567 23.0486 13.3971 23.784 12.6916L22.3994 11.2484ZM20.1217 12.7567V18.985H22.1217V12.7567H20.1217ZM20.5517 18.1633C20.2568 18.3679 19.98 18.5868 19.7219 18.8206L21.0647 20.3028C21.2556 20.1298 21.4643 19.9644 21.6916 19.8067L20.5517 18.1633ZM19.7219 18.8206C19.4637 19.0545 19.2199 19.3075 18.9901 19.5789L20.5166 20.8711C20.6913 20.6647 20.874 20.4755 21.0647 20.3028L19.7219 18.8206ZM19.7533 19.225H14.135V21.225H19.7533V19.225ZM15.135 20.225V18.5583H13.135V20.225H15.135ZM14.135 19.5583H19.455V17.5583H14.135V19.5583ZM20.455 18.5583V12.7567H18.455V18.5583H20.455ZM19.455 11.7567H8.33334V13.7567H19.455V11.7567ZM7.33334 12.7567V27.885H9.33334V12.7567H7.33334ZM7.33334 27.885C7.33334 29.6893 7.98462 31.2439 9.2733 32.4839L10.66 31.0428C9.77094 30.1872 9.33334 29.1563 9.33334 27.885H7.33334ZM9.2733 32.4839C10.5528 33.7151 12.1182 34.3346 13.9124 34.3333L13.911 32.3333C12.6229 32.3343 11.5584 31.9072 10.66 31.0428L9.2733 32.4839ZM13.9117 34.3333C14.7576 34.3333 15.5634 34.1847 16.319 33.8784L15.5677 32.0249C15.0677 32.2275 14.519 32.3333 13.9117 32.3333V34.3333ZM16.3195 33.8782C17.0523 33.5807 17.7122 33.1689 18.2936 32.6438L16.9531 31.1595C16.5478 31.5256 16.0877 31.8138 15.5671 32.0251L16.3195 33.8782ZM16.7 32.2858C16.8321 32.6033 16.9806 32.902 17.1468 33.18L18.8632 32.1534C18.7517 31.9669 18.6457 31.7556 18.5466 31.5176L16.7 32.2858ZM17.1468 33.18C17.3037 33.4423 17.4792 33.7042 17.6722 33.9656L19.2812 32.7777C19.1231 32.5636 18.9841 32.3555 18.8632 32.1534L17.1468 33.18ZM17.8436 32.5976C17.3078 33.0357 16.7081 33.3798 16.0395 33.6301L16.7405 35.5032C17.6096 35.1779 18.4011 34.7254 19.1098 34.1457L17.8436 32.5976ZM16.0383 33.6306C15.3901 33.8741 14.684 34 13.9117 34V36C14.906 36 15.8522 35.837 16.7417 35.5028L16.0383 33.6306ZM26.9567 33.18C28.5166 33.18 29.8753 32.6186 30.9759 31.5167L29.5608 30.1033C28.8369 30.8281 27.9879 31.18 26.9567 31.18V33.18ZM30.9754 31.5171C32.0752 30.4173 32.635 29.0591 32.635 27.5H30.635C30.635 28.532 30.2837 29.3805 29.5612 30.1029L30.9754 31.5171ZM32.635 27.5C32.635 25.9409 32.0752 24.5827 30.9754 23.4829L29.5612 24.8971C30.2837 25.6195 30.635 26.468 30.635 27.5H32.635ZM30.9759 23.4833C29.8753 22.3814 28.5166 21.82 26.9567 21.82V23.82C27.9879 23.82 28.8369 24.1719 29.5608 24.8967L30.9759 23.4833ZM26.9567 21.82C25.3976 21.82 24.0395 22.3816 22.9391 23.4833L24.3542 24.8967C25.0783 24.1717 25.9268 23.82 26.9567 23.82V21.82ZM22.94 23.4825C21.8389 24.5822 21.2783 25.9405 21.2783 27.5H23.2783C23.2783 26.4684 23.6299 25.6201 24.3533 24.8975L22.94 23.4825ZM21.2783 27.5C21.2783 29.0591 21.8381 30.4176 22.9375 31.5183L24.3525 30.105C23.6297 29.3813 23.2783 28.532 23.2783 27.5H21.2783ZM22.9375 31.5183C24.0376 32.6198 25.3968 33.1797 26.9575 33.1783L26.9558 31.1783C25.9232 31.1792 25.0747 30.828 24.3525 30.105L22.9375 31.5183ZM36.1638 36.4412L31.5354 31.8129L30.1212 33.2271L34.7496 37.8554L36.1638 36.4412ZM30.2236 31.7236C29.7379 32.0923 29.2193 32.3702 28.6654 32.5614L29.318 34.4519C30.0774 34.1898 30.7832 33.8099 31.4331 33.3164L30.2236 31.7236ZM28.6649 32.5616C28.1156 32.7515 27.5478 32.8467 26.9567 32.8467V34.8467C27.7678 34.8467 28.5566 34.7152 29.3185 34.4518L28.6649 32.5616ZM26.9567 32.8467C25.4569 32.8467 24.2137 32.3328 23.1688 31.2879L21.7546 32.7021C23.1785 34.1261 24.932 34.8467 26.9567 34.8467V32.8467ZM23.1688 31.2879C22.124 30.2431 21.6107 29.0002 21.6117 27.5006L19.6117 27.4994C19.6104 29.5242 20.3305 31.278 21.7546 32.7021L23.1688 31.2879ZM21.6117 27.5006C21.6126 26 22.1263 24.7564 23.1694 23.7115L21.7539 22.2985C20.3326 23.7225 19.6129 25.4755 19.6117 27.4994L21.6117 27.5006ZM23.1694 23.7115C24.2115 22.6675 25.4539 22.1541 26.956 22.155L26.9573 20.155C24.9306 20.1537 23.1763 20.8736 21.7539 22.2985L23.1694 23.7115ZM26.956 22.155C28.4592 22.1559 29.7023 22.6699 30.7446 23.7121L32.1588 22.2979C30.7366 20.8757 28.983 20.1563 26.9573 20.155L26.956 22.155ZM30.7446 23.7121C31.7868 24.7543 32.3007 25.9975 32.3017 27.5006L34.3017 27.4994C34.3004 25.4737 33.581 23.7201 32.1588 22.2979L30.7446 23.7121ZM32.3017 27.5C32.3017 28.0904 32.2069 28.6589 32.0176 29.2101L33.9091 29.8599C34.1709 29.0978 34.3017 28.3096 34.3017 27.5H32.3017ZM32.0182 29.2082C31.827 29.7613 31.549 30.2803 31.1797 30.7677L32.7737 31.9756C33.2666 31.3252 33.6463 30.6199 33.9084 29.8618L32.0182 29.2082ZM31.2696 32.0788L35.8979 36.7071L37.3121 35.2929L32.6838 30.6646L31.2696 32.0788ZM35.8979 35.2929L34.7496 36.4412L36.1638 37.8554L37.3121 36.7071L35.8979 35.2929Z" fill="#FE5D26" mask="url(#path-1-inside-1_805_910)"/>
<defs>
<linearGradient id="paint0_linear_805_910" x1="3.91" y1="21.0742" x2="36.605" y2="21.0742" gradientUnits="userSpaceOnUse">
<stop stop-color="#EFCDBB"/>
<stop offset="0.5" stop-color="#DAB8A4"/>
<stop offset="1" stop-color="#A3735E"/>
</linearGradient>
</defs>
</svg>
