<svg width="45" height="45" viewBox="0 0 45 45" fill="none" xmlns="http://www.w3.org/2000/svg">
<path d="M8.3385 41.2578V32.0391M8.3385 13.6016V4.38281M3.72913 8.99219H12.9479M3.72913 36.6484H12.9479M24.0104 6.22656L20.813 14.5398C20.293 15.8917 20.033 16.5676 19.6288 17.1362C19.2704 17.6401 18.8302 18.0804 18.3263 18.4387C17.7577 18.843 17.0817 19.103 15.7298 19.6229L7.41663 22.8203L15.7298 26.0177C17.0817 26.5377 17.7577 26.7976 18.3263 27.2019C18.8302 27.5602 19.2704 28.0005 19.6288 28.5044C20.033 29.073 20.293 29.749 20.813 31.1009L24.0104 39.4141L27.2078 31.1008C27.7277 29.749 27.9877 29.073 28.392 28.5044C28.7503 28.0005 29.1906 27.5602 29.6945 27.2019C30.2631 26.7976 30.939 26.5377 32.2909 26.0177L40.6041 22.8203L32.2909 19.6229C30.939 19.103 30.2631 18.843 29.6945 18.4387C29.1906 18.0804 28.7503 17.6401 28.392 17.1362C27.9877 16.5676 27.7277 15.8917 27.2078 14.5398L24.0104 6.22656Z" stroke="#4280EF" stroke-width="2.04861" stroke-linecap="round" stroke-linejoin="round"/>
</svg>
