<svg width="24" height="24" viewBox="0 0 24 24" fill="none" xmlns="http://www.w3.org/2000/svg">
<path d="M3.73102 18.3857V18.385V5.615C3.73102 5.27935 3.83803 5.0251 4.04657 4.81655C4.25509 4.60804 4.5098 4.50056 4.8464 4.5H17.616C17.9513 4.5 18.2055 4.6071 18.4141 4.81617C18.6231 5.0256 18.7304 5.28054 18.731 5.61614C18.731 5.61634 18.731 5.61653 18.731 5.61672L18.731 7.769V8.269V8.769V11.5V12V12.5V15.23V15.73V16.23V18.385C18.731 18.7203 18.6239 18.9744 18.4148 19.1831C18.2053 19.3922 17.9506 19.4994 17.6159 19.5C17.6157 19.5 17.6155 19.5 17.6153 19.5L4.84602 19.5C4.51036 19.5 4.25555 19.393 4.04619 19.1841C3.83746 18.9758 3.73053 18.7217 3.73102 18.3857ZM6.50002 16.23V16.73H7.00002H11.039H11.539V16.23V13.192V12.692H11.039H7.00002H6.50002V13.192V16.23ZM11.923 9.808V10.308H12.423H15.462H15.962V9.808V7.769V7.269H15.462H12.423H11.923V7.769V9.808ZM6.50002 11.808V12.308H7.00002H11.039H11.539V11.808V7.769V7.269H11.039H7.00002H6.50002V7.769V11.808ZM11.923 16.231V16.731H12.423H15.462H15.962V16.231V11.192V10.692H15.462H12.423H11.923V11.192V16.231Z" fill="#FE5D26" stroke="#FE5D26"/>
</svg>
