<svg width="24" height="24" viewBox="0 0 24 24" fill="none" xmlns="http://www.w3.org/2000/svg">
<path d="M3.34245 13.0082L2.5 12.2163V13.3725V14.25C2.5 14.3163 2.47366 14.3799 2.42678 14.4268C2.37989 14.4737 2.31631 14.5 2.25 14.5C2.18369 14.5 2.12011 14.4737 2.07322 14.4268C2.02634 14.3799 2 14.3163 2 14.25V11.25C2 11.1837 2.02634 11.1201 2.07322 11.0732C2.12011 11.0263 2.1837 11 2.25 11H5.25C5.3163 11 5.37989 11.0263 5.42678 11.0732L5.78033 10.7197L5.42678 11.0732C5.47366 11.1201 5.5 11.1837 5.5 11.25C5.5 11.3163 5.47366 11.3799 5.42678 11.4268L5.78033 11.7803L5.42678 11.4268C5.37989 11.4737 5.3163 11.5 5.25 11.5H3.7485H2.58169L3.38646 12.3449C3.7179 12.6928 4.07792 13.0124 4.46274 13.3002C5.91888 14.3926 8.30411 15.5 12 15.5C15.6958 15.5 18.0811 14.3926 19.5372 13.3002C19.9221 13.0124 20.2821 12.6928 20.6135 12.3449L21.4183 11.5H20.2515H18.75C18.6837 11.5 18.6201 11.4737 18.5732 11.4268C18.5263 11.3799 18.5 11.3163 18.5 11.25C18.5 11.1837 18.5263 11.1201 18.5732 11.0732C18.6201 11.0263 18.6837 11 18.75 11H21.75C21.8163 11 21.8799 11.0263 21.9268 11.0732C21.9737 11.1201 22 11.1837 22 11.25V14.25C22 14.3163 21.9737 14.3799 21.9268 14.4268C21.8799 14.4737 21.8163 14.5 21.75 14.5C21.6837 14.5 21.6201 14.4737 21.5732 14.4268C21.5263 14.3799 21.5 14.3163 21.5 14.25V13.3725V12.1995L20.6538 13.0118C20.4215 13.2348 20.1497 13.4644 19.8369 13.7005C18.2945 14.8578 15.8035 16 12 16C8.19682 16 5.70725 14.858 4.16319 13.7005C3.8774 13.4846 3.60343 13.2535 3.34245 13.0082ZM5 4.5C5 3.83696 5.26339 3.20107 5.73223 2.73223C6.20107 2.26339 6.83696 2 7.5 2H16.5C17.163 2 17.7989 2.26339 18.2678 2.73223C18.7366 3.20107 19 3.83696 19 4.5V8.5H18.75C18.75 8.5 18.75 8.5 18.75 8.5C18.2464 8.49997 17.7525 8.63822 17.3221 8.89967C16.8917 9.16113 16.5413 9.53577 16.3092 9.98271C16.0771 10.4297 15.9723 10.9317 16.006 11.4342C16.026 11.7325 16.0944 12.0241 16.2074 12.2981C15.1697 12.6976 13.7959 13 12 13C10.2041 13 8.83028 12.6976 7.79263 12.2981C7.90555 12.0241 7.97398 11.7325 7.994 11.4342C8.02774 10.9317 7.92285 10.4297 7.69077 9.98271C7.45869 9.53577 7.10834 9.16113 6.67793 8.89967C6.24752 8.63822 5.75359 8.49997 5.25 8.5C5.24999 8.5 5.24997 8.5 5.24996 8.5H5V4.5ZM12 18.5C14.892 18.5 17.1973 17.9157 19 17.0864V19.5C19 20.163 18.7366 20.7989 18.2678 21.2678C17.7989 21.7366 17.163 22 16.5 22H7.5C6.83696 22 6.20107 21.7366 5.73223 21.2678C5.26339 20.7989 5 20.163 5 19.5V17.0864C6.80268 17.9157 9.10796 18.5 12 18.5ZM9 4C8.66848 4 8.35054 4.1317 8.11612 4.36612C7.8817 4.60054 7.75 4.91848 7.75 5.25C7.75 5.58152 7.8817 5.89946 8.11612 6.13388C8.35054 6.3683 8.66848 6.5 9 6.5H15C15.3315 6.5 15.6495 6.3683 15.8839 6.13388C16.1183 5.89946 16.25 5.58152 16.25 5.25C16.25 4.91848 16.1183 4.60054 15.8839 4.36612C15.6495 4.1317 15.3315 4 15 4H9ZM7.75 9C7.75 9.33152 7.8817 9.64946 8.11612 9.88388C8.35054 10.1183 8.66848 10.25 9 10.25H12.75C13.0815 10.25 13.3995 10.1183 13.6339 9.88388C13.8683 9.64946 14 9.33152 14 9C14 8.66848 13.8683 8.35054 13.6339 8.11612C13.3995 7.8817 13.0815 7.75 12.75 7.75H9C8.66848 7.75 8.35054 7.8817 8.11612 8.11612C7.8817 8.35054 7.75 8.66848 7.75 9Z" fill="#FE5D26" stroke="#FE5D26"/>
</svg>
