<svg width="24" height="24" viewBox="0 0 24 24" fill="none" xmlns="http://www.w3.org/2000/svg">
<path d="M12.5 10C12.5 9.60217 12.342 9.22064 12.0607 8.93934C11.7794 8.65804 11.3978 8.5 11 8.5C10.6022 8.5 10.2206 8.65804 9.93934 8.93934C9.65804 9.22064 9.5 9.60217 9.5 10V12C9.5 12.0352 9.49287 12.1028 9.47035 12.1814C9.44796 12.2595 9.4167 12.3262 9.38296 12.3728L9.38165 12.3747C9.35767 12.4081 9.33546 12.4299 9.30001 12.4481C9.26151 12.468 9.17498 12.5 9 12.5C8.82502 12.5 8.73849 12.468 8.69999 12.4481C8.66647 12.4309 8.64479 12.4105 8.62226 12.38C8.54636 12.2651 8.50401 12.1313 8.5 11.9937V10C8.5 9.60217 8.34196 9.22064 8.06066 8.93934C7.77936 8.65804 7.39782 8.5 7 8.5C6.60218 8.5 6.22064 8.65804 5.93934 8.93934C5.65804 9.22064 5.5 9.60217 5.5 10V12C5.5 12.5728 5.6598 13.3996 6.18206 14.1259C6.761 14.9312 7.71138 15.5 9 15.5C10.2893 15.5 11.2391 14.9287 11.8176 14.1264L11.8179 14.1259C12.3402 13.3997 12.5 12.5739 12.5 12V10.0043M12.5 10V10.0043M12.5 10C12.5 9.92943 12.505 9.85855 12.5151 9.78787C12.5713 9.39404 12.7817 9.0387 13.1 8.8C13.4183 8.5613 13.8183 8.45882 14.2121 8.51508C14.6059 8.57133 14.9613 8.78171 15.1999 9.09993C15.2 9.09995 15.2 9.09998 15.2 9.1L15.5 9.49986L15.8 9.1C15.8 9.09998 15.8 9.09995 15.8001 9.09993C16.0387 8.78171 16.3941 8.57133 16.7879 8.51508C16.9829 8.48722 17.1814 8.49804 17.3723 8.54693C17.5631 8.59582 17.7424 8.68181 17.9 8.8C18.2183 9.0387 18.4287 9.39404 18.4849 9.78787C18.5412 10.1817 18.4387 10.5817 18.2 10.9L17.375 12L18.2 13.1L17.8 13.4L18.2 13.1C18.3182 13.2576 18.4042 13.4369 18.4531 13.6277C18.502 13.8185 18.5128 14.0171 18.4849 14.2121C18.4571 14.4071 18.3911 14.5947 18.2907 14.7642C18.1903 14.9337 18.0576 15.0818 17.9 15.2C17.7424 15.3182 17.5631 15.4042 17.3723 15.4531C17.1814 15.502 16.9829 15.5128 16.7879 15.4849C16.3941 15.4287 16.0387 15.2183 15.8001 14.9001C15.8 14.9 15.8 14.9 15.8 14.9L15.5 14.5001L15.2 14.9C15.2 14.9 15.2 14.9 15.1999 14.9001C14.9613 15.2183 14.6059 15.4287 14.2121 15.4849C13.8183 15.5412 13.4183 15.4387 13.1 15.2C12.7817 14.9613 12.5713 14.606 12.5151 14.2121C12.4588 13.8183 12.5613 13.4183 12.8 13.1L13.625 12M12.5 10L13.625 12M12.5 10.0043C12.5009 10.3254 12.605 10.64 12.8 10.9L13.625 12M12.5 10.0043L13.625 12M1.5 12C1.5 6.20114 6.20114 1.5 12 1.5C17.7989 1.5 22.5 6.20114 22.5 12C22.5 17.7989 17.7989 22.5 12 22.5C6.20114 22.5 1.5 17.7989 1.5 12Z" fill="#FE5D26" stroke="#FE5D26"/>
</svg>
