<svg width="31" height="31" viewBox="0 0 31 31" fill="none" xmlns="http://www.w3.org/2000/svg">
<path d="M9.841 20.3555C9.44467 19.9468 8.73871 19.9468 8.31761 20.3555L5.76626 22.8946C5.35754 23.3032 5.35754 24.0091 5.75387 24.4179C6.16258 24.8266 6.86854 24.839 7.28965 24.4303L9.841 21.8789C10.2621 21.4702 10.2621 20.7767 9.841 20.3555ZM7.59928 14.9555C7.59928 14.3735 7.10386 13.878 6.50937 13.878H2.88049C2.29839 13.878 1.80298 14.3735 1.80298 14.9555C1.80298 15.5376 2.29839 16.0331 2.88049 16.0331H6.50937C7.10386 16.0331 7.59928 15.5376 7.59928 14.9555ZM9.71715 9.44413C10.1382 9.03542 10.1382 8.34185 9.71715 7.92075L7.17818 5.36939C6.76946 4.96067 6.07589 4.94829 5.65479 5.357C5.24607 5.76572 5.24607 6.45929 5.65479 6.88039L8.19377 9.44413C8.61486 9.86524 9.30843 9.86524 9.71715 9.44413ZM15.2409 7.2891C15.8354 7.2891 16.3309 6.79369 16.3309 6.21159V2.59509C16.3309 2.01299 15.8354 1.51758 15.2409 1.51758C14.6589 1.51758 14.1634 2.01299 14.1634 2.59509V6.21159C14.1634 6.79369 14.6589 7.2891 15.2409 7.2891ZM20.6285 9.56799C21.0496 9.98908 21.7556 9.98908 22.1643 9.56799L24.7157 7.01662C25.1367 6.59553 25.1367 5.90196 24.7157 5.48086C24.307 5.07214 23.6134 5.07214 23.2047 5.48086L20.6285 8.0446C20.2199 8.4657 20.2199 9.15928 20.6285 9.56799ZM22.9075 14.9555C22.9075 15.5376 23.4028 16.0331 23.985 16.0331H27.6015C28.196 16.0331 28.6913 15.5376 28.6913 14.9555C28.6913 14.3735 28.196 13.878 27.6015 13.878H23.985C23.4028 13.878 22.9075 14.3735 22.9075 14.9555ZM14.2626 23.5633C14.2501 24.0463 14.8075 24.1949 15.1295 23.8854L17.012 21.9904L19.1299 27.2293C19.229 27.4523 19.4768 27.5761 19.6997 27.477L20.9382 26.9941C21.1611 26.8826 21.2478 26.6225 21.1364 26.3996L18.907 21.2473L21.5822 21.1358C22.0404 21.1111 22.2758 20.6652 21.9414 20.3059L15.1666 13.3578C14.8571 13.0358 14.3863 13.2092 14.374 13.6675L14.2626 23.5633Z" fill="#FE5D26"/>
</svg>
