<svg width="22" height="29" viewBox="0 0 22 29" fill="none" xmlns="http://www.w3.org/2000/svg">
<path d="M4.40428 28.4215H18.2386C20.2945 28.4215 21.6693 27.1087 21.6693 25.1518V3.79967C21.6693 1.8428 20.2945 0.517578 18.2386 0.517578H4.40428C2.34833 0.517578 0.973572 1.8428 0.973572 3.79967V25.1518C0.973572 27.1087 2.34833 28.4215 4.40428 28.4215ZM4.65199 26.4275C3.58686 26.4275 2.9676 25.833 2.9676 24.8174V4.13407C2.9676 3.11848 3.58686 2.5116 4.65199 2.5116H17.9909C19.0437 2.5116 19.6753 3.11848 19.6753 4.13407V24.8174C19.6753 25.833 19.0437 26.4275 17.9909 26.4275H4.65199ZM6.57171 11.9244H16.0836C16.74 11.9244 17.1858 11.4909 17.1858 10.7973V8.12212C17.1858 7.42854 16.74 6.99506 16.0836 6.99506H6.57171C5.91528 6.99506 5.46942 7.42854 5.46942 8.12212V10.7973C5.46942 11.4909 5.91528 11.9244 6.57171 11.9244ZM6.57171 21.9193H16.0836C16.74 21.9193 17.1858 21.4734 17.1858 20.7922V18.1046C17.1858 17.4234 16.74 16.9775 16.0836 16.9775H6.57171C5.91528 16.9775 5.46942 17.4234 5.46942 18.1046V20.7922C5.46942 21.4734 5.91528 21.9193 6.57171 21.9193Z" fill="#FE5D26"/>
</svg>
