<svg width="31" height="31" viewBox="0 0 31 31" fill="none" xmlns="http://www.w3.org/2000/svg">
<path d="M19.3084 25.942H26.6738C28.2939 25.942 29.3774 24.9082 29.3774 23.3576V7.48377C29.3774 5.93315 28.2939 4.89941 26.6738 4.89941H19.3084C17.6881 4.89941 16.5948 5.93315 16.5948 7.48377V23.3576C16.5948 24.9082 17.6881 25.942 19.3084 25.942ZM19.5071 24.3417C18.6722 24.3417 18.1951 23.8944 18.1951 23.0992V7.7422C18.1951 6.94701 18.6722 6.49973 19.5071 6.49973H26.465C27.3 6.49973 27.777 6.94701 27.777 7.7422V23.0992C27.777 23.8944 27.3 24.3417 26.465 24.3417H19.5071ZM3.29529 23.5763C3.81216 23.5763 4.17993 23.2185 4.17993 22.7016V21.1907C4.17993 17.4932 6.43627 16.3004 9.32876 16.3004H9.98479L12.7381 16.2109V15.6543L10.0345 18.1193L8.9411 19.0537C8.71249 19.2426 8.65285 19.491 8.65285 19.7296C8.65285 20.2167 9.03056 20.5845 9.51762 20.5845C9.75617 20.5845 9.9649 20.495 10.1836 20.2862L14.3881 16.0916C14.5869 15.9028 14.6963 15.6742 14.6963 15.4257C14.6963 15.1772 14.5869 14.9486 14.3881 14.7597L10.1637 10.5452C9.9649 10.3464 9.75617 10.2669 9.51762 10.2669C9.03056 10.2669 8.65285 10.6247 8.65285 11.1217C8.65285 11.3603 8.71249 11.6088 8.9411 11.7976L10.0345 12.732L12.7381 15.197V14.6405L9.98479 14.551H9.32876C5.80012 14.551 2.41064 16.1712 2.41064 21.1907V22.7016C2.41064 23.2185 2.77842 23.5763 3.29529 23.5763Z" fill="#FE5D26"/>
</svg>
