<svg width="31" height="31" viewBox="0 0 31 31" fill="none" xmlns="http://www.w3.org/2000/svg">
<g clip-path="url(#clip0_805_726)">
<path d="M17.1303 29.1675C22.0199 29.1675 24.769 26.1031 24.769 20.8641V18.701C24.769 16.7181 23.8225 15.5125 22.741 15.5125C22.4931 15.5125 22.3692 15.6477 22.3692 15.873V16.8307C22.3692 17.2926 22.1326 17.5067 21.8621 17.5067C21.5692 17.5067 21.3439 17.2926 21.3439 16.8307V16.1998C21.3439 15.0394 20.589 14.2732 19.5863 14.2732C19.1244 14.2732 18.9216 14.4647 18.9216 14.8477V16.1547C18.9216 16.6166 18.6963 16.8307 18.4259 16.8307C18.1329 16.8307 17.8963 16.6166 17.8963 16.1547V14.9492C17.8963 13.6422 17.1415 13.0226 16.1613 13.0226C15.7332 13.0226 15.4966 13.2254 15.4966 13.5972V16.1547C15.4966 16.6166 15.2713 16.8307 15.0009 16.8307C14.7079 16.8307 14.4713 16.6166 14.4713 16.1547V7.60342C14.4713 6.7697 13.9305 6.2289 13.2208 6.2289C12.4659 6.2289 11.9476 6.7697 11.9476 7.60342V20.1205C11.9476 20.4359 11.7448 20.5937 11.5533 20.5937C11.3618 20.5937 11.204 20.481 11.0689 20.1768L9.41268 16.2561C9.16481 15.6815 8.79302 15.4336 8.28603 15.4336C7.50863 15.4336 7.01291 15.9632 7.01291 16.6054C7.01291 16.8532 7.06924 17.0673 7.12558 17.2475L8.95075 22.6893C10.5055 27.286 13.5362 29.1675 17.1303 29.1675ZM7.47484 9.11313C8.47756 9.11313 9.24368 8.32448 9.24368 7.34429C9.24368 6.37536 8.47756 5.58671 7.47484 5.58671C6.51719 5.58671 5.7398 6.37536 5.7398 7.34429C5.7398 8.32448 6.51719 9.11313 7.47484 9.11313ZM13.2208 3.98687C14.2009 3.98687 14.9896 3.19822 14.9896 2.21802C14.9896 1.26037 14.2009 0.460449 13.2208 0.460449C12.2631 0.460449 11.4632 1.26037 11.4632 2.21802C11.4632 3.19822 12.2631 3.98687 13.2208 3.98687ZM19.023 9.11313C20.0032 9.11313 20.7918 8.32448 20.7918 7.34429C20.7918 6.37536 20.0032 5.58671 19.023 5.58671C18.0541 5.58671 17.2655 6.37536 17.2655 7.34429C17.2655 8.32448 18.0541 9.11313 19.023 9.11313ZM24.2056 9.11313C25.1858 9.11313 25.9745 8.32448 25.9745 7.34429C25.9745 6.37536 25.1858 5.58671 24.2056 5.58671C23.2479 5.58671 22.4593 6.37536 22.4593 7.34429C22.4593 8.32448 23.2479 9.11313 24.2056 9.11313ZM24.2056 3.98687C25.1858 3.98687 25.9745 3.19822 25.9745 2.21802C25.9745 1.26037 25.1858 0.460449 24.2056 0.460449C23.2479 0.460449 22.4593 1.26037 22.4593 2.21802C22.4593 3.19822 23.2479 3.98687 24.2056 3.98687Z" fill="#FE5D26"/>
</g>
<defs>
<clipPath id="clip0_805_726">
<rect width="29.5925" height="29.5925" fill="white" transform="translate(0.746078 0.460449)"/>
</clipPath>
</defs>
</svg>
