<svg width="24" height="25" viewBox="0 0 24 25" fill="none" xmlns="http://www.w3.org/2000/svg">
<path d="M5.49599 3.05001C5.5958 3.13698 5.66404 3.25451 5.69008 3.38431C5.71613 3.5141 5.69852 3.64886 5.63999 3.76761C5.62934 3.80261 5.62408 3.83902 5.62439 3.87561C5.62439 3.95121 5.64359 4.09521 5.82479 4.27521C5.91239 4.36281 5.97959 4.42521 6.05279 4.49361C6.11279 4.54881 6.17639 4.60641 6.25679 4.68561C6.41279 4.83441 6.57719 5.00961 6.72479 5.22921C7.03079 5.68881 7.19999 6.26361 7.19999 7.10001C7.19999 8.86401 6.02759 10.1 4.79999 10.1C3.57239 10.1 2.39999 8.86401 2.39999 7.10001C2.39999 6.70881 2.50439 6.24201 2.64839 5.81121C2.79239 5.38041 2.99399 4.93281 3.22679 4.57281C3.50399 4.10481 3.89399 3.71241 4.19639 3.44841C4.36279 3.30333 4.53578 3.16599 4.71479 3.03681L4.76759 3.00081C4.87763 2.92746 5.00881 2.89252 5.14076 2.90141C5.2727 2.91031 5.3968 2.96255 5.49599 3.05001ZM4.79999 11.3C5.53377 11.299 6.24513 11.047 6.81599 10.586C6.87279 10.7548 6.92079 10.9248 6.95999 11.096C7.19999 12.14 7.19999 13.3952 7.19999 14.27V14.3C7.19999 17.6444 6.74519 19.5416 6.24479 20.6264C5.99279 21.1724 5.72519 21.5204 5.49359 21.7388C5.39931 21.829 5.2955 21.9087 5.18399 21.9764C5.13287 22.0071 5.07952 22.034 5.02439 22.0568C5.02439 22.0568 4.88879 22.1 4.79999 22.1C4.71119 22.1 4.57559 22.0568 4.57559 22.0568C4.52047 22.034 4.46712 22.0071 4.41599 21.9764C4.30449 21.9087 4.20068 21.829 4.10639 21.7388C3.87479 21.5192 3.60719 21.1724 3.35519 20.6264C2.85479 19.5416 2.39999 17.6444 2.39999 14.3V14.27C2.39999 13.394 2.39999 12.14 2.63999 11.096C2.67919 10.9248 2.72719 10.7548 2.78399 10.586C3.35486 11.047 4.06622 11.299 4.79999 11.3ZM10.8 16.1C9.94199 16.1 9.12479 15.92 8.38799 15.596C8.40399 15.1688 8.41199 14.7248 8.41199 14.264C9.13884 14.6808 9.96213 14.9001 10.8 14.9V12.5C10.8 11.8635 11.0529 11.253 11.5029 10.803C11.953 10.3529 12.5635 10.1 13.2 10.1H15.6C15.6001 9.24767 15.3733 8.41068 14.9428 7.67504C14.5123 6.93941 13.8937 6.33167 13.1506 5.91427C12.4074 5.49688 11.5665 5.2849 10.7143 5.30011C9.86215 5.31532 9.02937 5.55717 8.30159 6.00081C8.22678 5.59814 8.08995 5.20952 7.89599 4.84881C8.80951 4.34354 9.83905 4.08536 10.8829 4.09979C11.9267 4.11421 12.9487 4.40074 13.848 4.93105C14.7472 5.46137 15.4924 6.21712 16.0102 7.12364C16.5279 8.03016 16.8001 9.05607 16.8 10.1H19.2C19.8365 10.1 20.447 10.3529 20.8971 10.803C21.3471 11.253 21.6 11.8635 21.6 12.5V18.5C21.6 19.1365 21.3471 19.747 20.8971 20.1971C20.447 20.6472 19.8365 20.9 19.2 20.9H13.2C12.5635 20.9 11.953 20.6472 11.5029 20.1971C11.0529 19.747 10.8 19.1365 10.8 18.5V16.1ZM16.68 11.3C16.4434 12.4524 15.8739 13.5101 15.042 14.342C14.2101 15.1739 13.1524 15.7434 12 15.98V18.5C12 18.8183 12.1264 19.1235 12.3515 19.3485C12.5765 19.5736 12.8817 19.7 13.2 19.7H19.2C19.5183 19.7 19.8235 19.5736 20.0485 19.3485C20.2736 19.1235 20.4 18.8183 20.4 18.5V12.5C20.4 12.1817 20.2736 11.8765 20.0485 11.6515C19.8235 11.4264 19.5183 11.3 19.2 11.3H16.68ZM15.4488 11.3H13.2C12.8817 11.3 12.5765 11.4264 12.3515 11.6515C12.1264 11.8765 12 12.1817 12 12.5V14.7488C12.83 14.5334 13.5874 14.1001 14.1937 13.4937C14.8001 12.8874 15.2334 12.13 15.4488 11.3Z" fill="white"/>
</svg>
