<svg width="24" height="25" viewBox="0 0 24 25" fill="none" xmlns="http://www.w3.org/2000/svg">
<path d="M8.48001 16.48V15.48H10.175C10.1303 15.6467 10.0953 15.8103 10.07 15.971C10.0453 16.131 10.0303 16.301 10.025 16.481L8.48001 16.48ZM8.34701 21.5C7.14368 21.5 6.11834 21.0863 5.27101 20.259C4.42368 19.4317 4.00001 18.422 4.00001 17.23V8.154C3.54001 8.154 3.14934 7.99667 2.82801 7.682C2.50668 7.36667 2.34601 6.979 2.34601 6.519V5.154C2.34601 4.694 2.50668 4.30333 2.82801 3.982C3.14934 3.66067 3.54001 3.5 4.00001 3.5H12.673C13.133 3.5 13.527 3.66067 13.855 3.982C14.1823 4.30267 14.346 4.69333 14.346 5.154V6.519C14.346 6.979 14.1823 7.36667 13.855 7.682C13.527 7.99667 13.133 8.154 12.673 8.154V11.891C12.5163 11.9997 12.3707 12.115 12.236 12.237C12.1013 12.359 11.9733 12.4917 11.852 12.635H8.48101V11.635H11.673V8.154H5.00001V17.231C5.00001 18.1537 5.32667 18.9293 5.98001 19.558C6.63334 20.1867 7.42234 20.5007 8.34701 20.5C8.78301 20.5 9.18934 20.4237 9.56601 20.271C9.94201 20.1183 10.278 19.9083 10.574 19.641C10.6433 19.8077 10.7197 19.9607 10.803 20.1C10.8863 20.2393 10.9807 20.3803 11.086 20.523C10.7127 20.8283 10.2953 21.0673 9.83401 21.24C9.37267 21.4133 8.87701 21.5 8.34701 21.5ZM16.174 19.808C16.9513 19.808 17.6137 19.534 18.161 18.986C18.7077 18.4393 18.981 17.7773 18.981 17C18.981 16.2227 18.7077 15.5607 18.161 15.014C17.6137 14.466 16.9513 14.192 16.174 14.192C15.3973 14.192 14.7353 14.466 14.188 15.014C13.6407 15.5607 13.367 16.2227 13.367 17C13.367 17.7773 13.6403 18.4397 14.187 18.987C14.7337 19.5343 15.396 19.8077 16.174 19.807M21.274 22.789L18.497 20.012C18.1563 20.2707 17.789 20.468 17.395 20.604C17.0017 20.74 16.5947 20.808 16.174 20.808C15.1167 20.808 14.2177 20.4377 13.477 19.697C12.7363 18.9563 12.3663 18.0573 12.367 17C12.3677 15.9427 12.7377 15.0437 13.477 14.303C14.2163 13.5623 15.1153 13.1923 16.174 13.193C17.2327 13.1937 18.1317 13.5637 18.871 14.303C19.6103 15.0423 19.9803 15.9413 19.981 17C19.981 17.42 19.9133 17.827 19.778 18.221C19.642 18.6143 19.4447 18.9817 19.186 19.323L21.963 22.1L21.274 22.789Z" fill="white"/>
</svg>
