<svg width="24" height="25" viewBox="0 0 24 25" fill="none" xmlns="http://www.w3.org/2000/svg">
<path d="M6.385 14.116H8.589L13.858 8.846C13.9433 8.74733 14.0077 8.644 14.051 8.536C14.0943 8.428 14.116 8.32067 14.116 8.214C14.116 8.10733 14.0933 8.00167 14.048 7.897C14.0033 7.793 13.94 7.69133 13.858 7.592L12.938 6.642C12.852 6.556 12.7527 6.49167 12.64 6.449C12.5273 6.40633 12.416 6.385 12.306 6.385C12.1993 6.385 12.092 6.40633 11.984 6.449C11.876 6.49167 11.7723 6.556 11.673 6.642L6.385 11.912V14.116ZM7.269 13.23V12.28L10.717 8.832L11.179 9.32L11.648 9.801L8.219 13.23H7.269ZM11.179 9.32L11.648 9.801L10.718 8.831L11.179 9.32ZM11.809 14.115H17.616V13.115H12.81L11.809 14.115ZM3 20.577V5.116C3 4.65533 3.15433 4.271 3.463 3.963C3.77167 3.655 4.15567 3.50067 4.615 3.5H19.385C19.845 3.5 20.229 3.65433 20.537 3.963C20.845 4.27167 20.9993 4.656 21 5.116V15.885C21 16.345 20.8457 16.7293 20.537 17.038C20.2283 17.3467 19.8443 17.5007 19.385 17.5H6.077L3 20.577ZM5.65 16.5H19.385C19.5383 16.5 19.6793 16.436 19.808 16.308C19.9367 16.18 20.0007 16.039 20 15.885V5.115C20 4.96167 19.936 4.82067 19.808 4.692C19.68 4.56333 19.539 4.49933 19.385 4.5H4.615C4.46167 4.5 4.32067 4.564 4.192 4.692C4.06333 4.82 3.99933 4.961 4 5.115V18.145L5.65 16.5Z" fill="white"/>
</svg>
