<svg width="31" height="31" viewBox="0 0 31 31" fill="none" xmlns="http://www.w3.org/2000/svg">
<path fill-rule="evenodd" clip-rule="evenodd" d="M10.0386 8.35539C10.472 8.78876 10.472 9.4914 10.0386 9.92477L4.53487 15.4285L10.0386 20.9322C10.472 21.3656 10.472 22.0682 10.0386 22.5016C9.60521 22.9349 8.90258 22.9349 8.4692 22.5016L2.1808 16.2132C1.74743 15.7798 1.74743 15.0772 2.1808 14.6438L8.4692 8.35539C8.90258 7.92202 9.60521 7.92202 10.0386 8.35539ZM21.046 8.35539C21.4794 7.92202 22.182 7.92202 22.6154 8.35539L28.9038 14.6438C29.3372 15.0772 29.3372 15.7798 28.9038 16.2132L22.6154 22.5016C22.182 22.9349 21.4794 22.9349 21.046 22.5016C20.6126 22.0682 20.6126 21.3656 21.046 20.9322L26.5497 15.4285L21.046 9.92477C20.6126 9.4914 20.6126 8.78876 21.046 8.35539Z" fill="#FE5D26"/>
<path fill-rule="evenodd" clip-rule="evenodd" d="M17.5804 3.60762C18.1843 3.71176 18.5895 4.28579 18.4854 4.88976L14.7863 26.3443C14.6822 26.9483 14.1082 27.3535 13.5042 27.2493C12.9002 27.1452 12.495 26.5712 12.5992 25.9672L16.2982 4.51266C16.4024 3.90869 16.9764 3.50349 17.5804 3.60762Z" fill="#FE5D26"/>
</svg>
