<svg width="31" height="31" viewBox="0 0 31 31" fill="none" xmlns="http://www.w3.org/2000/svg">
<path fill-rule="evenodd" clip-rule="evenodd" d="M3.52039 8.03011C3.52039 5.98718 5.17651 4.33105 7.21945 4.33105H23.8652C25.9081 4.33105 27.5643 5.98718 27.5643 8.03011V22.8264C27.5643 24.8693 25.9081 26.5254 23.8652 26.5254H7.21945C5.17651 26.5254 3.52039 24.8693 3.52039 22.8264V8.03011ZM8.41507 9.22574C8.77621 8.86459 9.36174 8.86459 9.72288 9.22574L12.4972 12C12.8583 12.3612 12.8583 12.9467 12.4972 13.3078L9.72288 16.0821C9.36174 16.4433 8.77621 16.4433 8.41507 16.0821C8.05392 15.721 8.05392 15.1355 8.41507 14.7743L10.5355 12.6539L8.41507 10.5336C8.05392 10.1724 8.05392 9.58688 8.41507 9.22574ZM13.6928 14.5035C13.1821 14.5035 12.768 14.9175 12.768 15.4282C12.768 15.939 13.1821 16.353 13.6928 16.353H17.3919C17.9026 16.353 18.3166 15.939 18.3166 15.4282C18.3166 14.9175 17.9026 14.5035 17.3919 14.5035H13.6928Z" fill="#FE5D26"/>
</svg>
