<svg width="31" height="31" viewBox="0 0 31 31" fill="none" xmlns="http://www.w3.org/2000/svg">
<path d="M20.0169 14.3187C20.7127 14.3187 21.2407 13.6783 20.9599 13.0417C20.0422 10.9617 17.9618 9.50994 15.5423 9.50994C15.3259 9.50994 15.1123 9.52155 14.9019 9.54418C14.2096 9.61867 13.9184 10.3963 14.2666 10.9993L15.8627 13.7638C16.0609 14.1072 16.4273 14.3187 16.8237 14.3187L20.0169 14.3187Z" fill="#FE5D26"/>
<path d="M12.3456 12.1109C11.9973 11.5077 11.1778 11.371 10.766 11.9327C10.0479 12.9122 9.62383 14.1208 9.62383 15.4284C9.62383 16.7361 10.0479 17.9447 10.7661 18.9243C11.1779 19.486 11.9974 19.3492 12.3456 18.746L13.9406 15.9834C14.1389 15.64 14.1389 15.217 13.9406 14.8737L12.3456 12.1109Z" fill="#FE5D26"/>
<path d="M14.2667 19.8576C13.9185 20.4606 14.2097 21.2382 14.902 21.3127C15.1124 21.3353 15.326 21.3469 15.5423 21.3469C17.9618 21.3469 20.0422 19.8951 20.9599 17.8151C21.2407 17.1785 20.7127 16.5381 20.0169 16.5381H16.8238C16.4274 16.5381 16.061 16.7496 15.8628 17.093L14.2667 19.8576Z" fill="#FE5D26"/>
<path fill-rule="evenodd" clip-rule="evenodd" d="M21.6525 7.06448L22.6067 5.41179C22.9131 4.88102 22.7312 4.20232 22.2005 3.89588C21.6697 3.58944 20.991 3.7713 20.6846 4.30207L19.7313 5.95314C18.7726 5.52866 17.7374 5.24542 16.652 5.12982V3.22153C16.652 2.60865 16.1552 2.11182 15.5423 2.11182C14.9294 2.11182 14.4326 2.60865 14.4326 3.22153V5.12982C13.3473 5.24542 12.3121 5.52866 11.3533 5.95315L10.4001 4.3021C10.0936 3.77133 9.41494 3.58948 8.88417 3.89592C8.3534 4.20236 8.17155 4.88105 8.47799 5.41182L9.43215 7.06449C8.5701 7.69532 7.80921 8.45621 7.17837 9.31827L5.5254 8.36392C4.99463 8.05748 4.31593 8.23933 4.00949 8.7701C3.70305 9.30087 3.88491 9.97957 4.41568 10.286L6.06704 11.2394C5.64255 12.1982 5.35931 13.2334 5.24371 14.3187H3.33543C2.72255 14.3187 2.22571 14.8156 2.22571 15.4284C2.22571 16.0413 2.72255 16.5381 3.33543 16.5381H5.24371C5.35931 17.6235 5.64255 18.6587 6.06703 19.6174L4.41568 20.5708C3.88491 20.8773 3.70305 21.5559 4.00949 22.0867C4.31593 22.6175 4.99463 22.7993 5.5254 22.4929L7.17835 21.5386C7.80914 22.4006 8.56996 23.1614 9.43193 23.7922L8.47767 25.445C8.17123 25.9758 8.35309 26.6545 8.88386 26.9609C9.41463 27.2674 10.0933 27.0855 10.3998 26.5548L11.3531 24.9036C12.3119 25.3281 13.3472 25.6114 14.4326 25.727V27.6353C14.4326 28.2482 14.9294 28.745 15.5423 28.745C16.1552 28.745 16.652 28.2482 16.652 27.6353V25.727C17.7374 25.6114 18.7728 25.3282 19.7316 24.9036L20.6849 26.5548C20.9913 27.0856 21.67 27.2674 22.2008 26.961C22.7316 26.6545 22.9134 25.9758 22.607 25.4451L21.6527 23.7922C22.5146 23.1614 23.2754 22.4006 23.9062 21.5387L25.559 22.4929C26.0898 22.7993 26.7685 22.6175 27.0749 22.0867C27.3814 21.5559 27.1995 20.8773 26.6687 20.5708L25.0176 19.6175C25.4421 18.6588 25.7253 17.6235 25.8409 16.5381H27.7492C28.3621 16.5381 28.8589 16.0413 28.8589 15.4284C28.8589 14.8156 28.3621 14.3187 27.7492 14.3187H25.8409C25.7253 13.2334 25.4421 12.1981 25.0176 11.2393L26.6687 10.286C27.1995 9.97957 27.3814 9.30087 27.0749 8.7701C26.7685 8.23933 26.0898 8.05748 25.559 8.36392L23.9062 9.31817C23.2754 8.45615 22.5145 7.69529 21.6525 7.06448ZM15.5423 7.2905C14.0793 7.2905 12.7064 7.67659 11.52 8.35243C11.5048 8.36221 11.4893 8.37166 11.4735 8.38079C11.4582 8.38961 11.4428 8.39802 11.4273 8.40604C10.2256 9.11177 9.22101 10.1172 8.5163 11.3196C8.50929 11.333 8.50198 11.3463 8.49436 11.3594C8.48644 11.3732 8.47828 11.3866 8.46987 11.3999C7.79183 12.5877 7.40439 13.9628 7.40439 15.4284C7.40439 16.8939 7.79174 18.2689 8.46965 19.4566C8.47813 19.4699 8.48637 19.4835 8.49436 19.4974C8.50205 19.5107 8.50943 19.5241 8.5165 19.5376C9.22166 20.7407 10.227 21.7465 11.4297 22.4522C11.4443 22.4598 11.4588 22.4678 11.4732 22.4761C11.4882 22.4847 11.5028 22.4936 11.5172 22.5028C12.7042 23.1797 14.0781 23.5664 15.5423 23.5664C17.0067 23.5664 18.3808 23.1796 19.5679 22.5026C19.5822 22.4935 19.5967 22.4846 19.6114 22.4761C19.6257 22.4679 19.64 22.46 19.6545 22.4525C20.8562 21.7475 21.8608 20.7429 22.566 19.5413C22.5736 19.5265 22.5817 19.5119 22.59 19.4974C22.5987 19.4823 22.6077 19.4675 22.617 19.453C23.2937 18.2661 23.6803 16.8924 23.6803 15.4284C23.6803 13.9643 23.2936 12.5904 22.6168 11.4035C22.6076 11.3891 22.5987 11.3744 22.59 11.3594C22.5817 11.345 22.5738 11.3305 22.5662 11.3159C21.8615 10.115 20.8576 9.11079 19.6569 8.40576C19.6415 8.39782 19.6263 8.38949 19.6111 8.38076C19.5955 8.37172 19.5801 8.36236 19.5651 8.35269C18.3786 7.67668 17.0056 7.2905 15.5423 7.2905Z" fill="#FE5D26"/>
</svg>
