<svg width="31" height="31" viewBox="0 0 31 31" fill="none" xmlns="http://www.w3.org/2000/svg">
<path d="M4.14788 16.9267C4.86623 16.9267 5.43594 16.357 5.43594 15.651C5.43594 14.9326 4.86623 14.363 4.14788 14.363C3.42953 14.363 2.85981 14.9326 2.85981 15.651C2.85981 16.357 3.42953 16.9267 4.14788 16.9267ZM7.0708 8.24465C7.78914 8.24465 8.35886 7.66254 8.35886 6.95659C8.35886 6.23825 7.78914 5.66852 7.0708 5.66852C6.36484 5.66852 5.78273 6.23825 5.78273 6.95659C5.78273 7.66254 6.36484 8.24465 7.0708 8.24465ZM15.7777 5.32174C16.4836 5.32174 17.0533 4.75202 17.0533 4.03367C17.0533 3.32771 16.4836 2.74561 15.7777 2.74561C15.0593 2.74561 14.4896 3.32771 14.4896 4.03367C14.4896 4.75202 15.0593 5.32174 15.7777 5.32174ZM24.472 8.24465C25.1904 8.24465 25.7602 7.66254 25.7602 6.95659C25.7602 6.23825 25.1904 5.66852 24.472 5.66852C23.7537 5.66852 23.184 6.23825 23.184 6.95659C23.184 7.66254 23.7537 8.24465 24.472 8.24465ZM27.4074 16.9267C28.1133 16.9267 28.6831 16.357 28.6831 15.651C28.6831 14.9326 28.1133 14.363 27.4074 14.363C26.6891 14.363 26.1193 14.9326 26.1193 15.651C26.1193 16.357 26.6891 16.9267 27.4074 16.9267ZM25.2895 26.0423C25.8345 26.0423 26.3051 25.5964 26.3051 25.0515C26.3051 24.4941 25.8345 24.0358 25.2895 24.0358H23.7785V15.8244C23.7785 11.3038 20.2859 7.81117 15.7777 7.81117C11.257 7.81117 7.78914 11.3038 7.78914 15.8244V24.0358H6.25337C5.70842 24.0358 5.27494 24.4941 5.27494 25.0515C5.27494 25.5964 5.70842 26.0423 6.25337 26.0423H25.2895ZM16.818 15.8616V24.0358H14.7496V15.8616C14.7496 15.2919 15.2079 14.8212 15.7777 14.8212C16.3473 14.8212 16.818 15.2919 16.818 15.8616Z" fill="#FE5D26"/>
</svg>
