<svg width="26" height="26" viewBox="0 0 26 26" fill="none" xmlns="http://www.w3.org/2000/svg">
<path fill-rule="evenodd" clip-rule="evenodd" d="M9.18 7.64629C9.18 5.47704 10.9385 3.71851 13.1078 3.71851C15.277 3.71851 17.0356 5.47704 17.0356 7.64629C17.0356 9.81555 15.277 11.5741 13.1078 11.5741C10.9385 11.5741 9.18 9.81555 9.18 7.64629Z" fill="#34A353"/>
<path fill-rule="evenodd" clip-rule="evenodd" d="M17.0356 10.7885C17.0356 9.05312 18.4424 7.64629 20.1778 7.64629C21.9132 7.64629 23.32 9.05312 23.32 10.7885C23.32 12.5239 21.9132 13.9308 20.1778 13.9308C18.4424 13.9308 17.0356 12.5239 17.0356 10.7885Z" fill="#34A353"/>
<path fill-rule="evenodd" clip-rule="evenodd" d="M2.89554 10.7885C2.89554 9.05312 4.30237 7.64629 6.03777 7.64629C7.77318 7.64629 9.18 9.05312 9.18 10.7885C9.18 12.5239 7.77318 13.9308 6.03777 13.9308C4.30237 13.9308 2.89554 12.5239 2.89554 10.7885Z" fill="#34A353"/>
<path fill-rule="evenodd" clip-rule="evenodd" d="M7.14788 16.4105C8.40265 14.4486 10.6028 13.1452 13.1078 13.1452C15.6131 13.1452 17.8135 14.4489 19.0682 16.4112C19.9356 17.7679 20.3109 19.4037 20.1348 20.9986C20.1073 21.2478 19.9625 21.469 19.745 21.5938C17.7891 22.716 15.5222 23.3574 13.1078 23.3574C10.6934 23.3574 8.42649 22.716 6.47061 21.5938C6.25311 21.469 6.10826 21.2478 6.08075 20.9986C5.90468 19.4034 6.28015 17.7673 7.14788 16.4105Z" fill="#34A353"/>
<path d="M5.86211 15.5057C5.84949 15.5251 5.83696 15.5445 5.8245 15.564C4.81326 17.1452 4.35048 19.0282 4.49254 20.8845C3.85567 20.7878 3.23773 20.6322 2.64461 20.4233L2.5242 20.3809C2.30455 20.3035 2.15107 20.1041 2.1326 19.8719L2.12247 19.7447C2.11419 19.6406 2.10999 19.5355 2.10999 19.4297C2.10999 17.3193 3.77437 15.5976 5.86211 15.5057Z" fill="#34A353"/>
<path d="M21.7234 20.8845C21.8654 19.0285 21.4029 17.1459 20.392 15.5649C20.3794 15.5451 20.3667 15.5254 20.3539 15.5057C22.4414 15.5978 24.1056 17.3194 24.1056 19.4297C24.1056 19.5355 24.1014 19.6406 24.0931 19.7447L24.083 19.8719C24.0645 20.1041 23.911 20.3035 23.6914 20.3809L23.571 20.4233C22.978 20.6321 22.3601 20.7877 21.7234 20.8845Z" fill="#34A353"/>
</svg>
