<svg width="56" height="56" viewBox="0 0 56 56" fill="none" xmlns="http://www.w3.org/2000/svg">
<rect x="1.12157" y="1.29936" width="53.9724" height="53.9724" rx="26.9862" fill="#141414"/>
<rect x="1.12157" y="1.29936" width="53.9724" height="53.9724" rx="26.9862" stroke="#34A353" stroke-width="0.739348"/>
<path fill-rule="evenodd" clip-rule="evenodd" d="M26.8385 19.0795C27.3081 17.9504 28.9075 17.9504 29.3771 19.0795L31.5578 24.3225L37.2181 24.7763C38.437 24.874 38.9312 26.3951 38.0026 27.1906L33.69 30.8848L35.0076 36.4083C35.2913 37.5977 33.9973 38.5379 32.9538 37.9005L28.1078 34.9405L23.2618 37.9005C22.2182 38.5379 20.9243 37.5977 21.208 36.4083L22.5255 30.8848L18.213 27.1906C17.2843 26.3951 17.7786 24.874 18.9975 24.7763L24.6578 24.3225L26.8385 19.0795Z" fill="#34A353"/>
</svg>
