<svg width="56" height="56" viewBox="0 0 56 56" fill="none" xmlns="http://www.w3.org/2000/svg">
<rect x="1.12157" y="1.15898" width="53.9724" height="53.9724" rx="26.9862" fill="#141414"/>
<rect x="1.12157" y="1.15898" width="53.9724" height="53.9724" rx="26.9862" stroke="#34A353" stroke-width="0.739348"/>
<path fill-rule="evenodd" clip-rule="evenodd" d="M24.18 22.6463C24.18 20.477 25.9385 18.7185 28.1078 18.7185C30.277 18.7185 32.0356 20.477 32.0356 22.6463C32.0356 24.8156 30.277 26.5741 28.1078 26.5741C25.9385 26.5741 24.18 24.8156 24.18 22.6463Z" fill="#34A353"/>
<path fill-rule="evenodd" clip-rule="evenodd" d="M32.0356 25.7885C32.0356 24.0531 33.4424 22.6463 35.1778 22.6463C36.9132 22.6463 38.32 24.0531 38.32 25.7885C38.32 27.5239 36.9132 28.9308 35.1778 28.9308C33.4424 28.9308 32.0356 27.5239 32.0356 25.7885Z" fill="#34A353"/>
<path fill-rule="evenodd" clip-rule="evenodd" d="M17.8955 25.7885C17.8955 24.0531 19.3024 22.6463 21.0378 22.6463C22.7732 22.6463 24.18 24.0531 24.18 25.7885C24.18 27.5239 22.7732 28.9308 21.0378 28.9308C19.3024 28.9308 17.8955 27.5239 17.8955 25.7885Z" fill="#34A353"/>
<path fill-rule="evenodd" clip-rule="evenodd" d="M22.1479 31.4105C23.4027 29.4486 25.6028 28.1452 28.1078 28.1452C30.6131 28.1452 32.8135 29.4489 34.0682 31.4112C34.9356 32.7679 35.3109 34.4037 35.1348 35.9986C35.1073 36.2478 34.9625 36.469 34.745 36.5938C32.7891 37.716 30.5222 38.3574 28.1078 38.3574C25.6934 38.3574 23.4265 37.716 21.4706 36.5938C21.2531 36.469 21.1083 36.2478 21.0808 35.9986C20.9047 34.4034 21.2802 32.7673 22.1479 31.4105Z" fill="#34A353"/>
<path d="M20.8621 30.5057C20.8495 30.5251 20.837 30.5445 20.8245 30.564C19.8133 32.1452 19.3505 34.0282 19.4925 35.8845C18.8557 35.7878 18.2377 35.6322 17.6446 35.4233L17.5242 35.3809C17.3046 35.3035 17.1511 35.1041 17.1326 34.8719L17.1225 34.7447C17.1142 34.6406 17.11 34.5355 17.11 34.4297C17.11 32.3193 18.7744 30.5976 20.8621 30.5057Z" fill="#34A353"/>
<path d="M36.7234 35.8845C36.8654 34.0285 36.4029 32.1459 35.392 30.5649C35.3794 30.5451 35.3667 30.5254 35.3539 30.5057C37.4414 30.5978 39.1056 32.3194 39.1056 34.4297C39.1056 34.5355 39.1014 34.6406 39.0931 34.7447L39.083 34.8719C39.0645 35.1041 38.911 35.3035 38.6914 35.3809L38.571 35.4233C37.978 35.6321 37.3601 35.7877 36.7234 35.8845Z" fill="#34A353"/>
</svg>
