<svg width="51" height="23" viewBox="0 0 51 23" fill="none" xmlns="http://www.w3.org/2000/svg">
<g clip-path="url(#clip0_160_8420)">
<path d="M11.3033 22.5522C17.4283 22.5522 22.3935 17.587 22.3935 11.462C22.3935 5.33703 17.4283 0.371826 11.3033 0.371826C5.17834 0.371826 0.213074 5.33703 0.213074 11.462C0.213074 17.587 5.17834 22.5522 11.3033 22.5522Z" fill="#FE5D26"/>
<path d="M0.213058 33.6302C6.33802 33.6302 11.3033 28.6649 11.3033 22.5399C11.3033 16.415 6.33802 11.4497 0.213058 11.4497C-5.9119 11.4497 -10.8772 16.415 -10.8772 22.5399C-10.8772 28.6649 -5.9119 33.6302 0.213058 33.6302Z" fill="#141414"/>
<path d="M22.3938 33.6302C28.5187 33.6302 33.484 28.6649 33.484 22.5399C33.484 16.415 28.5187 11.4497 22.3938 11.4497C16.2688 11.4497 11.3036 16.415 11.3036 22.5399C11.3036 28.6649 16.2688 33.6302 22.3938 33.6302Z" fill="#141414"/>
<path d="M0.213303 11.4497C6.33826 11.4497 11.3035 6.48447 11.3035 0.359512C11.3035 -5.76545 6.33826 -10.7307 0.213303 -10.7307C-5.91166 -10.7307 -10.8769 -5.76545 -10.8769 0.359512C-10.8769 6.48447 -5.91166 11.4497 0.213303 11.4497Z" fill="#141414"/>
<path d="M22.3938 11.4497C28.5187 11.4497 33.484 6.48447 33.484 0.359512C33.484 -5.76545 28.5187 -10.7307 22.3938 -10.7307C16.2688 -10.7307 11.3036 -5.76545 11.3036 0.359512C11.3036 6.48447 16.2688 11.4497 22.3938 11.4497Z" fill="#141414"/>
</g>
<g clip-path="url(#clip1_160_8420)">
<path d="M33.4837 18.1115C37.1587 18.1115 40.1379 15.1323 40.1379 11.4573C40.1379 7.78234 37.1587 4.80322 33.4837 4.80322C29.8087 4.80322 26.8296 7.78234 26.8296 11.4573C26.8296 15.1323 29.8087 18.1115 33.4837 18.1115Z" fill="#FE5D26"/>
<path d="M26.8296 24.7582C30.5046 24.7582 33.4837 21.7791 33.4837 18.1041C33.4837 14.4291 30.5046 11.45 26.8296 11.45C23.1546 11.45 20.1755 14.4291 20.1755 18.1041C20.1755 21.7791 23.1546 24.7582 26.8296 24.7582Z" fill="#141414"/>
<path d="M40.1379 24.7582C43.8128 24.7582 46.792 21.7791 46.792 18.1041C46.792 14.4291 43.8128 11.45 40.1379 11.45C36.4629 11.45 33.4837 14.4291 33.4837 18.1041C33.4837 21.7791 36.4629 24.7582 40.1379 24.7582Z" fill="#141414"/>
<path d="M26.8296 11.4499C30.5046 11.4499 33.4837 8.47071 33.4837 4.79574C33.4837 1.12076 30.5046 -1.8584 26.8296 -1.8584C23.1546 -1.8584 20.1754 1.12076 20.1754 4.79574C20.1754 8.47071 23.1546 11.4499 26.8296 11.4499Z" fill="#141414"/>
<path d="M40.1379 11.4499C43.8128 11.4499 46.792 8.47071 46.792 4.79574C46.792 1.12076 43.8128 -1.8584 40.1379 -1.8584C36.4629 -1.8584 33.4837 1.12076 33.4837 4.79574C33.4837 8.47071 36.4629 11.4499 40.1379 11.4499Z" fill="#141414"/>
</g>
<g clip-path="url(#clip2_160_8420)">
<path d="M47.6796 14.5584C49.3946 14.5584 50.7849 13.1681 50.7849 11.4531C50.7849 9.73816 49.3946 8.3479 47.6796 8.3479C45.9646 8.3479 44.5744 9.73816 44.5744 11.4531C44.5744 13.1681 45.9646 14.5584 47.6796 14.5584Z" fill="#FE5D26"/>
<path d="M44.5744 17.6602C46.2894 17.6602 47.6797 16.27 47.6797 14.555C47.6797 12.84 46.2894 11.4497 44.5744 11.4497C42.8594 11.4497 41.4691 12.84 41.4691 14.555C41.4691 16.27 42.8594 17.6602 44.5744 17.6602Z" fill="#141414"/>
<path d="M50.7847 17.6602C52.4997 17.6602 53.8899 16.27 53.8899 14.555C53.8899 12.84 52.4997 11.4497 50.7847 11.4497C49.0697 11.4497 47.6794 12.84 47.6794 14.555C47.6794 16.27 49.0697 17.6602 50.7847 17.6602Z" fill="#141414"/>
<path d="M44.5744 11.4498C46.2894 11.4498 47.6797 10.0595 47.6797 8.34452C47.6797 6.62953 46.2894 5.23926 44.5744 5.23926C42.8594 5.23926 41.4691 6.62953 41.4691 8.34452C41.4691 10.0595 42.8594 11.4498 44.5744 11.4498Z" fill="#141414"/>
<path d="M50.7847 11.4498C52.4997 11.4498 53.8899 10.0595 53.8899 8.34452C53.8899 6.62953 52.4997 5.23926 50.7847 5.23926C49.0697 5.23926 47.6794 6.62953 47.6794 8.34452C47.6794 10.0595 49.0697 11.4498 50.7847 11.4498Z" fill="#141414"/>
</g>
<defs>
<clipPath id="clip0_160_8420">
<rect width="22.1805" height="22.1805" fill="white" transform="translate(0.213043 0.359619)"/>
</clipPath>
<clipPath id="clip1_160_8420">
<rect width="13.3083" height="13.3083" fill="white" transform="translate(26.8296 4.79565)"/>
</clipPath>
<clipPath id="clip2_160_8420">
<rect width="6.21053" height="6.21053" fill="white" transform="translate(44.574 8.34448)"/>
</clipPath>
</defs>
</svg>
