<svg width="26" height="26" viewBox="0 0 26 26" fill="none" xmlns="http://www.w3.org/2000/svg">
<path d="M12.9175 3.65482C13.118 3.56721 13.346 3.56721 13.5465 3.65482C17.4417 5.35668 21.1333 7.4371 24.5749 9.84949C24.824 10.0241 24.9499 10.3267 24.8981 10.6264C24.8463 10.9262 24.6262 11.1691 24.333 11.25C23.6156 11.448 22.9044 11.6613 22.1997 11.8886C19.3391 12.8111 16.5855 13.9719 13.9621 15.3476L13.9587 15.3494C13.8398 15.4118 13.7211 15.4746 13.6027 15.5378C13.3714 15.6614 13.0936 15.6614 12.8623 15.5378C12.7428 15.474 12.6229 15.4105 12.5029 15.3476C11.2057 14.6673 9.87665 14.0397 8.5186 13.4673V13.233C8.5186 13.0955 8.58921 12.9734 8.69847 12.9072C10.2749 11.9521 11.9011 11.0709 13.5721 10.2682C13.9631 10.0804 14.1279 9.61109 13.94 9.22001C13.7522 8.82893 13.2829 8.66418 12.8918 8.85203C11.1748 9.67674 9.50406 10.5822 7.88438 11.5634C7.40951 11.8511 7.09027 12.322 6.98526 12.8495C6.08981 12.505 5.18258 12.1842 4.26432 11.8881C3.5596 11.6608 2.84838 11.448 2.13101 11.25C1.83782 11.1691 1.61769 10.9262 1.56593 10.6264C1.51417 10.3267 1.64007 10.0241 1.88913 9.84947C5.33075 7.43709 9.02237 5.35667 12.9175 3.65482Z" fill="#34A353"/>
<path d="M14.3431 16.9236C16.8976 15.5587 19.5814 14.4048 22.3714 13.4851C22.5121 14.967 22.6018 16.4636 22.639 17.9731C22.647 18.297 22.4553 18.5926 22.1564 18.7174C19.17 19.9642 16.3295 21.4909 13.6676 23.2648C13.4038 23.4407 13.0602 23.4407 12.7963 23.2648C10.1344 21.4909 7.29389 19.9642 4.30758 18.7174C4.00861 18.5926 3.81694 18.297 3.82492 17.9731C3.86211 16.4635 3.9519 14.9667 4.09253 13.4847C5.05719 13.8027 6.00916 14.1487 6.94748 14.5217V15.8523C6.47787 16.124 6.16192 16.6317 6.16192 17.2132C6.16192 17.732 6.41338 18.1921 6.80107 18.4782C6.70731 18.8769 6.56855 19.267 6.38478 19.6406C6.85894 19.8644 7.32904 20.0954 7.79494 20.3334C8.06029 19.7938 8.25268 19.2273 8.37211 18.6489C8.92132 18.4041 9.30415 17.8534 9.30415 17.2132C9.30415 16.6317 8.9882 16.124 8.5186 15.8523V15.177C9.74553 15.7131 10.9474 16.296 12.1219 16.9236C12.8159 17.2944 13.6491 17.2944 14.3431 16.9236Z" fill="#34A353"/>
<path d="M5.3368 21.1015C5.7758 20.6625 6.12529 20.1681 6.38478 19.6406C6.85894 19.8644 7.32904 20.0954 7.79494 20.3334C7.46128 21.012 7.01204 21.6482 6.44774 22.2125C6.14096 22.5193 5.64358 22.5193 5.3368 22.2125C5.03002 21.9057 5.03002 21.4083 5.3368 21.1015Z" fill="#34A353"/>
</svg>
