<svg width="56" height="56" viewBox="0 0 56 56" fill="none" xmlns="http://www.w3.org/2000/svg">
<rect x="1.24565" y="1.15898" width="53.9724" height="53.9724" rx="26.9862" fill="#141414"/>
<rect x="1.24565" y="1.15898" width="53.9724" height="53.9724" rx="26.9862" stroke="#34A353" stroke-width="0.739348"/>
<path fill-rule="evenodd" clip-rule="evenodd" d="M26.9625 18.9391C27.4321 17.81 29.0316 17.81 29.5012 18.9391L31.6819 24.1821L37.3422 24.6359C38.5611 24.7336 39.0553 26.2548 38.1267 27.0503L33.8141 30.7444L35.1317 36.2679C35.4154 37.4574 34.1214 38.3975 33.0779 37.7601L28.2319 34.8002L23.3859 37.7601C22.3423 38.3975 21.0483 37.4574 21.3321 36.2679L22.6496 30.7444L18.3371 27.0503C17.4084 26.2548 17.9026 24.7336 19.1215 24.6359L24.7818 24.1821L26.9625 18.9391Z" fill="#34A353"/>
</svg>
