<svg width="56" height="56" viewBox="0 0 56 56" fill="none" xmlns="http://www.w3.org/2000/svg">
<rect x="1.24565" y="1.29936" width="53.9724" height="53.9724" rx="26.9862" fill="#141414"/>
<rect x="1.24565" y="1.29936" width="53.9724" height="53.9724" rx="26.9862" stroke="#34A353" stroke-width="0.739348"/>
<path d="M27.9175 18.6548C28.118 18.5672 28.346 18.5672 28.5465 18.6548C32.4417 20.3567 36.1333 22.4371 39.5749 24.8495C39.824 25.0241 39.9499 25.3267 39.8981 25.6264C39.8463 25.9262 39.6262 26.1691 39.333 26.25C38.6156 26.448 37.9044 26.6613 37.1997 26.8886C34.3391 27.8111 31.5855 28.9719 28.9621 30.3476L28.9587 30.3494C28.8398 30.4118 28.7211 30.4746 28.6027 30.5378C28.3714 30.6614 28.0936 30.6614 27.8623 30.5378C27.7428 30.474 27.6229 30.4105 27.5029 30.3476C26.2057 29.6673 24.8766 29.0397 23.5186 28.4673V28.233C23.5186 28.0955 23.5892 27.9734 23.6985 27.9072C25.2749 26.9521 26.9011 26.0709 28.5721 25.2682C28.9631 25.0804 29.1279 24.6111 28.94 24.22C28.7522 23.8289 28.2829 23.6642 27.8918 23.852C26.1748 24.6767 24.5041 25.5822 22.8844 26.5634C22.4095 26.8511 22.0903 27.322 21.9853 27.8495C21.0898 27.505 20.1826 27.1842 19.2643 26.8881C18.5596 26.6608 17.8484 26.448 17.131 26.25C16.8378 26.1691 16.6177 25.9262 16.5659 25.6264C16.5142 25.3267 16.6401 25.0241 16.8891 24.8495C20.3308 22.4371 24.0224 20.3567 27.9175 18.6548Z" fill="#34A353"/>
<path d="M29.3431 31.9236C31.8976 30.5587 34.5814 29.4048 37.3714 28.4851C37.5121 29.967 37.6018 31.4636 37.639 32.9731C37.647 33.297 37.4553 33.5926 37.1564 33.7174C34.17 34.9642 31.3295 36.4909 28.6676 38.2648C28.4038 38.4407 28.0602 38.4407 27.7963 38.2648C25.1344 36.4909 22.2939 34.9642 19.3076 33.7174C19.0086 33.5926 18.8169 33.297 18.8249 32.9731C18.8621 31.4635 18.9519 29.9667 19.0925 28.4847C20.0572 28.8027 21.0092 29.1487 21.9475 29.5217V30.8523C21.4779 31.124 21.1619 31.6317 21.1619 32.2132C21.1619 32.732 21.4134 33.1921 21.8011 33.4782C21.7073 33.8769 21.5686 34.267 21.3848 34.6406C21.8589 34.8644 22.329 35.0954 22.7949 35.3334C23.0603 34.7938 23.2527 34.2273 23.3721 33.6489C23.9213 33.4041 24.3042 32.8534 24.3042 32.2132C24.3042 31.6317 23.9882 31.124 23.5186 30.8523V30.177C24.7455 30.7131 25.9474 31.296 27.1219 31.9236C27.8159 32.2944 28.6491 32.2944 29.3431 31.9236Z" fill="#34A353"/>
<path d="M20.3368 36.1015C20.7758 35.6625 21.1253 35.1681 21.3848 34.6406C21.8589 34.8644 22.329 35.0954 22.7949 35.3334C22.4613 36.012 22.012 36.6482 21.4477 37.2125C21.141 37.5193 20.6436 37.5193 20.3368 37.2125C20.03 36.9057 20.03 36.4083 20.3368 36.1015Z" fill="#34A353"/>
</svg>
