<svg width="67" height="67" viewBox="0 0 67 67" fill="none" xmlns="http://www.w3.org/2000/svg">
<rect x="-0.00244141" width="66.5163" height="66.5163" rx="33.2581" fill="url(#paint0_linear_160_8401)" fill-opacity="0.05"/>
<rect x="8.71936" y="8.72192" width="49.0727" height="49.0727" rx="24.5363" fill="url(#paint1_linear_160_8401)" fill-opacity="0.1"/>
<rect x="9.08277" y="9.08533" width="48.3459" height="48.3459" rx="24.1729" stroke="url(#paint2_linear_160_8401)" stroke-opacity="0.2" stroke-width="0.726817"/>
<path d="M33.2557 37.7583C32.7529 37.7584 32.2685 37.5691 31.899 37.2281C31.5295 36.8872 31.302 36.4195 31.2617 35.9183C29.9279 35.4462 28.8038 34.518 28.0878 33.2977C27.3717 32.0773 27.1099 30.6432 27.3484 29.2486C27.5869 27.8539 28.3104 26.5883 29.3913 25.6753C30.4721 24.7622 31.8408 24.2604 33.2557 24.2583C34.7606 24.2581 36.2107 24.8234 37.3183 25.8421C38.426 26.8609 39.1103 28.2586 39.2357 29.7583C39.2399 29.8233 39.2305 29.8886 39.2081 29.9498C39.1858 30.011 39.1509 30.0669 39.1058 30.1139C39.0606 30.1609 39.0062 30.1981 38.9459 30.2229C38.8857 30.2478 38.8209 30.2598 38.7557 30.2583C38.6218 30.2549 38.4939 30.2019 38.3969 30.1095C38.2998 30.0171 38.2406 29.8919 38.2307 29.7583C38.1417 28.8741 37.8186 28.0297 37.2947 27.3119C36.7709 26.5941 36.0652 26.0288 35.2503 25.6744C34.4354 25.3199 33.5407 25.1891 32.6585 25.2952C31.7762 25.4014 30.9382 25.7408 30.2306 26.2785C29.5231 26.8162 28.9717 27.5327 28.6331 28.3543C28.2945 29.1759 28.181 30.0729 28.3042 30.953C28.4275 31.833 28.7831 32.6643 29.3344 33.3613C29.8857 34.0582 30.6127 34.5957 31.4407 34.9183C31.5914 34.5928 31.8268 34.3137 32.1224 34.1104C32.418 33.9072 32.7628 33.7871 33.1207 33.7629C33.4786 33.7386 33.8364 33.8111 34.1567 33.9727C34.4769 34.1343 34.7479 34.379 34.941 34.6813C35.1342 34.9836 35.2425 35.3322 35.2546 35.6907C35.2668 36.0492 35.1822 36.4044 35.0099 36.719C34.8376 37.0337 34.5838 37.2962 34.2752 37.479C33.9666 37.6618 33.6145 37.7583 33.2557 37.7583ZM28.2647 35.2583H28.3557C28.9461 35.8374 29.6344 36.3074 30.3887 36.6463C30.6104 37.3777 31.1029 37.997 31.7657 38.3776C32.4285 38.7583 33.2115 38.8716 33.955 38.6945C34.6985 38.5173 35.3464 38.0631 35.7663 37.4245C36.1863 36.7859 36.3467 36.0111 36.2147 35.2583H38.2557C38.7862 35.2583 39.2949 35.469 39.67 35.8441C40.045 36.2192 40.2557 36.7279 40.2557 37.2583C40.2557 38.9493 39.4227 40.2243 38.1207 41.0553C36.8387 41.8723 35.1107 42.2583 33.2557 42.2583C31.4007 42.2583 29.6727 41.8723 28.3907 41.0553C27.0887 40.2253 26.2557 38.9483 26.2557 37.2583C26.2557 36.1453 27.1587 35.2583 28.2647 35.2583ZM37.2557 30.2583C37.256 30.9349 37.0845 31.6006 36.7575 32.1929C36.4304 32.7853 35.9585 33.285 35.3857 33.6453C35.1068 33.3642 34.775 33.1411 34.4094 32.9888C34.0438 32.8366 33.6517 32.7582 33.2557 32.7583C32.8597 32.7582 32.4676 32.8366 32.1021 32.9888C31.7365 33.1411 31.4047 33.3642 31.1257 33.6453C30.3662 33.1676 29.7892 32.4484 29.4877 31.6033C29.3339 31.1716 29.2554 30.7166 29.2557 30.2583C29.2557 29.1974 29.6772 28.18 30.4273 27.4299C31.1775 26.6797 32.1949 26.2583 33.2557 26.2583C34.3166 26.2583 35.334 26.6797 36.0842 27.4299C36.8343 28.18 37.2557 29.1974 37.2557 30.2583Z" fill="#4280EF"/>
<defs>
<linearGradient id="paint0_linear_160_8401" x1="33.2557" y1="0" x2="33.2557" y2="66.5163" gradientUnits="userSpaceOnUse">
<stop stop-color="#FE5D26"/>
<stop offset="1" stop-color="#FE5D26" stop-opacity="0"/>
</linearGradient>
<linearGradient id="paint1_linear_160_8401" x1="33.2557" y1="-23.7722" x2="33.2557" y2="135.383" gradientUnits="userSpaceOnUse">
<stop stop-color="#FE5D26"/>
<stop offset="0.467671" stop-color="#FE5D26" stop-opacity="0"/>
</linearGradient>
<linearGradient id="paint2_linear_160_8401" x1="33.2557" y1="-76.4921" x2="33.2557" y2="102.225" gradientUnits="userSpaceOnUse">
<stop stop-color="#FE5D26"/>
<stop offset="0.716291" stop-color="#FE5D26" stop-opacity="0"/>
</linearGradient>
</defs>
</svg>
