<svg width="72" height="72" viewBox="0 0 72 72" fill="none" xmlns="http://www.w3.org/2000/svg">
<rect x="0.471191" width="71.2281" height="71.2281" rx="35.614" fill="url(#paint0_linear_160_8393)" fill-opacity="0.05"/>
<rect x="9.19299" y="8.72192" width="53.7845" height="53.7845" rx="26.8922" fill="url(#paint1_linear_160_8393)" fill-opacity="0.1"/>
<rect x="9.5564" y="9.08533" width="53.0576" height="53.0576" rx="26.5288" stroke="url(#paint2_linear_160_8393)" stroke-opacity="0.2" stroke-width="0.726817"/>
<path d="M36.0852 30.9806C34.8057 30.9806 33.7685 32.0179 33.7685 33.2974C33.7685 34.5769 34.8057 35.6141 36.0852 35.6141C37.3647 35.6141 38.4019 34.5769 38.4019 33.2974C38.4019 32.0179 37.3647 30.9806 36.0852 30.9806Z" fill="#4280EF"/>
<path fill-rule="evenodd" clip-rule="evenodd" d="M25.2738 28.2778C25.2738 27.2115 26.1382 26.3472 27.2044 26.3472H44.966C46.0322 26.3472 46.8966 27.2115 46.8966 28.2778V38.3169C46.8966 39.3832 46.0322 40.2475 44.966 40.2475H27.2044C26.1382 40.2475 25.2738 39.3832 25.2738 38.3169V28.2778ZM32.224 33.2974C32.224 31.1649 33.9527 29.4361 36.0852 29.4361C38.2177 29.4361 39.9464 31.1649 39.9464 33.2974C39.9464 35.4298 38.2177 37.1586 36.0852 37.1586C33.9527 37.1586 32.224 35.4298 32.224 33.2974ZM43.0354 32.5251C42.6089 32.5251 42.2632 32.8709 42.2632 33.2974V33.3051C42.2632 33.7316 42.6089 34.0773 43.0354 34.0773H43.0431C43.4696 34.0773 43.8154 33.7316 43.8154 33.3051V33.2974C43.8154 32.8709 43.4696 32.5251 43.0431 32.5251H43.0354ZM28.3628 33.2974C28.3628 32.8709 28.7085 32.5251 29.135 32.5251H29.1427C29.5692 32.5251 29.915 32.8709 29.915 33.2974V33.3051C29.915 33.7316 29.5692 34.0773 29.1427 34.0773H29.135C28.7085 34.0773 28.3628 33.7316 28.3628 33.3051V33.2974Z" fill="#4280EF"/>
<path d="M26.046 41.792C25.6195 41.792 25.2738 42.1378 25.2738 42.5643C25.2738 42.9908 25.6195 43.3365 26.046 43.3365C31.6062 43.3365 36.9915 44.0802 42.1085 45.4729C43.3344 45.8066 44.5799 44.8983 44.5799 43.5992V42.5643C44.5799 42.1378 44.2341 41.792 43.8076 41.792H26.046Z" fill="#4280EF"/>
<defs>
<linearGradient id="paint0_linear_160_8393" x1="36.0852" y1="0" x2="36.0852" y2="71.2281" gradientUnits="userSpaceOnUse">
<stop stop-color="#FE5D26"/>
<stop offset="1" stop-color="#FE5D26" stop-opacity="0"/>
</linearGradient>
<linearGradient id="paint1_linear_160_8393" x1="36.0852" y1="-26.8921" x2="36.0852" y2="147.544" gradientUnits="userSpaceOnUse">
<stop stop-color="#FE5D26"/>
<stop offset="0.467671" stop-color="#FE5D26" stop-opacity="0"/>
</linearGradient>
<linearGradient id="paint2_linear_160_8393" x1="36.0852" y1="-84.6741" x2="36.0852" y2="111.203" gradientUnits="userSpaceOnUse">
<stop stop-color="#FE5D26"/>
<stop offset="0.716291" stop-color="#FE5D26" stop-opacity="0"/>
</linearGradient>
</defs>
</svg>
