<svg width="72" height="72" viewBox="0 0 72 72" fill="none" xmlns="http://www.w3.org/2000/svg">
<rect x="0.30072" width="71.2281" height="71.2281" rx="35.614" fill="url(#paint0_linear_160_8385)" fill-opacity="0.05"/>
<rect x="9.02252" y="8.72192" width="53.7845" height="53.7845" rx="26.8922" fill="url(#paint1_linear_160_8385)" fill-opacity="0.1"/>
<rect x="9.38593" y="9.08533" width="53.0576" height="53.0576" rx="26.5288" stroke="url(#paint2_linear_160_8385)" stroke-opacity="0.2" stroke-width="0.726817"/>
<path d="M27.0339 26.3472C25.9677 26.3472 25.1033 27.2115 25.1033 28.2778V29.05C25.1033 30.1163 25.9677 30.9806 27.0339 30.9806H44.7955C45.8618 30.9806 46.7261 30.1163 46.7261 29.05V28.2778C46.7261 27.2115 45.8618 26.3472 44.7955 26.3472H27.0339Z" fill="#4280EF"/>
<path fill-rule="evenodd" clip-rule="evenodd" d="M26.7372 32.5251L27.293 41.9734C27.389 43.6061 28.7411 44.881 30.3766 44.881H41.4526C43.0881 44.881 44.4402 43.6061 44.5362 41.9734L45.092 32.5251H26.7372ZM35.9147 34.0696C36.3412 34.0696 36.687 34.4153 36.687 34.8418V39.9277L38.4576 38.157C38.7592 37.8554 39.2482 37.8554 39.5498 38.157C39.8513 38.4586 39.8513 38.9475 39.5498 39.2491L36.4608 42.3381C36.1592 42.6397 35.6703 42.6397 35.3687 42.3381L32.2797 39.2491C31.9781 38.9475 31.9781 38.4586 32.2797 38.157C32.5813 37.8554 33.0702 37.8554 33.3718 38.157L35.1425 39.9277V34.8418C35.1425 34.4153 35.4882 34.0696 35.9147 34.0696Z" fill="#4280EF"/>
<defs>
<linearGradient id="paint0_linear_160_8385" x1="35.9148" y1="0" x2="35.9148" y2="71.2281" gradientUnits="userSpaceOnUse">
<stop stop-color="#FE5D26"/>
<stop offset="1" stop-color="#FE5D26" stop-opacity="0"/>
</linearGradient>
<linearGradient id="paint1_linear_160_8385" x1="35.9148" y1="-26.8921" x2="35.9148" y2="147.544" gradientUnits="userSpaceOnUse">
<stop stop-color="#FE5D26"/>
<stop offset="0.467671" stop-color="#FE5D26" stop-opacity="0"/>
</linearGradient>
<linearGradient id="paint2_linear_160_8385" x1="35.9148" y1="-84.6741" x2="35.9148" y2="111.203" gradientUnits="userSpaceOnUse">
<stop stop-color="#FE5D26"/>
<stop offset="0.716291" stop-color="#FE5D26" stop-opacity="0"/>
</linearGradient>
</defs>
</svg>
