<svg width="55" height="55" viewBox="0 0 55 55" fill="none" xmlns="http://www.w3.org/2000/svg">
<rect x="0.852112" y="0.72168" width="53.7845" height="53.7845" rx="26.8922" fill="url(#paint0_linear_160_8378)" fill-opacity="0.1"/>
<rect x="1.21552" y="1.08509" width="53.0576" height="53.0576" rx="26.5288" stroke="url(#paint1_linear_160_8378)" stroke-opacity="0.2" stroke-width="0.726817"/>
<path d="M26.2027 30.6531C25.5089 30.6531 25.1025 30.2625 25.1025 29.5616V28.7505C22.1883 28.5502 19.284 27.9494 16.2707 26.7978V25.1456C19.9779 26.7878 23.6949 27.3686 27.7391 27.3686C31.7932 27.3686 35.5102 26.7878 39.2174 25.1456V26.7978C36.2041 27.9494 33.2998 28.5502 30.3856 28.7505V29.5616C30.3856 30.2625 29.9792 30.6531 29.2854 30.6531H26.2027ZM19.3336 37.3121H36.1545C38.2063 37.3121 39.2174 36.3108 39.2174 34.2579V24.5147C39.2174 22.4619 38.2063 21.4606 36.1545 21.4606H19.3336C17.2917 21.4606 16.2707 22.4619 16.2707 24.5147V34.2579C16.2707 36.3108 17.2917 37.3121 19.3336 37.3121ZM22.7136 22.3318H24.25V20.5594C24.25 19.7983 24.6961 19.3677 25.4692 19.3677H30.0189C30.7921 19.3677 31.2282 19.7983 31.2282 20.5594V22.3117H32.7646V20.6695C32.7646 18.787 31.7832 17.9058 29.9892 17.9058H25.489C23.7941 17.9058 22.7136 18.787 22.7136 20.6695V22.3318Z" fill="#4280EF"/>
<defs>
<linearGradient id="paint0_linear_160_8378" x1="27.7443" y1="-34.8924" x2="27.7443" y2="139.544" gradientUnits="userSpaceOnUse">
<stop stop-color="#FE5D26"/>
<stop offset="0.467671" stop-color="#FE5D26" stop-opacity="0"/>
</linearGradient>
<linearGradient id="paint1_linear_160_8378" x1="27.7443" y1="-92.6743" x2="27.7443" y2="103.203" gradientUnits="userSpaceOnUse">
<stop stop-color="#FED6C9"/>
<stop offset="0.716291" stop-color="#FE5D26" stop-opacity="0"/>
</linearGradient>
</defs>
</svg>
