<svg width="28" height="29" viewBox="0 0 28 29" fill="currentColor" xmlns="http://www.w3.org/2000/svg">
<path fill-rule="evenodd" clip-rule="evenodd" d="M10.1654 4.62695C10.6027 4.62695 10.9871 4.91686 11.1072 5.33736L12.1692 9.05445C12.6341 10.6814 13.9059 11.9532 15.5328 12.418L19.2499 13.4801C19.6704 13.6002 19.9603 13.9846 19.9603 14.4219C19.9603 14.8592 19.6704 15.2435 19.2499 15.3637L15.5328 16.4257C13.9059 16.8906 12.6341 18.1623 12.1692 19.7893L11.1072 23.5064C10.9871 23.9269 10.6027 24.2168 10.1654 24.2168C9.72808 24.2168 9.34374 23.9269 9.2236 23.5064L8.16157 19.7893C7.69672 18.1623 6.42496 16.8906 4.79798 16.4257L1.08089 15.3637C0.660391 15.2435 0.370483 14.8592 0.370483 14.4219C0.370483 13.9846 0.660391 13.6002 1.08089 13.4801L4.79798 12.418C6.42496 11.9532 7.69672 10.6814 8.16157 9.05445L9.2236 5.33736C9.34374 4.91686 9.72808 4.62695 10.1654 4.62695Z" fill="white"/>
<path fill-rule="evenodd" clip-rule="evenodd" d="M21.9193 0.708984C22.3688 0.708984 22.7605 1.01488 22.8696 1.45091L23.2076 2.80322C23.5147 4.0315 24.4737 4.99054 25.702 5.29761L27.0543 5.63569C27.4904 5.7447 27.7963 6.13648 27.7963 6.58594C27.7963 7.03539 27.4904 7.42718 27.0543 7.53618L25.702 7.87426C24.4737 8.18133 23.5147 9.14038 23.2076 10.3687L22.8696 11.721C22.7605 12.157 22.3688 12.4629 21.9193 12.4629C21.4699 12.4629 21.0781 12.157 20.9691 11.721L20.631 10.3687C20.3239 9.14038 19.3649 8.18133 18.1366 7.87426L16.7843 7.53618C16.3483 7.42718 16.0424 7.03539 16.0424 6.58594C16.0424 6.13648 16.3483 5.7447 16.7843 5.63569L18.1366 5.29762C19.3649 4.99054 20.3239 4.0315 20.631 2.80322L20.9691 1.45091C21.0781 1.01488 21.4699 0.708984 21.9193 0.708984Z" fill="white"/>
<path fill-rule="evenodd" clip-rule="evenodd" d="M19.9603 18.3398C20.3819 18.3398 20.7562 18.6096 20.8896 19.0096L21.4044 20.5542C21.5994 21.1392 22.0584 21.5982 22.6434 21.7932L24.188 22.3081C24.588 22.4414 24.8578 22.8157 24.8578 23.2373C24.8578 23.6589 24.588 24.0332 24.188 24.1665L22.6434 24.6814C22.0584 24.8764 21.5994 25.3354 21.4044 25.9204L20.8896 27.465C20.7562 27.865 20.3819 28.1348 19.9603 28.1348C19.5387 28.1348 19.1644 27.865 19.0311 27.465L18.5162 25.9204C18.3212 25.3354 17.8622 24.8764 17.2773 24.6814L15.7326 24.1665C15.3326 24.0332 15.0629 23.6589 15.0629 23.2373C15.0629 22.8157 15.3326 22.4414 15.7326 22.3081L17.2773 21.7932C17.8622 21.5982 18.3212 21.1392 18.5162 20.5542L19.0311 19.0096C19.1644 18.6096 19.5387 18.3398 19.9603 18.3398Z" fill="white"/>
</svg>
