<svg width="22" height="31" viewBox="0 0 22 31" fill="none" xmlns="http://www.w3.org/2000/svg">
<path d="M11 0.729492C5.04949 0.729492 0.225616 5.55336 0.225616 11.5039C0.225616 15.4882 2.38874 18.9661 5.59997 20.8293C6.49517 21.3487 7.05575 22.1456 7.08112 22.9477C7.09511 23.3901 7.40407 23.7682 7.83484 23.87C8.29374 23.9784 8.76137 24.0638 9.23641 24.1248C9.65903 24.1791 10.0208 23.8406 10.0208 23.4145V17.3272C9.6038 17.2811 9.19519 17.2059 8.79714 17.1034C8.27325 16.9686 7.95787 16.4346 8.09271 15.9107C8.22754 15.3868 8.76155 15.0714 9.28543 15.2062C9.8324 15.347 10.4068 15.4221 11.0003 15.4221C11.5937 15.4221 12.1681 15.347 12.7151 15.2062C13.239 15.0714 13.773 15.3868 13.9078 15.9107C14.0427 16.4346 13.7273 16.9686 13.2034 17.1034C12.8053 17.2059 12.3967 17.2811 11.9798 17.3272V23.4144C11.9798 23.8406 12.3415 24.1791 12.7642 24.1248C13.239 24.0637 13.7065 23.9784 14.1652 23.87C14.596 23.7682 14.905 23.3901 14.9189 22.9477C14.9443 22.1456 15.5049 21.3487 16.4001 20.8293C19.6113 18.9661 21.7744 15.4882 21.7744 11.5039C21.7744 5.55336 16.9506 0.729492 11 0.729492Z" fill="white"/>
<path fill-rule="evenodd" clip-rule="evenodd" d="M7.09922 25.7387C7.20004 25.2073 7.71262 24.8581 8.2441 24.959C9.13605 25.1282 10.0572 25.2168 11 25.2168C11.9428 25.2168 12.864 25.1282 13.756 24.959C14.2874 24.8581 14.8 25.2073 14.9008 25.7387C15.0017 26.2702 14.6525 26.7828 14.1211 26.8836C13.1094 27.0755 12.066 27.1758 11 27.1758C9.93411 27.1758 8.89071 27.0755 7.87901 26.8836C7.34753 26.7828 6.9984 26.2702 7.09922 25.7387Z" fill="white"/>
<path fill-rule="evenodd" clip-rule="evenodd" d="M8.06687 28.931C8.12315 28.393 8.60493 28.0024 9.14296 28.0587C9.75296 28.1225 10.3725 28.1553 11 28.1553C11.6276 28.1553 12.2471 28.1225 12.8571 28.0587C13.3951 28.0024 13.8769 28.393 13.9332 28.931C13.9895 29.469 13.5989 29.9508 13.0609 30.0071C12.3833 30.078 11.6958 30.1143 11 30.1143C10.3043 30.1143 9.61673 30.078 8.93914 30.0071C8.40111 29.9508 8.01059 29.469 8.06687 28.931Z" fill="white"/>
</svg>
