<svg width="24" height="29" viewBox="0 0 24 29" fill="none" xmlns="http://www.w3.org/2000/svg">
<path fill-rule="evenodd" clip-rule="evenodd" d="M11.9166 0.708984C12.4576 0.708984 12.8961 1.14752 12.8961 1.68848V4.62695C12.8961 5.16791 12.4576 5.60645 11.9166 5.60645C11.3757 5.60645 10.9372 5.16791 10.9372 4.62695V1.68848C10.9372 1.14752 11.3757 0.708984 11.9166 0.708984ZM3.60538 4.15162C3.9879 3.76911 4.60808 3.76911 4.99059 4.15162L7.06841 6.22944C7.45093 6.61196 7.45093 7.23214 7.06841 7.61465C6.68589 7.99717 6.06571 7.99717 5.6832 7.61465L3.60538 5.53683C3.22287 5.15432 3.22287 4.53414 3.60538 4.15162ZM20.2279 4.15162C20.6104 4.53414 20.6104 5.15432 20.2279 5.53683L18.1501 7.61465C17.7676 7.99717 17.1474 7.99717 16.7649 7.61465C16.3824 7.23214 16.3824 6.61196 16.7649 6.22944L18.8427 4.15162C19.2252 3.76911 19.8454 3.76911 20.2279 4.15162ZM11.3269 10.023C11.7341 9.91391 12.1655 10.0776 12.3978 10.4295L19.2244 20.7688C19.4426 21.0994 19.4403 21.529 19.2184 21.8571C18.9965 22.1853 18.5987 22.3475 18.2106 22.2681L15.4716 21.7077L16.836 26.7996C16.976 27.3222 16.6659 27.8593 16.1434 27.9993C15.6209 28.1393 15.0838 27.8292 14.9438 27.3067L13.5794 22.2147L11.4879 24.0694C11.1915 24.3323 10.7659 24.3907 10.4097 24.2174C10.0534 24.0442 9.83656 23.6734 9.8603 23.2779L10.6026 10.9105C10.6279 10.4896 10.9196 10.1321 11.3269 10.023ZM0.162743 12.4629C0.162743 11.9219 0.601276 11.4834 1.14223 11.4834H4.08071C4.62167 11.4834 5.0602 11.9219 5.0602 12.4629C5.0602 13.0038 4.62167 13.4424 4.08071 13.4424H1.14223C0.601276 13.4424 0.162743 13.0038 0.162743 12.4629ZM18.7731 12.4629C18.7731 11.9219 19.2116 11.4834 19.7526 11.4834H22.6911C23.232 11.4834 23.6706 11.9219 23.6706 12.4629C23.6706 13.0038 23.232 13.4424 22.6911 13.4424H19.7526C19.2116 13.4424 18.7731 13.0038 18.7731 12.4629ZM7.06841 17.3111C7.45092 17.6936 7.45092 18.3138 7.06841 18.6963L4.99059 20.7742C4.60808 21.1567 3.9879 21.1567 3.60538 20.7742C3.22287 20.3916 3.22287 19.7715 3.60538 19.3889L5.6832 17.3111C6.06571 16.9286 6.68589 16.9286 7.06841 17.3111Z" fill="white"/>
</svg>
