<svg width="16" height="28" viewBox="0 0 16 28" fill="none" xmlns="http://www.w3.org/2000/svg">
<path d="M0.963597 13.5468C0.963597 10.0547 0.955141 6.55424 0.963597 3.06221C0.963597 1.62481 1.69075 0.576353 2.9675 0.162044C3.27189 0.0605808 3.60165 0.0183044 3.92295 0.0183044C6.87384 0.00984907 9.81628 0.00984907 12.7587 0.0183044C14.4751 0.0267596 15.7265 1.26969 15.7265 2.97765C15.735 10.0209 15.735 17.0642 15.7265 24.1159C15.7265 25.8238 14.4751 27.0752 12.7672 27.0752C9.85011 27.0837 6.93303 27.0837 4.01596 27.0752C2.18961 27.0752 0.972052 25.8746 0.972052 24.0313C0.955141 20.5308 0.963597 17.0388 0.963597 13.5468ZM8.35352 2.47034C7.77856 2.47034 7.2036 2.47034 6.62864 2.47034C6.17205 2.47879 5.9184 2.69017 5.90994 3.06221C5.90149 3.4427 6.13823 3.70481 6.57791 3.70481C7.76165 3.72172 8.93693 3.72172 10.1207 3.70481C10.5434 3.69635 10.8309 3.40887 10.814 3.06221C10.7971 2.70709 10.5181 2.47034 10.0869 2.47034C9.50344 2.47034 8.92848 2.47034 8.35352 2.47034ZM8.35352 22.1627C7.66018 22.1627 7.11059 22.7038 7.11905 23.3887C7.1275 24.0651 7.69401 24.6147 8.37043 24.6063C9.02994 24.5978 9.56262 24.0651 9.57108 23.3972C9.57108 22.6954 9.04685 22.1712 8.35352 22.1627Z" fill="white"/>
</svg>
