<svg width="24" height="29" viewBox="0 0 24 29" fill="none" xmlns="http://www.w3.org/2000/svg">
<path fill-rule="evenodd" clip-rule="evenodd" d="M15.4155 0.95799C15.8089 1.17732 16.002 1.63668 15.8835 2.07123L13.2824 11.6084H22.7744C23.1645 11.6084 23.5173 11.8398 23.6728 12.1975C23.8282 12.5553 23.7566 12.9711 23.4905 13.2563L9.77761 27.9486C9.47028 28.2779 8.978 28.3552 8.58459 28.1358C8.19117 27.9165 7.99805 27.4571 8.11657 27.0226L10.7176 17.4854H1.22561C0.835577 17.4854 0.482715 17.254 0.327269 16.8963C0.171823 16.5386 0.243419 16.1227 0.509545 15.8376L14.2224 1.14518C14.5298 0.815901 15.022 0.738659 15.4155 0.95799Z" fill="white"/>
</svg>
