<svg width="24" height="25" viewBox="0 0 24 25" fill="none" xmlns="http://www.w3.org/2000/svg">
<path d="M4.08071 0.792969C1.91688 0.792969 0.162743 2.5471 0.162743 4.71094V7.64941C0.162743 9.81325 1.91688 11.5674 4.08071 11.5674H7.01919C9.18302 11.5674 10.9372 9.81325 10.9372 7.64941V4.71094C10.9372 2.5471 9.18302 0.792969 7.01919 0.792969H4.08071Z" fill="white"/>
<path d="M16.8141 0.792969C14.6503 0.792969 12.8961 2.5471 12.8961 4.71094V7.64941C12.8961 9.81325 14.6503 11.5674 16.8141 11.5674H19.7526C21.9164 11.5674 23.6706 9.81325 23.6706 7.64941V4.71094C23.6706 2.5471 21.9164 0.792969 19.7526 0.792969H16.8141Z" fill="white"/>
<path d="M4.08071 13.5264C1.91688 13.5264 0.162743 15.2805 0.162743 17.4443V20.3828C0.162743 22.5466 1.91688 24.3008 4.08071 24.3008H7.01919C9.18302 24.3008 10.9372 22.5466 10.9372 20.3828V17.4443C10.9372 15.2805 9.18302 13.5264 7.01919 13.5264H4.08071Z" fill="white"/>
<path d="M19.2628 14.5059C19.2628 13.9649 18.8243 13.5264 18.2833 13.5264C17.7424 13.5264 17.3039 13.9649 17.3039 14.5059V17.9341H13.8756C13.3347 17.9341 12.8961 18.3726 12.8961 18.9136C12.8961 19.4545 13.3347 19.8931 13.8756 19.8931H17.3039V23.3213C17.3039 23.8622 17.7424 24.3008 18.2833 24.3008C18.8243 24.3008 19.2628 23.8622 19.2628 23.3213V19.8931H22.6911C23.232 19.8931 23.6706 19.4545 23.6706 18.9136C23.6706 18.3726 23.232 17.9341 22.6911 17.9341H19.2628V14.5059Z" fill="white"/>
</svg>
