<svg width="57" height="57" viewBox="0 0 57 57" fill="none" xmlns="http://www.w3.org/2000/svg">
<g clip-path="url(#clip0_896_579)">
<mask id="mask0_896_579" style="mask-type:luminance" maskUnits="userSpaceOnUse" x="0" y="0" width="57" height="57">
<path d="M0.606079 0.478516H56.9838V56.8562H0.606079V0.478516Z" fill="white"/>
</mask>
<g mask="url(#mask0_896_579)">
<path d="M28.6728 56.8777L27.8412 56.5081C26.9157 56.101 5.3042 46.3414 5.3042 28.6669V13.3416C5.3052 11.8667 5.77149 10.4297 6.63668 9.23528C7.50188 8.04082 8.72186 7.14978 10.1229 6.68902L28.7949 0.5L47.4685 6.68902C48.8694 7.14984 50.0892 8.04095 50.9541 9.23542C51.819 10.4299 52.285 11.8668 52.2856 13.3416V28.6669C52.2856 48.8157 30.4675 56.2811 29.5372 56.5896L28.6728 56.8777ZM28.7949 5.42522L11.6091 11.1272C11.1423 11.2797 10.7356 11.5758 10.447 11.9731C10.1585 12.3705 10.0028 12.8489 10.0023 13.34V28.6669C10.0023 41.5727 25.1304 49.9448 28.9045 51.8319C32.674 50.316 47.5875 43.38 47.5875 28.6669V13.3416C47.588 12.8497 47.4328 12.3702 47.1442 11.9719C46.8556 11.5736 46.4483 11.2768 45.9807 11.1241L28.7949 5.42679V5.42522Z" fill="#4280EF"/>
<path d="M26.7084 34.6384H26.6301C26.0357 34.6291 25.4493 34.4994 24.9064 34.2572C24.3635 34.015 23.8753 33.6652 23.4714 33.229L18.0529 27.5912L21.4387 24.3448L26.71 29.8416L38.8813 17.6719L42.2013 20.9919L29.8452 33.3511C29.4335 33.7626 28.9443 34.0882 28.4058 34.3092C27.8674 34.5301 27.2904 34.642 26.7084 34.6384Z" fill="#4280EF"/>
</g>
</g>
<defs>
<clipPath id="clip0_896_579">
<rect width="56.3777" height="56.3777" fill="white" transform="translate(0.605957 0.476562)"/>
</clipPath>
</defs>
</svg>
