<svg width="57" height="57" viewBox="0 0 57 57" fill="none" xmlns="http://www.w3.org/2000/svg">
<g clip-path="url(#clip0_896_590)">
<g clip-path="url(#clip1_896_590)">
<g clip-path="url(#clip2_896_590)">
<mask id="mask0_896_590" style="mask-type:luminance" maskUnits="userSpaceOnUse" x="0" y="0" width="57" height="57">
<path d="M0.0762939 0.478516H56.454V56.8562H0.0762939V0.478516Z" fill="white"/>
</mask>
<g mask="url(#mask0_896_590)">
<path d="M56.454 9.8748C56.454 4.69275 52.2398 0.478516 47.0577 0.478516C41.8757 0.478516 37.6614 4.69275 37.6614 9.8748C37.6639 11.9574 38.3571 13.9803 39.6323 15.6268C40.9076 17.2733 42.6929 18.4503 44.7087 18.9735V19.2711C44.7087 23.1565 41.5468 26.3183 37.6614 26.3183H35.3124C32.5091 26.3183 29.9878 27.5524 28.2652 29.5052C27.3849 28.5032 26.3009 27.7005 25.0856 27.151C23.8703 26.6014 22.5517 26.3175 21.2179 26.3183H18.8689C17.0005 26.3162 15.2092 25.5731 13.888 24.2519C12.5669 22.9308 11.8237 21.1395 11.8217 19.2711V18.9735C13.8374 18.4503 15.6227 17.2733 16.898 15.6268C18.1732 13.9803 18.8664 11.9574 18.8689 9.8748C18.8689 4.69275 14.6546 0.478516 9.47258 0.478516C4.29053 0.478516 0.0762939 4.69275 0.0762939 9.8748C0.0787948 11.9574 0.771944 13.9803 2.04718 15.6268C3.32243 17.2733 5.10774 18.4503 7.12351 18.9735V19.2711C7.12351 25.7483 12.3917 31.0165 18.8689 31.0165H21.2179C23.8098 31.0165 25.9161 33.1244 25.9161 35.7146V38.3612C23.9003 38.8845 22.115 40.0615 20.8398 41.708C19.5645 43.3544 18.8714 45.3774 18.8689 47.46C18.8689 52.642 23.0831 56.8562 28.2652 56.8562C33.4472 56.8562 37.6614 52.642 37.6614 47.46C37.6589 45.3774 36.9658 43.3544 35.6906 41.708C34.4153 40.0615 32.63 38.8845 30.6142 38.3612V35.7146C30.6142 33.1244 32.7221 31.0165 35.3124 31.0165H37.6614C44.1386 31.0165 49.4068 25.7483 49.4068 19.2711V18.9735C51.4226 18.4503 53.2079 17.2733 54.4831 15.6268C55.7584 13.9803 56.4515 11.9574 56.454 9.8748ZM4.77444 9.8748C4.77444 7.28456 6.88234 5.17666 9.47258 5.17666C12.0628 5.17666 14.1707 7.28456 14.1707 9.8748C14.1707 12.465 12.0628 14.5729 9.47258 14.5729C6.88234 14.5729 4.77444 12.465 4.77444 9.8748ZM32.9633 47.46C32.9633 50.0502 30.8554 52.1581 28.2652 52.1581C25.6749 52.1581 23.567 50.0502 23.567 47.46C23.567 44.8697 25.6749 42.7618 28.2652 42.7618C30.8554 42.7618 32.9633 44.8697 32.9633 47.46ZM47.0577 14.5729C44.4675 14.5729 42.3596 12.465 42.3596 9.8748C42.3596 7.28456 44.4675 5.17666 47.0577 5.17666C49.648 5.17666 51.7559 7.28456 51.7559 9.8748C51.7559 12.465 49.648 14.5729 47.0577 14.5729Z" fill="#4280EF"/>
</g>
</g>
</g>
</g>
<defs>
<clipPath id="clip0_896_590">
<rect width="56.3777" height="56.3777" fill="white" transform="translate(0.0761108 0.476562)"/>
</clipPath>
<clipPath id="clip1_896_590">
<rect width="56.3777" height="56.3777" fill="white" transform="translate(0.0761414 0.476562)"/>
</clipPath>
<clipPath id="clip2_896_590">
<rect width="56.3777" height="56.3777" fill="white" transform="translate(0.0761719 0.476562)"/>
</clipPath>
</defs>
</svg>
