<svg width="57" height="57" viewBox="0 0 57 57" fill="none" xmlns="http://www.w3.org/2000/svg">
<g clip-path="url(#clip0_896_603)">
<g clip-path="url(#clip1_896_603)">
<mask id="mask0_896_603" style="mask-type:luminance" maskUnits="userSpaceOnUse" x="0" y="0" width="57" height="57">
<path d="M0.546112 0.478516H56.9238V56.8562H0.546112V0.478516Z" fill="white"/>
</mask>
<g mask="url(#mask0_896_603)">
<path d="M19.3387 0.478516C11.5664 0.478516 5.24426 6.80065 5.24426 14.5729C5.24426 22.3452 11.5664 28.6674 19.3387 28.6674C27.111 28.6674 33.4331 22.3452 33.4331 14.5729C33.4331 6.80065 27.111 0.478516 19.3387 0.478516ZM19.3387 23.9692C14.1566 23.9692 9.9424 19.755 9.9424 14.5729C9.9424 9.39089 14.1566 5.17666 19.3387 5.17666C24.5207 5.17666 28.735 9.39089 28.735 14.5729C28.735 19.755 24.5207 23.9692 19.3387 23.9692ZM12.2915 33.3655H26.3859V38.0637H12.2915C10.4231 38.0657 8.63179 38.8089 7.31063 40.13C5.98947 41.4512 5.24633 43.2425 5.24426 45.1109V56.8562H0.546112V45.1109C0.546112 38.6337 5.81586 33.3655 12.2915 33.3655ZM52.8975 27.7293L44.0039 24.7836L35.1104 27.7309C33.9378 28.118 32.9173 28.8653 32.1943 29.8664C31.4713 30.8675 31.0828 32.0712 31.084 33.306V41.3524C31.084 49.7354 39.8085 54.7483 42.4849 56.0857L43.9021 56.7952L45.3758 56.2032C48.0851 55.1132 56.9254 50.8191 56.9254 41.3524V33.3044C56.9254 30.7675 55.3092 28.528 52.9007 27.7293H52.8975ZM52.2257 41.3524C52.2257 47.4177 46.5315 50.5717 44.1089 51.6397C41.9587 50.4856 35.7822 46.7083 35.7822 41.3524V33.3044C35.7823 33.0574 35.8603 32.8166 36.0051 32.6165C36.1498 32.4163 36.3541 32.2668 36.5887 32.1894L44.0039 29.7307L51.4207 32.1894C51.6551 32.2671 51.859 32.4166 52.0035 32.6168C52.148 32.817 52.2257 33.0576 52.2257 33.3044V41.3524Z" fill="#4280EF"/>
</g>
</g>
</g>
<defs>
<clipPath id="clip0_896_603">
<rect width="56.3777" height="56.3777" fill="white" transform="translate(0.546158 0.476562)"/>
</clipPath>
<clipPath id="clip1_896_603">
<rect width="56.3777" height="56.3777" fill="white" transform="translate(0.546143 0.476562)"/>
</clipPath>
</defs>
</svg>
