<svg width="57" height="57" viewBox="0 0 57 57" fill="none" xmlns="http://www.w3.org/2000/svg">
<g clip-path="url(#clip0_896_617)">
<mask id="mask0_896_617" style="mask-type:luminance" maskUnits="userSpaceOnUse" x="0" y="0" width="57" height="57">
<path d="M0.0160217 0.478516H56.3937V56.8562H0.0160217V0.478516Z" fill="white"/>
</mask>
<g mask="url(#mask0_896_617)">
<path d="M39.9502 42.7611C39.9502 41.8357 39.768 40.9193 39.4138 40.0643C39.0596 39.2093 38.5405 38.4324 37.8862 37.778C37.2318 37.1236 36.4549 36.6045 35.5999 36.2504C34.7449 35.8962 33.8285 35.7139 32.903 35.7139C31.9776 35.7139 31.0612 35.8962 30.2062 36.2504C29.3512 36.6045 28.5743 37.1236 27.9199 37.778C27.2655 38.4324 26.7464 39.2093 26.3922 40.0643C26.0381 40.9193 25.8558 41.8357 25.8558 42.7611H30.5539C30.5539 42.1381 30.8014 41.5406 31.242 41.1001C31.6825 40.6596 32.28 40.4121 32.903 40.4121C33.526 40.4121 34.1235 40.6596 34.5641 41.1001C35.0046 41.5406 35.2521 42.1381 35.2521 42.7611C35.2521 43.9357 33.2554 45.4344 31.4936 46.7546C28.8501 48.7372 25.8558 50.9829 25.8558 54.5065V56.8556H39.9502V52.1574H32.2218C32.8576 51.603 33.6046 51.044 34.3125 50.5131C36.956 48.5305 39.9502 46.2847 39.9502 42.7611ZM51.6956 45.1102H46.9975V35.7139H42.2993V45.1102C42.2993 46.3562 42.7943 47.5512 43.6754 48.4323C44.5564 49.3134 45.7514 49.8083 46.9975 49.8083H51.6956V56.8556H56.3937V35.7139H51.6956V45.1102ZM30.5539 14.5723H25.8558V26.3176H16.4595V31.0158H30.5539V14.5723Z" fill="#4280EF"/>
<path d="M51.695 5.17611V13.1019C49.1729 9.28774 45.7604 6.14473 41.7521 3.94418C37.7438 1.74362 33.2602 0.551652 28.6883 0.471163C24.1164 0.390674 19.5936 1.42409 15.5103 3.48219C11.4271 5.54029 7.90606 8.56123 5.25125 12.2842C2.59644 16.0072 0.887606 20.3204 0.272266 24.8514C-0.343073 29.3824 0.153574 33.9951 1.71933 38.2913C3.28509 42.5875 5.87291 46.4381 9.25939 49.5106C12.6459 52.5831 16.7293 54.7853 21.157 55.927V51.077C17.5052 49.9408 14.1861 47.9302 11.4879 45.2198C8.78967 42.5094 6.79404 39.1812 5.67434 35.5243C4.55464 31.8674 4.34473 27.9924 5.06286 24.236C5.78098 20.4795 7.40541 16.9552 9.79504 13.9692C12.1847 10.9832 15.2672 8.6258 18.7749 7.10179C22.2826 5.57777 26.1094 4.93324 29.9228 5.22418C33.7361 5.51512 37.4208 6.73273 40.6567 8.77124C43.8926 10.8097 46.5819 13.6075 48.4908 16.9215H39.9496V21.6196H51.695C52.941 21.6196 54.136 21.1246 55.0171 20.2436C55.8981 19.3625 56.3931 18.1675 56.3931 16.9215V5.17611H51.695Z" fill="#4280EF"/>
</g>
</g>
<defs>
<clipPath id="clip0_896_617">
<rect width="56.3777" height="56.3777" fill="white" transform="translate(0.0161057 0.476562)"/>
</clipPath>
</defs>
</svg>
